<svg width="262.808" height="12.993" viewBox="0 0 262.808 12.993" xmlns="http://www.w3.org/2000/svg"><g id="svgGroup" stroke-linecap="round" fill-rule="evenodd" font-size="9pt" stroke="#000" stroke-width="0" fill="#000" style="stroke:#000;stroke-width:0;fill:#000"><path d="M 200.64 4.021 L 199.981 6.57 Q 199.845 7.091 199.845 7.421 A 1.566 1.566 0 0 0 199.845 7.438 Q 199.847 7.656 199.892 7.814 A 0.741 0.741 0 0 0 199.951 7.961 A 0.603 0.603 0 0 0 200.064 8.112 A 0.508 0.508 0 0 0 200.237 8.221 A 1.071 1.071 0 0 0 200.519 8.286 A 1.297 1.297 0 0 0 200.64 8.291 A 1.162 1.162 0 0 0 201.19 8.15 A 1.43 1.43 0 0 0 201.288 8.093 A 1.643 1.643 0 0 0 201.661 7.763 A 2.114 2.114 0 0 0 201.83 7.533 A 2.801 2.801 0 0 0 202.055 7.095 A 3.753 3.753 0 0 0 202.2 6.669 A 3.743 3.743 0 0 0 202.312 6.068 A 4.828 4.828 0 0 0 202.339 5.552 A 5.161 5.161 0 0 0 202.273 4.705 A 3.774 3.774 0 0 0 202.028 3.845 Q 201.716 3.113 201.171 2.626 A 3.568 3.568 0 0 0 200.019 1.941 A 4.123 4.123 0 0 0 199.882 1.893 A 4.921 4.921 0 0 0 198.672 1.661 A 5.805 5.805 0 0 0 198.274 1.648 A 4.381 4.381 0 0 0 196.505 2.007 A 4.449 4.449 0 0 0 195.066 3.003 A 4.645 4.645 0 0 0 194.121 4.454 A 5.273 5.273 0 0 0 194.099 4.508 A 4.872 4.872 0 0 0 193.756 6.08 A 5.702 5.702 0 0 0 193.748 6.394 A 6.479 6.479 0 0 0 193.83 7.454 A 4.757 4.757 0 0 0 194.125 8.503 A 4.582 4.582 0 0 0 194.704 9.523 A 4.009 4.009 0 0 0 195.154 10.023 Q 195.806 10.635 196.685 10.946 A 5.507 5.507 0 0 0 198.262 11.25 A 6.372 6.372 0 0 0 198.574 11.257 A 8.611 8.611 0 0 0 199.468 11.213 Q 200.011 11.156 200.475 11.027 A 6.764 6.764 0 0 0 201.197 10.782 Q 201.571 10.63 201.882 10.443 A 4.256 4.256 0 0 0 201.892 10.437 A 0.554 0.554 0 0 1 201.958 10.403 Q 202.023 10.375 202.079 10.375 A 0.201 0.201 0 0 1 202.145 10.386 A 0.242 0.242 0 0 1 202.27 10.485 A 0.361 0.361 0 0 1 202.302 10.547 L 202.485 11.023 A 6.196 6.196 0 0 1 201.346 11.611 A 7.433 7.433 0 0 1 200.761 11.814 A 6.708 6.708 0 0 1 199.591 12.051 A 8.856 8.856 0 0 1 198.574 12.107 Q 197.344 12.107 196.289 11.719 A 5.243 5.243 0 0 1 194.486 10.617 A 5.105 5.105 0 0 1 194.462 10.594 A 5.143 5.143 0 0 1 193.362 9.057 A 5.996 5.996 0 0 1 193.246 8.796 A 5.696 5.696 0 0 1 192.86 7.321 A 7.281 7.281 0 0 1 192.803 6.394 Q 192.803 5.625 192.997 4.911 A 5.8 5.8 0 0 1 193.543 3.574 Q 193.894 2.952 194.392 2.443 A 5.543 5.543 0 0 1 195.498 1.567 A 5.421 5.421 0 0 1 196.809 1 Q 197.512 0.798 198.274 0.798 A 5.604 5.604 0 0 1 200.156 1.117 A 4.827 4.827 0 0 1 201.749 2.043 Q 202.441 2.651 202.855 3.538 A 4.383 4.383 0 0 1 203.225 4.838 A 5.559 5.559 0 0 1 203.269 5.552 A 4.721 4.721 0 0 1 203.176 6.504 A 4.069 4.069 0 0 1 203.053 6.965 A 3.884 3.884 0 0 1 202.738 7.677 A 3.26 3.26 0 0 1 202.456 8.093 A 2.801 2.801 0 0 1 201.626 8.802 A 2.709 2.709 0 0 1 201.563 8.837 A 2.372 2.372 0 0 1 200.449 9.104 Q 199.907 9.104 199.559 8.84 A 1.082 1.082 0 0 1 199.233 8.427 Q 199.161 8.273 199.12 8.083 A 2.06 2.06 0 0 1 199.109 8.027 Q 198.748 8.523 198.334 8.773 A 1.898 1.898 0 0 1 198.219 8.837 Q 197.739 9.082 197.19 9.082 A 2.018 2.018 0 0 1 196.821 9.05 A 1.515 1.515 0 0 1 196.458 8.936 A 1.456 1.456 0 0 1 195.934 8.533 A 1.631 1.631 0 0 1 195.681 8.093 A 1.981 1.981 0 0 1 195.623 7.921 A 2.641 2.641 0 0 1 195.527 7.359 A 3.123 3.123 0 0 1 195.52 7.156 Q 195.52 6.753 195.623 6.343 A 3.505 3.505 0 0 1 195.927 5.552 Q 196.128 5.171 196.432 4.838 Q 196.736 4.504 197.135 4.259 Q 197.534 4.014 198.032 3.871 A 3.681 3.681 0 0 1 198.727 3.745 A 4.546 4.546 0 0 1 199.124 3.728 Q 199.533 3.728 199.855 3.782 A 2.986 2.986 0 0 1 199.959 3.801 A 3.174 3.174 0 0 1 200.64 4.021 Z M 222.942 10.415 L 221.653 10.415 L 221.653 3.252 L 222.415 3.252 Q 222.521 3.252 222.594 3.285 A 0.271 0.271 0 0 1 222.645 3.314 Q 222.72 3.37 222.74 3.487 A 0.468 0.468 0 0 1 222.744 3.516 L 222.854 4.248 A 4.619 4.619 0 0 1 223.283 3.805 A 2.915 2.915 0 0 1 223.762 3.453 A 2.276 2.276 0 0 1 224.312 3.223 A 2.284 2.284 0 0 1 224.812 3.145 A 2.616 2.616 0 0 1 224.934 3.142 A 2.217 2.217 0 0 1 225.47 3.204 A 1.592 1.592 0 0 1 226.139 3.545 A 2.07 2.07 0 0 1 226.669 4.268 A 2.699 2.699 0 0 1 226.802 4.629 A 2.323 2.323 0 0 1 227.019 4.201 A 1.944 1.944 0 0 1 227.208 3.955 A 2.443 2.443 0 0 1 227.769 3.494 A 2.353 2.353 0 0 1 228.428 3.226 A 3.07 3.07 0 0 1 229.146 3.142 A 3.128 3.128 0 0 1 229.888 3.225 A 2.076 2.076 0 0 1 230.958 3.845 Q 231.502 4.442 231.584 5.471 A 4.78 4.78 0 0 1 231.599 5.852 L 231.599 10.415 L 230.31 10.415 L 230.31 5.852 A 2.922 2.922 0 0 0 230.274 5.375 Q 230.232 5.123 230.142 4.922 A 1.293 1.293 0 0 0 229.929 4.589 A 1.234 1.234 0 0 0 229.269 4.206 A 1.894 1.894 0 0 0 228.838 4.16 A 1.74 1.74 0 0 0 228.275 4.25 A 1.652 1.652 0 0 0 228.23 4.266 Q 227.944 4.373 227.728 4.589 A 1.52 1.52 0 0 0 227.454 4.968 A 1.832 1.832 0 0 0 227.384 5.12 A 1.682 1.682 0 0 0 227.282 5.495 A 2.311 2.311 0 0 0 227.256 5.852 L 227.256 10.415 L 225.967 10.415 L 225.967 5.852 A 3.322 3.322 0 0 0 225.939 5.405 Q 225.907 5.174 225.841 4.987 A 1.293 1.293 0 0 0 225.612 4.578 Q 225.264 4.169 224.597 4.16 A 2.235 2.235 0 0 0 224.568 4.16 A 1.683 1.683 0 0 0 223.689 4.406 A 2.552 2.552 0 0 0 223.171 4.82 A 3.185 3.185 0 0 0 222.942 5.083 L 222.942 10.415 Z M 185.764 10.415 L 184.475 10.415 L 184.475 0 L 185.764 0 L 185.764 4.197 A 3.727 3.727 0 0 1 186.555 3.542 A 3.445 3.445 0 0 1 186.757 3.428 A 2.479 2.479 0 0 1 187.547 3.176 A 3.207 3.207 0 0 1 188.02 3.142 A 2.999 2.999 0 0 1 188.538 3.185 A 2.228 2.228 0 0 1 189.049 3.336 A 2.019 2.019 0 0 1 189.793 3.885 A 2.236 2.236 0 0 1 190.147 4.472 A 2.738 2.738 0 0 1 190.243 4.742 Q 190.393 5.244 190.393 5.852 L 190.393 10.415 L 189.104 10.415 L 189.104 5.852 A 2.865 2.865 0 0 0 189.065 5.366 Q 189.02 5.101 188.92 4.888 A 1.398 1.398 0 0 0 188.745 4.607 A 1.14 1.14 0 0 0 188.138 4.22 Q 187.946 4.168 187.714 4.161 A 2.365 2.365 0 0 0 187.647 4.16 A 2.042 2.042 0 0 0 186.628 4.424 A 3.053 3.053 0 0 0 186.005 4.892 A 3.728 3.728 0 0 0 185.764 5.149 L 185.764 10.415 Z M 16.062 10.415 L 14.773 10.415 L 14.773 3.252 L 15.542 3.252 A 0.509 0.509 0 0 1 15.639 3.261 Q 15.714 3.275 15.769 3.314 Q 15.857 3.376 15.872 3.516 L 15.981 4.277 A 3.921 3.921 0 0 1 16.899 3.519 A 3.692 3.692 0 0 1 17.014 3.453 A 2.544 2.544 0 0 1 17.904 3.17 A 3.246 3.246 0 0 1 18.333 3.142 A 2.999 2.999 0 0 1 18.85 3.185 A 2.228 2.228 0 0 1 19.362 3.336 A 2.019 2.019 0 0 1 20.105 3.885 Q 20.405 4.241 20.559 4.742 A 3.474 3.474 0 0 1 20.691 5.411 A 4.366 4.366 0 0 1 20.713 5.852 L 20.713 10.415 L 19.424 10.415 L 19.424 5.852 Q 19.424 5.28 19.238 4.888 A 1.395 1.395 0 0 0 19.061 4.607 A 1.154 1.154 0 0 0 18.447 4.219 Q 18.255 4.168 18.025 4.161 A 2.366 2.366 0 0 0 17.959 4.16 Q 17.41 4.16 16.934 4.42 A 2.98 2.98 0 0 0 16.278 4.911 A 3.606 3.606 0 0 0 16.062 5.142 L 16.062 10.415 Z M 58.096 10.415 L 56.807 10.415 L 56.807 3.252 L 57.576 3.252 A 0.509 0.509 0 0 1 57.673 3.261 Q 57.748 3.275 57.803 3.314 Q 57.891 3.376 57.905 3.516 L 58.015 4.277 A 3.921 3.921 0 0 1 58.933 3.519 A 3.692 3.692 0 0 1 59.048 3.453 A 2.544 2.544 0 0 1 59.938 3.17 A 3.246 3.246 0 0 1 60.366 3.142 A 2.999 2.999 0 0 1 60.884 3.185 A 2.228 2.228 0 0 1 61.395 3.336 A 2.019 2.019 0 0 1 62.139 3.885 Q 62.439 4.241 62.593 4.742 A 3.474 3.474 0 0 1 62.725 5.411 A 4.366 4.366 0 0 1 62.747 5.852 L 62.747 10.415 L 61.458 10.415 L 61.458 5.852 Q 61.458 5.28 61.271 4.888 A 1.395 1.395 0 0 0 61.095 4.607 A 1.154 1.154 0 0 0 60.48 4.219 Q 60.289 4.168 60.059 4.161 A 2.366 2.366 0 0 0 59.993 4.16 Q 59.443 4.16 58.967 4.42 A 2.98 2.98 0 0 0 58.312 4.911 A 3.606 3.606 0 0 0 58.096 5.142 L 58.096 10.415 Z M 134.824 10.415 L 133.535 10.415 L 133.535 3.252 L 134.304 3.252 A 0.509 0.509 0 0 1 134.401 3.261 Q 134.476 3.275 134.531 3.314 Q 134.619 3.376 134.634 3.516 L 134.744 4.277 A 3.921 3.921 0 0 1 135.661 3.519 A 3.692 3.692 0 0 1 135.776 3.453 A 2.544 2.544 0 0 1 136.667 3.17 A 3.246 3.246 0 0 1 137.095 3.142 A 2.999 2.999 0 0 1 137.613 3.185 A 2.228 2.228 0 0 1 138.124 3.336 A 2.019 2.019 0 0 1 138.867 3.885 Q 139.168 4.241 139.321 4.742 A 3.474 3.474 0 0 1 139.454 5.411 A 4.366 4.366 0 0 1 139.475 5.852 L 139.475 10.415 L 138.186 10.415 L 138.186 5.852 Q 138.186 5.28 138 4.888 A 1.395 1.395 0 0 0 137.824 4.607 A 1.154 1.154 0 0 0 137.209 4.219 Q 137.017 4.168 136.788 4.161 A 2.366 2.366 0 0 0 136.721 4.16 Q 136.172 4.16 135.696 4.42 A 2.98 2.98 0 0 0 135.04 4.911 A 3.606 3.606 0 0 0 134.824 5.142 L 134.824 10.415 Z M 81.716 3.252 L 83.005 3.252 L 83.005 7.815 A 2.881 2.881 0 0 0 83.044 8.299 Q 83.123 8.764 83.368 9.064 A 1.151 1.151 0 0 0 83.968 9.445 Q 84.161 9.498 84.393 9.506 A 2.372 2.372 0 0 0 84.47 9.507 Q 85.02 9.507 85.492 9.247 A 3.137 3.137 0 0 0 86.132 8.776 A 3.809 3.809 0 0 0 86.367 8.533 L 86.367 3.252 L 87.656 3.252 L 87.656 10.415 L 86.88 10.415 A 0.461 0.461 0 0 1 86.78 10.405 A 0.328 0.328 0 0 1 86.66 10.353 Q 86.572 10.291 86.558 10.151 L 86.44 9.39 A 3.969 3.969 0 0 1 85.586 10.111 A 3.692 3.692 0 0 1 85.411 10.214 A 2.511 2.511 0 0 1 84.546 10.495 A 3.222 3.222 0 0 1 84.097 10.525 A 2.999 2.999 0 0 1 83.579 10.482 A 2.228 2.228 0 0 1 83.068 10.331 A 2.019 2.019 0 0 1 82.324 9.781 Q 82.024 9.426 81.87 8.925 A 3.474 3.474 0 0 1 81.738 8.256 A 4.366 4.366 0 0 1 81.716 7.815 L 81.716 3.252 Z M 93.604 3.53 L 95.479 3.53 L 95.479 4.006 A 0.327 0.327 0 0 1 95.455 4.134 Q 95.398 4.27 95.2 4.304 A 0.671 0.671 0 0 1 95.186 4.307 L 94.424 4.417 Q 94.651 4.885 94.651 5.442 Q 94.651 5.969 94.457 6.394 Q 94.263 6.819 93.918 7.119 A 2.393 2.393 0 0 1 93.274 7.518 A 2.823 2.823 0 0 1 93.102 7.584 A 2.963 2.963 0 0 1 92.392 7.734 A 3.6 3.6 0 0 1 92.065 7.749 A 3.5 3.5 0 0 1 91.535 7.71 A 2.872 2.872 0 0 1 91.201 7.639 Q 91.031 7.75 90.932 7.873 A 0.746 0.746 0 0 0 90.886 7.936 A 0.698 0.698 0 0 0 90.818 8.067 A 0.502 0.502 0 0 0 90.784 8.247 A 0.522 0.522 0 0 0 90.807 8.407 A 0.399 0.399 0 0 0 90.981 8.628 Q 91.14 8.728 91.378 8.785 A 2.225 2.225 0 0 0 91.502 8.811 A 4.333 4.333 0 0 0 91.84 8.858 Q 92.014 8.876 92.208 8.883 A 7.067 7.067 0 0 0 92.234 8.884 Q 92.644 8.899 93.073 8.932 Q 93.501 8.965 93.911 9.038 A 2.528 2.528 0 0 1 94.367 9.163 A 2.112 2.112 0 0 1 94.644 9.291 A 1.432 1.432 0 0 1 95.164 9.781 A 1.181 1.181 0 0 1 95.309 10.127 Q 95.361 10.334 95.361 10.591 Q 95.361 11.052 95.142 11.484 A 2.314 2.314 0 0 1 94.662 12.118 A 2.765 2.765 0 0 1 94.508 12.253 A 2.9 2.9 0 0 1 93.952 12.606 A 3.759 3.759 0 0 1 93.497 12.792 A 3.746 3.746 0 0 1 92.776 12.955 A 4.942 4.942 0 0 1 92.146 12.993 A 6.261 6.261 0 0 1 91.522 12.964 Q 91.216 12.933 90.949 12.87 A 3.58 3.58 0 0 1 90.828 12.839 A 3.685 3.685 0 0 1 90.373 12.685 Q 90.101 12.571 89.89 12.422 A 2.02 2.02 0 0 1 89.569 12.143 A 1.576 1.576 0 0 1 89.334 11.814 A 1.509 1.509 0 0 1 89.15 11.096 A 1.482 1.482 0 0 1 89.221 10.63 A 1.266 1.266 0 0 1 89.462 10.203 A 1.839 1.839 0 0 1 89.901 9.831 A 2.548 2.548 0 0 1 90.322 9.624 A 1.292 1.292 0 0 1 90.024 9.435 A 1.113 1.113 0 0 1 89.846 9.243 A 0.858 0.858 0 0 1 89.714 8.961 Q 89.67 8.8 89.67 8.599 A 0.989 0.989 0 0 1 89.725 8.282 Q 89.78 8.119 89.89 7.947 A 1.478 1.478 0 0 1 90.229 7.579 A 2.022 2.022 0 0 1 90.549 7.375 Q 90.044 7.075 89.755 6.584 Q 89.465 6.094 89.465 5.442 Q 89.465 4.915 89.659 4.49 Q 89.854 4.065 90.198 3.761 A 2.308 2.308 0 0 1 90.844 3.361 A 2.727 2.727 0 0 1 91.018 3.296 A 3.057 3.057 0 0 1 91.716 3.151 A 3.754 3.754 0 0 1 92.065 3.135 A 3.448 3.448 0 0 1 92.627 3.179 A 2.949 2.949 0 0 1 92.9 3.237 A 2.768 2.768 0 0 1 93.421 3.43 A 2.451 2.451 0 0 1 93.604 3.53 Z M 100.664 3.53 L 102.539 3.53 L 102.539 4.006 A 0.327 0.327 0 0 1 102.516 4.134 Q 102.459 4.27 102.26 4.304 A 0.671 0.671 0 0 1 102.246 4.307 L 101.484 4.417 Q 101.711 4.885 101.711 5.442 Q 101.711 5.969 101.517 6.394 Q 101.323 6.819 100.979 7.119 A 2.393 2.393 0 0 1 100.335 7.518 A 2.823 2.823 0 0 1 100.162 7.584 A 2.963 2.963 0 0 1 99.453 7.734 A 3.6 3.6 0 0 1 99.126 7.749 A 3.5 3.5 0 0 1 98.595 7.71 A 2.872 2.872 0 0 1 98.262 7.639 Q 98.092 7.75 97.992 7.873 A 0.746 0.746 0 0 0 97.947 7.936 A 0.698 0.698 0 0 0 97.879 8.067 A 0.502 0.502 0 0 0 97.844 8.247 A 0.522 0.522 0 0 0 97.868 8.407 A 0.399 0.399 0 0 0 98.042 8.628 Q 98.2 8.728 98.439 8.785 A 2.225 2.225 0 0 0 98.562 8.811 A 4.333 4.333 0 0 0 98.901 8.858 Q 99.075 8.876 99.269 8.883 A 7.067 7.067 0 0 0 99.294 8.884 Q 99.705 8.899 100.133 8.932 Q 100.562 8.965 100.972 9.038 A 2.528 2.528 0 0 1 101.428 9.163 A 2.112 2.112 0 0 1 101.704 9.291 A 1.432 1.432 0 0 1 102.224 9.781 A 1.181 1.181 0 0 1 102.369 10.127 Q 102.422 10.334 102.422 10.591 Q 102.422 11.052 102.202 11.484 A 2.314 2.314 0 0 1 101.723 12.118 A 2.765 2.765 0 0 1 101.569 12.253 A 2.9 2.9 0 0 1 101.013 12.606 A 3.759 3.759 0 0 1 100.558 12.792 A 3.746 3.746 0 0 1 99.837 12.955 A 4.942 4.942 0 0 1 99.207 12.993 A 6.261 6.261 0 0 1 98.583 12.964 Q 98.276 12.933 98.009 12.87 A 3.58 3.58 0 0 1 97.888 12.839 A 3.685 3.685 0 0 1 97.433 12.685 Q 97.162 12.571 96.951 12.422 A 2.02 2.02 0 0 1 96.629 12.143 A 1.576 1.576 0 0 1 96.394 11.814 A 1.509 1.509 0 0 1 96.211 11.096 A 1.482 1.482 0 0 1 96.282 10.63 A 1.266 1.266 0 0 1 96.522 10.203 A 1.839 1.839 0 0 1 96.962 9.831 A 2.548 2.548 0 0 1 97.383 9.624 A 1.292 1.292 0 0 1 97.084 9.435 A 1.113 1.113 0 0 1 96.907 9.243 A 0.858 0.858 0 0 1 96.775 8.961 Q 96.731 8.8 96.731 8.599 A 0.989 0.989 0 0 1 96.786 8.282 Q 96.841 8.119 96.951 7.947 A 1.478 1.478 0 0 1 97.289 7.579 A 2.022 2.022 0 0 1 97.61 7.375 Q 97.105 7.075 96.815 6.584 Q 96.526 6.094 96.526 5.442 Q 96.526 4.915 96.72 4.49 Q 96.914 4.065 97.258 3.761 A 2.308 2.308 0 0 1 97.905 3.361 A 2.727 2.727 0 0 1 98.079 3.296 A 3.057 3.057 0 0 1 98.776 3.151 A 3.754 3.754 0 0 1 99.126 3.135 A 3.448 3.448 0 0 1 99.687 3.179 A 2.949 2.949 0 0 1 99.961 3.237 A 2.768 2.768 0 0 1 100.481 3.43 A 2.451 2.451 0 0 1 100.664 3.53 Z M 181.289 3.53 L 183.164 3.53 L 183.164 4.006 A 0.327 0.327 0 0 1 183.141 4.134 Q 183.084 4.27 182.885 4.304 A 0.671 0.671 0 0 1 182.871 4.307 L 182.109 4.417 Q 182.336 4.885 182.336 5.442 Q 182.336 5.969 182.142 6.394 Q 181.948 6.819 181.604 7.119 A 2.393 2.393 0 0 1 180.96 7.518 A 2.823 2.823 0 0 1 180.787 7.584 A 2.963 2.963 0 0 1 180.078 7.734 A 3.6 3.6 0 0 1 179.751 7.749 A 3.5 3.5 0 0 1 179.22 7.71 A 2.872 2.872 0 0 1 178.887 7.639 Q 178.717 7.75 178.617 7.873 A 0.746 0.746 0 0 0 178.572 7.936 A 0.698 0.698 0 0 0 178.504 8.067 A 0.502 0.502 0 0 0 178.469 8.247 A 0.522 0.522 0 0 0 178.493 8.407 A 0.399 0.399 0 0 0 178.667 8.628 Q 178.825 8.728 179.064 8.785 A 2.225 2.225 0 0 0 179.187 8.811 A 4.333 4.333 0 0 0 179.526 8.858 Q 179.7 8.876 179.894 8.883 A 7.067 7.067 0 0 0 179.919 8.884 Q 180.33 8.899 180.758 8.932 Q 181.187 8.965 181.597 9.038 A 2.528 2.528 0 0 1 182.053 9.163 A 2.112 2.112 0 0 1 182.329 9.291 A 1.432 1.432 0 0 1 182.849 9.781 A 1.181 1.181 0 0 1 182.994 10.127 Q 183.047 10.334 183.047 10.591 Q 183.047 11.052 182.827 11.484 A 2.314 2.314 0 0 1 182.348 12.118 A 2.765 2.765 0 0 1 182.194 12.253 A 2.9 2.9 0 0 1 181.638 12.606 A 3.759 3.759 0 0 1 181.183 12.792 A 3.746 3.746 0 0 1 180.462 12.955 A 4.942 4.942 0 0 1 179.832 12.993 A 6.261 6.261 0 0 1 179.208 12.964 Q 178.901 12.933 178.634 12.87 A 3.58 3.58 0 0 1 178.513 12.839 A 3.685 3.685 0 0 1 178.058 12.685 Q 177.787 12.571 177.576 12.422 A 2.02 2.02 0 0 1 177.254 12.143 A 1.576 1.576 0 0 1 177.019 11.814 A 1.509 1.509 0 0 1 176.836 11.096 A 1.482 1.482 0 0 1 176.907 10.63 A 1.266 1.266 0 0 1 177.147 10.203 A 1.839 1.839 0 0 1 177.587 9.831 A 2.548 2.548 0 0 1 178.008 9.624 A 1.292 1.292 0 0 1 177.709 9.435 A 1.113 1.113 0 0 1 177.532 9.243 A 0.858 0.858 0 0 1 177.4 8.961 Q 177.356 8.8 177.356 8.599 A 0.989 0.989 0 0 1 177.411 8.282 Q 177.466 8.119 177.576 7.947 A 1.478 1.478 0 0 1 177.914 7.579 A 2.022 2.022 0 0 1 178.235 7.375 Q 177.73 7.075 177.44 6.584 Q 177.151 6.094 177.151 5.442 Q 177.151 4.915 177.345 4.49 Q 177.539 4.065 177.883 3.761 A 2.308 2.308 0 0 1 178.53 3.361 A 2.727 2.727 0 0 1 178.704 3.296 A 3.057 3.057 0 0 1 179.401 3.151 A 3.754 3.754 0 0 1 179.751 3.135 A 3.448 3.448 0 0 1 180.312 3.179 A 2.949 2.949 0 0 1 180.586 3.237 A 2.768 2.768 0 0 1 181.106 3.43 A 2.451 2.451 0 0 1 181.289 3.53 Z M 70.488 10.415 L 69.719 10.415 A 0.509 0.509 0 0 1 69.622 10.406 Q 69.547 10.392 69.492 10.353 Q 69.404 10.291 69.39 10.151 L 69.258 9.294 A 3.905 3.905 0 0 1 68.403 10.07 A 3.646 3.646 0 0 1 68.225 10.181 A 2.476 2.476 0 0 1 67.277 10.494 A 3.144 3.144 0 0 1 66.885 10.518 A 2.686 2.686 0 0 1 66.203 10.434 A 2.319 2.319 0 0 1 65.783 10.28 A 2.314 2.314 0 0 1 64.959 9.609 A 2.683 2.683 0 0 1 64.937 9.58 A 2.923 2.923 0 0 1 64.6 9.009 A 4.001 4.001 0 0 1 64.395 8.434 Q 64.204 7.749 64.204 6.855 A 5.291 5.291 0 0 1 64.301 5.829 A 4.588 4.588 0 0 1 64.413 5.38 A 3.82 3.82 0 0 1 64.727 4.632 A 3.211 3.211 0 0 1 65.017 4.197 Q 65.413 3.699 65.98 3.413 A 2.68 2.68 0 0 1 66.895 3.148 A 3.332 3.332 0 0 1 67.266 3.127 A 3.301 3.301 0 0 1 67.764 3.163 Q 68.041 3.205 68.274 3.298 A 1.931 1.931 0 0 1 68.379 3.344 A 2.521 2.521 0 0 1 69.177 3.937 A 2.878 2.878 0 0 1 69.199 3.962 L 69.199 0 L 70.488 0 L 70.488 10.415 Z M 109.417 6.841 L 104.627 6.841 A 4.893 4.893 0 0 0 104.669 7.397 Q 104.715 7.734 104.81 8.016 A 2.706 2.706 0 0 0 105.003 8.462 A 2.059 2.059 0 0 0 105.275 8.848 Q 105.571 9.177 105.981 9.342 A 2.284 2.284 0 0 0 106.587 9.49 A 2.844 2.844 0 0 0 106.897 9.507 Q 107.306 9.507 107.621 9.426 A 1.968 1.968 0 0 0 107.71 9.401 A 4.118 4.118 0 0 0 107.992 9.303 Q 108.162 9.237 108.3 9.163 Q 108.487 9.062 108.63 8.976 A 4.699 4.699 0 0 0 108.713 8.925 Q 108.882 8.818 109.006 8.818 Q 109.087 8.818 109.146 8.851 A 0.323 0.323 0 0 1 109.234 8.925 A 0.382 0.382 0 0 1 109.248 8.943 L 109.614 9.412 Q 109.373 9.697 109.047 9.906 A 3.514 3.514 0 0 1 108.347 10.25 Q 107.974 10.386 107.575 10.452 A 4.827 4.827 0 0 1 106.787 10.518 A 3.917 3.917 0 0 1 105.862 10.412 A 3.415 3.415 0 0 1 105.41 10.269 A 2.974 2.974 0 0 1 104.323 9.532 A 3.218 3.218 0 0 1 103.778 8.735 A 3.984 3.984 0 0 1 103.608 8.331 Q 103.352 7.617 103.352 6.687 A 4.28 4.28 0 0 1 103.471 5.664 A 3.833 3.833 0 0 1 103.583 5.292 A 3.348 3.348 0 0 1 104.118 4.318 A 3.16 3.16 0 0 1 104.249 4.164 A 3.051 3.051 0 0 1 105.311 3.413 Q 105.938 3.142 106.721 3.142 A 3.431 3.431 0 0 1 107.558 3.241 A 3.034 3.034 0 0 1 107.915 3.354 A 2.664 2.664 0 0 1 108.867 3.977 A 2.781 2.781 0 0 1 109.389 4.73 A 3.331 3.331 0 0 1 109.497 4.98 A 3.348 3.348 0 0 1 109.681 5.704 A 4.501 4.501 0 0 1 109.724 6.343 A 2.176 2.176 0 0 1 109.721 6.465 Q 109.71 6.665 109.658 6.742 A 0.201 0.201 0 0 1 109.561 6.818 Q 109.502 6.841 109.417 6.841 Z M 175.518 6.841 L 170.728 6.841 A 4.893 4.893 0 0 0 170.77 7.397 Q 170.816 7.734 170.911 8.016 A 2.706 2.706 0 0 0 171.104 8.462 A 2.059 2.059 0 0 0 171.376 8.848 Q 171.672 9.177 172.083 9.342 A 2.284 2.284 0 0 0 172.688 9.49 A 2.844 2.844 0 0 0 172.998 9.507 Q 173.408 9.507 173.722 9.426 A 1.968 1.968 0 0 0 173.811 9.401 A 4.118 4.118 0 0 0 174.093 9.303 Q 174.263 9.237 174.401 9.163 Q 174.589 9.062 174.731 8.976 A 4.699 4.699 0 0 0 174.814 8.925 Q 174.983 8.818 175.107 8.818 Q 175.188 8.818 175.247 8.851 A 0.323 0.323 0 0 1 175.335 8.925 A 0.382 0.382 0 0 1 175.349 8.943 L 175.715 9.412 Q 175.474 9.697 175.148 9.906 A 3.514 3.514 0 0 1 174.448 10.25 Q 174.075 10.386 173.676 10.452 A 4.827 4.827 0 0 1 172.888 10.518 A 3.917 3.917 0 0 1 171.963 10.412 A 3.415 3.415 0 0 1 171.511 10.269 A 2.974 2.974 0 0 1 170.424 9.532 A 3.218 3.218 0 0 1 169.879 8.735 A 3.984 3.984 0 0 1 169.71 8.331 Q 169.453 7.617 169.453 6.687 A 4.28 4.28 0 0 1 169.572 5.664 A 3.833 3.833 0 0 1 169.684 5.292 A 3.348 3.348 0 0 1 170.219 4.318 A 3.16 3.16 0 0 1 170.35 4.164 A 3.051 3.051 0 0 1 171.412 3.413 Q 172.039 3.142 172.822 3.142 A 3.431 3.431 0 0 1 173.659 3.241 A 3.034 3.034 0 0 1 174.016 3.354 A 2.664 2.664 0 0 1 174.968 3.977 A 2.781 2.781 0 0 1 175.49 4.73 A 3.331 3.331 0 0 1 175.598 4.98 A 3.348 3.348 0 0 1 175.782 5.704 A 4.501 4.501 0 0 1 175.825 6.343 A 2.176 2.176 0 0 1 175.822 6.465 Q 175.811 6.665 175.759 6.742 A 0.201 0.201 0 0 1 175.662 6.818 Q 175.603 6.841 175.518 6.841 Z M 80.193 3.977 L 79.907 4.438 Q 79.823 4.592 79.66 4.599 A 0.371 0.371 0 0 1 79.644 4.6 A 0.351 0.351 0 0 1 79.537 4.582 Q 79.494 4.568 79.448 4.544 A 0.712 0.712 0 0 1 79.406 4.519 Q 79.277 4.438 79.098 4.347 A 2.455 2.455 0 0 0 78.915 4.264 Q 78.803 4.218 78.673 4.175 Q 78.46 4.105 78.179 4.096 A 2.669 2.669 0 0 0 78.091 4.094 A 1.738 1.738 0 0 0 77.812 4.116 A 1.341 1.341 0 0 0 77.578 4.175 A 1.303 1.303 0 0 0 77.335 4.289 A 1.086 1.086 0 0 0 77.19 4.395 A 0.977 0.977 0 0 0 76.941 4.72 Q 76.853 4.907 76.853 5.12 A 0.871 0.871 0 0 0 76.877 5.33 A 0.645 0.645 0 0 0 77 5.581 A 1.153 1.153 0 0 0 77.22 5.79 A 1.49 1.49 0 0 0 77.388 5.896 A 3.15 3.15 0 0 0 77.677 6.034 A 4.115 4.115 0 0 0 77.941 6.134 Q 78.252 6.24 78.574 6.35 A 6.14 6.14 0 0 1 79.208 6.606 A 2.379 2.379 0 0 1 79.684 6.901 A 2.185 2.185 0 0 1 79.761 6.965 Q 80.002 7.178 80.149 7.482 Q 80.284 7.762 80.295 8.151 A 2.463 2.463 0 0 1 80.295 8.218 A 2.58 2.58 0 0 1 80.223 8.838 A 2.266 2.266 0 0 1 80.127 9.137 Q 79.959 9.558 79.633 9.866 A 2.178 2.178 0 0 1 79.112 10.226 A 2.708 2.708 0 0 1 78.827 10.349 A 2.799 2.799 0 0 1 78.251 10.49 A 3.795 3.795 0 0 1 77.725 10.525 A 3.617 3.617 0 0 1 76.936 10.442 A 3.034 3.034 0 0 1 76.432 10.283 A 3.382 3.382 0 0 1 75.804 9.945 A 2.837 2.837 0 0 1 75.447 9.653 L 75.747 9.17 A 0.509 0.509 0 0 1 75.811 9.086 A 0.399 0.399 0 0 1 75.886 9.023 A 0.31 0.31 0 0 1 75.981 8.984 Q 76.022 8.974 76.069 8.973 A 0.577 0.577 0 0 1 76.091 8.972 A 0.382 0.382 0 0 1 76.248 9.007 Q 76.301 9.031 76.355 9.071 A 4.263 4.263 0 0 0 76.462 9.148 Q 76.557 9.215 76.674 9.291 A 1.954 1.954 0 0 0 76.873 9.403 Q 76.974 9.452 77.09 9.498 A 3.261 3.261 0 0 0 77.124 9.51 Q 77.329 9.587 77.614 9.604 A 2.828 2.828 0 0 0 77.783 9.609 A 2.004 2.004 0 0 0 78.056 9.592 Q 78.199 9.572 78.321 9.53 A 1.167 1.167 0 0 0 78.366 9.514 A 1.341 1.341 0 0 0 78.596 9.399 A 1.057 1.057 0 0 0 78.772 9.261 Q 78.933 9.104 79.014 8.892 Q 79.094 8.679 79.094 8.445 A 0.944 0.944 0 0 0 79.069 8.223 A 0.694 0.694 0 0 0 78.944 7.958 A 1.21 1.21 0 0 0 78.681 7.709 A 1.486 1.486 0 0 0 78.552 7.628 A 2.81 2.81 0 0 0 78.258 7.486 A 3.62 3.62 0 0 0 77.999 7.39 A 39.702 39.702 0 0 1 77.362 7.174 Q 77.036 7.061 76.725 6.918 A 2.096 2.096 0 0 1 76.172 6.552 A 1.697 1.697 0 0 1 75.82 6.086 A 1.973 1.973 0 0 1 75.78 6.006 A 1.515 1.515 0 0 1 75.669 5.655 Q 75.637 5.494 75.631 5.309 A 2.717 2.717 0 0 1 75.63 5.222 Q 75.63 4.805 75.791 4.427 Q 75.952 4.05 76.26 3.765 A 2.095 2.095 0 0 1 76.727 3.44 A 2.643 2.643 0 0 1 77.022 3.311 A 2.629 2.629 0 0 1 77.574 3.174 A 3.529 3.529 0 0 1 78.062 3.142 A 3.496 3.496 0 0 1 78.772 3.212 A 2.876 2.876 0 0 1 79.27 3.362 A 2.688 2.688 0 0 1 80.032 3.824 A 2.521 2.521 0 0 1 80.193 3.977 Z M 115.525 3.977 L 115.239 4.438 Q 115.155 4.592 114.992 4.599 A 0.371 0.371 0 0 1 114.976 4.6 A 0.351 0.351 0 0 1 114.87 4.582 Q 114.826 4.568 114.78 4.544 A 0.712 0.712 0 0 1 114.738 4.519 Q 114.609 4.438 114.43 4.347 A 2.455 2.455 0 0 0 114.247 4.264 Q 114.136 4.218 114.005 4.175 Q 113.792 4.105 113.511 4.096 A 2.669 2.669 0 0 0 113.423 4.094 A 1.738 1.738 0 0 0 113.144 4.116 A 1.341 1.341 0 0 0 112.91 4.175 A 1.303 1.303 0 0 0 112.667 4.289 A 1.086 1.086 0 0 0 112.522 4.395 A 0.977 0.977 0 0 0 112.273 4.72 Q 112.185 4.907 112.185 5.12 A 0.871 0.871 0 0 0 112.209 5.33 A 0.645 0.645 0 0 0 112.332 5.581 A 1.153 1.153 0 0 0 112.552 5.79 A 1.49 1.49 0 0 0 112.72 5.896 A 3.15 3.15 0 0 0 113.009 6.034 A 4.115 4.115 0 0 0 113.273 6.134 Q 113.584 6.24 113.906 6.35 A 6.14 6.14 0 0 1 114.54 6.606 A 2.379 2.379 0 0 1 115.016 6.901 A 2.185 2.185 0 0 1 115.093 6.965 Q 115.335 7.178 115.481 7.482 Q 115.616 7.762 115.627 8.151 A 2.463 2.463 0 0 1 115.627 8.218 A 2.58 2.58 0 0 1 115.555 8.838 A 2.266 2.266 0 0 1 115.459 9.137 Q 115.291 9.558 114.965 9.866 A 2.178 2.178 0 0 1 114.444 10.226 A 2.708 2.708 0 0 1 114.159 10.349 A 2.799 2.799 0 0 1 113.583 10.49 A 3.795 3.795 0 0 1 113.057 10.525 A 3.617 3.617 0 0 1 112.268 10.442 A 3.034 3.034 0 0 1 111.764 10.283 A 3.382 3.382 0 0 1 111.136 9.945 A 2.837 2.837 0 0 1 110.779 9.653 L 111.079 9.17 A 0.509 0.509 0 0 1 111.143 9.086 A 0.399 0.399 0 0 1 111.218 9.023 A 0.31 0.31 0 0 1 111.313 8.984 Q 111.354 8.974 111.401 8.973 A 0.577 0.577 0 0 1 111.423 8.972 A 0.382 0.382 0 0 1 111.58 9.007 Q 111.633 9.031 111.687 9.071 A 4.263 4.263 0 0 0 111.794 9.148 Q 111.889 9.215 112.006 9.291 A 1.954 1.954 0 0 0 112.205 9.403 Q 112.306 9.452 112.422 9.498 A 3.261 3.261 0 0 0 112.456 9.51 Q 112.661 9.587 112.946 9.604 A 2.828 2.828 0 0 0 113.115 9.609 A 2.004 2.004 0 0 0 113.388 9.592 Q 113.531 9.572 113.653 9.53 A 1.167 1.167 0 0 0 113.698 9.514 A 1.341 1.341 0 0 0 113.928 9.399 A 1.057 1.057 0 0 0 114.104 9.261 Q 114.265 9.104 114.346 8.892 Q 114.426 8.679 114.426 8.445 A 0.944 0.944 0 0 0 114.402 8.223 A 0.694 0.694 0 0 0 114.276 7.958 A 1.21 1.21 0 0 0 114.013 7.709 A 1.486 1.486 0 0 0 113.884 7.628 A 2.81 2.81 0 0 0 113.59 7.486 A 3.62 3.62 0 0 0 113.331 7.39 A 39.702 39.702 0 0 1 112.694 7.174 Q 112.368 7.061 112.057 6.918 A 2.096 2.096 0 0 1 111.504 6.552 A 1.697 1.697 0 0 1 111.152 6.086 A 1.973 1.973 0 0 1 111.112 6.006 A 1.515 1.515 0 0 1 111.001 5.655 Q 110.969 5.494 110.963 5.309 A 2.717 2.717 0 0 1 110.962 5.222 Q 110.962 4.805 111.123 4.427 Q 111.284 4.05 111.592 3.765 A 2.095 2.095 0 0 1 112.059 3.44 A 2.643 2.643 0 0 1 112.354 3.311 A 2.629 2.629 0 0 1 112.906 3.174 A 3.529 3.529 0 0 1 113.394 3.142 A 3.496 3.496 0 0 1 114.104 3.212 A 2.876 2.876 0 0 1 114.602 3.362 A 2.688 2.688 0 0 1 115.364 3.824 A 2.521 2.521 0 0 1 115.525 3.977 Z M 145.649 3.977 L 145.364 4.438 Q 145.28 4.592 145.116 4.599 A 0.371 0.371 0 0 1 145.1 4.6 A 0.351 0.351 0 0 1 144.994 4.582 Q 144.95 4.568 144.904 4.544 A 0.712 0.712 0 0 1 144.862 4.519 Q 144.734 4.438 144.554 4.347 A 2.455 2.455 0 0 0 144.372 4.264 Q 144.26 4.218 144.13 4.175 Q 143.917 4.105 143.635 4.096 A 2.669 2.669 0 0 0 143.547 4.094 A 1.738 1.738 0 0 0 143.268 4.116 A 1.341 1.341 0 0 0 143.035 4.175 A 1.303 1.303 0 0 0 142.791 4.289 A 1.086 1.086 0 0 0 142.647 4.395 A 0.977 0.977 0 0 0 142.397 4.72 Q 142.31 4.907 142.31 5.12 A 0.871 0.871 0 0 0 142.334 5.33 A 0.645 0.645 0 0 0 142.456 5.581 A 1.153 1.153 0 0 0 142.676 5.79 A 1.49 1.49 0 0 0 142.844 5.896 A 3.15 3.15 0 0 0 143.134 6.034 A 4.115 4.115 0 0 0 143.397 6.134 Q 143.709 6.24 144.031 6.35 A 6.14 6.14 0 0 1 144.664 6.606 A 2.379 2.379 0 0 1 145.14 6.901 A 2.185 2.185 0 0 1 145.217 6.965 Q 145.459 7.178 145.606 7.482 Q 145.741 7.762 145.751 8.151 A 2.463 2.463 0 0 1 145.752 8.218 A 2.58 2.58 0 0 1 145.679 8.838 A 2.266 2.266 0 0 1 145.584 9.137 Q 145.415 9.558 145.089 9.866 A 2.178 2.178 0 0 1 144.568 10.226 A 2.708 2.708 0 0 1 144.283 10.349 A 2.799 2.799 0 0 1 143.707 10.49 A 3.795 3.795 0 0 1 143.181 10.525 A 3.617 3.617 0 0 1 142.393 10.442 A 3.034 3.034 0 0 1 141.888 10.283 A 3.382 3.382 0 0 1 141.26 9.945 A 2.837 2.837 0 0 1 140.903 9.653 L 141.204 9.17 A 0.509 0.509 0 0 1 141.268 9.086 A 0.399 0.399 0 0 1 141.343 9.023 A 0.31 0.31 0 0 1 141.438 8.984 Q 141.478 8.974 141.526 8.973 A 0.577 0.577 0 0 1 141.548 8.972 A 0.382 0.382 0 0 1 141.704 9.007 Q 141.758 9.031 141.812 9.071 A 4.263 4.263 0 0 0 141.918 9.148 Q 142.013 9.215 142.13 9.291 A 1.954 1.954 0 0 0 142.329 9.403 Q 142.43 9.452 142.547 9.498 A 3.261 3.261 0 0 0 142.581 9.51 Q 142.786 9.587 143.07 9.604 A 2.828 2.828 0 0 0 143.24 9.609 A 2.004 2.004 0 0 0 143.512 9.592 Q 143.656 9.572 143.778 9.53 A 1.167 1.167 0 0 0 143.822 9.514 A 1.341 1.341 0 0 0 144.053 9.399 A 1.057 1.057 0 0 0 144.229 9.261 Q 144.39 9.104 144.47 8.892 Q 144.551 8.679 144.551 8.445 A 0.944 0.944 0 0 0 144.526 8.223 A 0.694 0.694 0 0 0 144.401 7.958 A 1.21 1.21 0 0 0 144.138 7.709 A 1.486 1.486 0 0 0 144.009 7.628 A 2.81 2.81 0 0 0 143.715 7.486 A 3.62 3.62 0 0 0 143.456 7.39 A 39.702 39.702 0 0 1 142.819 7.174 Q 142.493 7.061 142.181 6.918 A 2.096 2.096 0 0 1 141.628 6.552 A 1.697 1.697 0 0 1 141.276 6.086 A 1.973 1.973 0 0 1 141.237 6.006 A 1.515 1.515 0 0 1 141.125 5.655 Q 141.094 5.494 141.088 5.309 A 2.717 2.717 0 0 1 141.086 5.222 Q 141.086 4.805 141.248 4.427 Q 141.409 4.05 141.716 3.765 A 2.095 2.095 0 0 1 142.183 3.44 A 2.643 2.643 0 0 1 142.478 3.311 A 2.629 2.629 0 0 1 143.031 3.174 A 3.529 3.529 0 0 1 143.518 3.142 A 3.496 3.496 0 0 1 144.229 3.212 A 2.876 2.876 0 0 1 144.727 3.362 A 2.688 2.688 0 0 1 145.488 3.824 A 2.521 2.521 0 0 1 145.649 3.977 Z M 160.298 3.252 L 157.632 10.415 L 156.467 10.415 L 153.801 3.252 L 154.863 3.252 A 0.443 0.443 0 0 1 154.991 3.27 A 0.364 0.364 0 0 1 155.112 3.333 A 0.489 0.489 0 0 1 155.189 3.407 A 0.365 0.365 0 0 1 155.252 3.516 L 156.782 8.101 A 6.06 6.06 0 0 1 156.909 8.477 A 5.313 5.313 0 0 1 156.943 8.599 A 14.399 14.399 0 0 1 157.068 9.089 Q 157.119 8.848 157.189 8.602 A 4.983 4.983 0 0 1 157.324 8.196 A 5.618 5.618 0 0 1 157.361 8.101 L 158.914 3.516 A 0.44 0.44 0 0 1 159.05 3.334 A 0.522 0.522 0 0 1 159.056 3.329 A 0.354 0.354 0 0 1 159.28 3.252 L 160.298 3.252 Z M 32.915 10.415 L 32.344 10.415 A 0.998 0.998 0 0 1 32.236 10.41 Q 32.183 10.404 32.139 10.392 A 0.378 0.378 0 0 1 32.051 10.357 A 0.227 0.227 0 0 1 31.974 10.281 Q 31.952 10.248 31.936 10.203 A 0.62 0.62 0 0 1 31.912 10.115 L 31.751 9.448 A 7.757 7.757 0 0 1 31.407 9.747 A 6.45 6.45 0 0 1 31.205 9.906 A 3.24 3.24 0 0 1 30.645 10.247 A 2.75 2.75 0 0 1 30.057 10.446 A 3.051 3.051 0 0 1 30.015 10.455 A 3.326 3.326 0 0 1 29.591 10.513 A 4.223 4.223 0 0 1 29.275 10.525 A 2.717 2.717 0 0 1 28.727 10.471 A 2.378 2.378 0 0 1 28.495 10.411 A 1.767 1.767 0 0 1 27.858 10.06 A 1.65 1.65 0 0 1 27.451 9.521 A 1.919 1.919 0 0 1 27.426 9.467 Q 27.268 9.111 27.268 8.628 A 1.571 1.571 0 0 1 27.464 7.873 A 1.876 1.876 0 0 1 27.499 7.811 A 1.651 1.651 0 0 1 27.79 7.451 Q 27.934 7.316 28.12 7.193 A 3.11 3.11 0 0 1 28.25 7.112 A 3.517 3.517 0 0 1 28.724 6.881 Q 28.964 6.784 29.248 6.702 A 7.232 7.232 0 0 1 29.605 6.61 Q 30.439 6.416 31.655 6.387 L 31.655 5.837 A 3.143 3.143 0 0 0 31.624 5.378 Q 31.55 4.877 31.3 4.581 A 1.146 1.146 0 0 0 30.66 4.202 A 1.775 1.775 0 0 0 30.264 4.16 A 2.944 2.944 0 0 0 29.943 4.177 Q 29.779 4.195 29.639 4.232 A 1.517 1.517 0 0 0 29.498 4.277 A 3.782 3.782 0 0 0 29.225 4.392 Q 29.09 4.456 28.975 4.524 A 2.293 2.293 0 0 0 28.96 4.534 Q 28.765 4.653 28.616 4.757 A 4.803 4.803 0 0 0 28.568 4.79 A 0.693 0.693 0 0 1 28.429 4.868 A 0.51 0.51 0 0 1 28.235 4.907 A 0.442 0.442 0 0 1 28.118 4.892 A 0.358 0.358 0 0 1 28.008 4.841 Q 27.913 4.775 27.854 4.673 L 27.62 4.263 Q 28.213 3.691 28.898 3.409 A 3.756 3.756 0 0 1 29.96 3.15 A 4.598 4.598 0 0 1 30.418 3.127 A 3.177 3.177 0 0 1 30.985 3.176 A 2.452 2.452 0 0 1 31.487 3.322 A 2.128 2.128 0 0 1 32.125 3.725 A 2.011 2.011 0 0 1 32.271 3.875 Q 32.585 4.233 32.75 4.731 A 3.227 3.227 0 0 1 32.892 5.397 A 4.063 4.063 0 0 1 32.915 5.837 L 32.915 10.415 Z M 54.858 10.415 L 54.287 10.415 A 0.998 0.998 0 0 1 54.179 10.41 Q 54.126 10.404 54.082 10.392 A 0.378 0.378 0 0 1 53.995 10.357 A 0.227 0.227 0 0 1 53.917 10.281 Q 53.895 10.248 53.879 10.203 A 0.62 0.62 0 0 1 53.855 10.115 L 53.694 9.448 A 7.757 7.757 0 0 1 53.35 9.747 A 6.45 6.45 0 0 1 53.148 9.906 A 3.24 3.24 0 0 1 52.588 10.247 A 2.75 2.75 0 0 1 52 10.446 A 3.051 3.051 0 0 1 51.958 10.455 A 3.326 3.326 0 0 1 51.535 10.513 A 4.223 4.223 0 0 1 51.218 10.525 A 2.717 2.717 0 0 1 50.67 10.471 A 2.378 2.378 0 0 1 50.438 10.411 A 1.767 1.767 0 0 1 49.801 10.06 A 1.65 1.65 0 0 1 49.394 9.521 A 1.919 1.919 0 0 1 49.369 9.467 Q 49.211 9.111 49.211 8.628 A 1.571 1.571 0 0 1 49.408 7.873 A 1.876 1.876 0 0 1 49.442 7.811 A 1.651 1.651 0 0 1 49.734 7.451 Q 49.877 7.316 50.064 7.193 A 3.11 3.11 0 0 1 50.193 7.112 A 3.517 3.517 0 0 1 50.667 6.881 Q 50.908 6.784 51.192 6.702 A 7.232 7.232 0 0 1 51.548 6.61 Q 52.383 6.416 53.599 6.387 L 53.599 5.837 A 3.143 3.143 0 0 0 53.567 5.378 Q 53.493 4.877 53.243 4.581 A 1.146 1.146 0 0 0 52.603 4.202 A 1.775 1.775 0 0 0 52.207 4.16 A 2.944 2.944 0 0 0 51.887 4.177 Q 51.722 4.195 51.582 4.232 A 1.517 1.517 0 0 0 51.442 4.277 A 3.782 3.782 0 0 0 51.168 4.392 Q 51.033 4.456 50.919 4.524 A 2.293 2.293 0 0 0 50.903 4.534 Q 50.708 4.653 50.559 4.757 A 4.803 4.803 0 0 0 50.512 4.79 A 0.693 0.693 0 0 1 50.372 4.868 A 0.51 0.51 0 0 1 50.178 4.907 A 0.442 0.442 0 0 1 50.061 4.892 A 0.358 0.358 0 0 1 49.951 4.841 Q 49.856 4.775 49.797 4.673 L 49.563 4.263 Q 50.156 3.691 50.841 3.409 A 3.756 3.756 0 0 1 51.903 3.15 A 4.598 4.598 0 0 1 52.361 3.127 A 3.177 3.177 0 0 1 52.929 3.176 A 2.452 2.452 0 0 1 53.43 3.322 A 2.128 2.128 0 0 1 54.069 3.725 A 2.011 2.011 0 0 1 54.214 3.875 Q 54.529 4.233 54.694 4.731 A 3.227 3.227 0 0 1 54.835 5.397 A 4.063 4.063 0 0 1 54.858 5.837 L 54.858 10.415 Z M 210.981 10.415 L 210.41 10.415 A 0.998 0.998 0 0 1 210.302 10.41 Q 210.249 10.404 210.205 10.392 A 0.378 0.378 0 0 1 210.118 10.357 A 0.227 0.227 0 0 1 210.04 10.281 Q 210.018 10.248 210.002 10.203 A 0.62 0.62 0 0 1 209.978 10.115 L 209.817 9.448 A 7.757 7.757 0 0 1 209.473 9.747 A 6.45 6.45 0 0 1 209.271 9.906 A 3.24 3.24 0 0 1 208.711 10.247 A 2.75 2.75 0 0 1 208.123 10.446 A 3.051 3.051 0 0 1 208.081 10.455 A 3.326 3.326 0 0 1 207.658 10.513 A 4.223 4.223 0 0 1 207.341 10.525 A 2.717 2.717 0 0 1 206.793 10.471 A 2.378 2.378 0 0 1 206.561 10.411 A 1.767 1.767 0 0 1 205.924 10.06 A 1.65 1.65 0 0 1 205.517 9.521 A 1.919 1.919 0 0 1 205.492 9.467 Q 205.335 9.111 205.335 8.628 A 1.571 1.571 0 0 1 205.531 7.873 A 1.876 1.876 0 0 1 205.565 7.811 A 1.651 1.651 0 0 1 205.857 7.451 Q 206 7.316 206.187 7.193 A 3.11 3.11 0 0 1 206.316 7.112 A 3.517 3.517 0 0 1 206.79 6.881 Q 207.031 6.784 207.315 6.702 A 7.232 7.232 0 0 1 207.671 6.61 Q 208.506 6.416 209.722 6.387 L 209.722 5.837 A 3.143 3.143 0 0 0 209.69 5.378 Q 209.616 4.877 209.366 4.581 A 1.146 1.146 0 0 0 208.726 4.202 A 1.775 1.775 0 0 0 208.33 4.16 A 2.944 2.944 0 0 0 208.01 4.177 Q 207.845 4.195 207.705 4.232 A 1.517 1.517 0 0 0 207.565 4.277 A 3.782 3.782 0 0 0 207.291 4.392 Q 207.156 4.456 207.042 4.524 A 2.293 2.293 0 0 0 207.026 4.534 Q 206.831 4.653 206.682 4.757 A 4.803 4.803 0 0 0 206.635 4.79 A 0.693 0.693 0 0 1 206.495 4.868 A 0.51 0.51 0 0 1 206.301 4.907 A 0.442 0.442 0 0 1 206.184 4.892 A 0.358 0.358 0 0 1 206.074 4.841 Q 205.979 4.775 205.92 4.673 L 205.686 4.263 Q 206.279 3.691 206.964 3.409 A 3.756 3.756 0 0 1 208.026 3.15 A 4.598 4.598 0 0 1 208.484 3.127 A 3.177 3.177 0 0 1 209.052 3.176 A 2.452 2.452 0 0 1 209.553 3.322 A 2.128 2.128 0 0 1 210.192 3.725 A 2.011 2.011 0 0 1 210.337 3.875 Q 210.652 4.233 210.817 4.731 A 3.227 3.227 0 0 1 210.958 5.397 A 4.063 4.063 0 0 1 210.981 5.837 L 210.981 10.415 Z M 238.821 10.415 L 238.25 10.415 A 0.998 0.998 0 0 1 238.142 10.41 Q 238.088 10.404 238.044 10.392 A 0.378 0.378 0 0 1 237.957 10.357 A 0.227 0.227 0 0 1 237.879 10.281 Q 237.857 10.248 237.841 10.203 A 0.62 0.62 0 0 1 237.817 10.115 L 237.656 9.448 A 7.757 7.757 0 0 1 237.313 9.747 A 6.45 6.45 0 0 1 237.111 9.906 A 3.24 3.24 0 0 1 236.55 10.247 A 2.75 2.75 0 0 1 235.962 10.446 A 3.051 3.051 0 0 1 235.92 10.455 A 3.326 3.326 0 0 1 235.497 10.513 A 4.223 4.223 0 0 1 235.181 10.525 A 2.717 2.717 0 0 1 234.633 10.471 A 2.378 2.378 0 0 1 234.401 10.411 A 1.767 1.767 0 0 1 233.763 10.06 A 1.65 1.65 0 0 1 233.357 9.521 A 1.919 1.919 0 0 1 233.331 9.467 Q 233.174 9.111 233.174 8.628 A 1.571 1.571 0 0 1 233.37 7.873 A 1.876 1.876 0 0 1 233.405 7.811 A 1.651 1.651 0 0 1 233.696 7.451 Q 233.839 7.316 234.026 7.193 A 3.11 3.11 0 0 1 234.155 7.112 A 3.517 3.517 0 0 1 234.63 6.881 Q 234.87 6.784 235.154 6.702 A 7.232 7.232 0 0 1 235.51 6.61 Q 236.345 6.416 237.561 6.387 L 237.561 5.837 A 3.143 3.143 0 0 0 237.53 5.378 Q 237.456 4.877 237.206 4.581 A 1.146 1.146 0 0 0 236.566 4.202 A 1.775 1.775 0 0 0 236.169 4.16 A 2.944 2.944 0 0 0 235.849 4.177 Q 235.685 4.195 235.544 4.232 A 1.517 1.517 0 0 0 235.404 4.277 A 3.782 3.782 0 0 0 235.131 4.392 Q 234.995 4.456 234.881 4.524 A 2.293 2.293 0 0 0 234.866 4.534 Q 234.671 4.653 234.521 4.757 A 4.803 4.803 0 0 0 234.474 4.79 A 0.693 0.693 0 0 1 234.335 4.868 A 0.51 0.51 0 0 1 234.141 4.907 A 0.442 0.442 0 0 1 234.023 4.892 A 0.358 0.358 0 0 1 233.914 4.841 Q 233.818 4.775 233.76 4.673 L 233.525 4.263 Q 234.119 3.691 234.804 3.409 A 3.756 3.756 0 0 1 235.865 3.15 A 4.598 4.598 0 0 1 236.323 3.127 A 3.177 3.177 0 0 1 236.891 3.176 A 2.452 2.452 0 0 1 237.393 3.322 A 2.128 2.128 0 0 1 238.031 3.725 A 2.011 2.011 0 0 1 238.176 3.875 Q 238.491 4.233 238.656 4.731 A 3.227 3.227 0 0 1 238.798 5.397 A 4.063 4.063 0 0 1 238.821 5.837 L 238.821 10.415 Z M 22.961 8.687 L 22.961 4.321 L 22.141 4.321 A 0.261 0.261 0 0 1 21.954 4.248 Q 21.883 4.18 21.878 4.057 A 0.477 0.477 0 0 1 21.877 4.036 L 21.877 3.523 L 23.005 3.376 L 23.306 1.172 A 0.3 0.3 0 0 1 23.333 1.079 A 0.257 0.257 0 0 1 23.397 0.996 A 0.271 0.271 0 0 1 23.535 0.934 A 0.369 0.369 0 0 1 23.591 0.93 L 24.251 0.93 L 24.251 3.384 L 26.221 3.384 L 26.221 4.321 L 24.251 4.321 L 24.251 8.599 Q 24.251 8.881 24.334 9.073 A 0.66 0.66 0 0 0 24.452 9.258 A 0.667 0.667 0 0 0 24.926 9.476 A 0.905 0.905 0 0 0 24.976 9.478 A 1.186 1.186 0 0 0 25.121 9.469 Q 25.221 9.457 25.302 9.426 A 1.281 1.281 0 0 0 25.42 9.375 Q 25.478 9.346 25.526 9.313 A 0.778 0.778 0 0 0 25.532 9.309 A 9.086 9.086 0 0 0 25.6 9.262 Q 25.654 9.224 25.697 9.192 A 0.347 0.347 0 0 1 25.739 9.165 Q 25.763 9.152 25.785 9.146 A 0.152 0.152 0 0 1 25.825 9.141 A 0.242 0.242 0 0 1 25.869 9.144 Q 25.906 9.151 25.931 9.17 A 0.195 0.195 0 0 1 25.961 9.197 Q 25.985 9.224 26.008 9.265 L 26.389 9.88 A 2.32 2.32 0 0 1 25.641 10.346 A 2.641 2.641 0 0 1 25.613 10.356 Q 25.166 10.525 24.683 10.525 A 2.302 2.302 0 0 1 24.17 10.471 Q 23.705 10.365 23.408 10.049 Q 23.017 9.632 22.968 8.901 A 3.225 3.225 0 0 1 22.961 8.687 Z M 41.514 8.687 L 41.514 4.321 L 40.693 4.321 A 0.261 0.261 0 0 1 40.507 4.248 Q 40.436 4.18 40.43 4.057 A 0.477 0.477 0 0 1 40.43 4.036 L 40.43 3.523 L 41.558 3.376 L 41.858 1.172 A 0.3 0.3 0 0 1 41.885 1.079 A 0.257 0.257 0 0 1 41.95 0.996 A 0.271 0.271 0 0 1 42.088 0.934 A 0.369 0.369 0 0 1 42.144 0.93 L 42.803 0.93 L 42.803 3.384 L 44.773 3.384 L 44.773 4.321 L 42.803 4.321 L 42.803 8.599 Q 42.803 8.881 42.886 9.073 A 0.66 0.66 0 0 0 43.004 9.258 A 0.667 0.667 0 0 0 43.478 9.476 A 0.905 0.905 0 0 0 43.528 9.478 A 1.186 1.186 0 0 0 43.674 9.469 Q 43.773 9.457 43.854 9.426 A 1.281 1.281 0 0 0 43.972 9.375 Q 44.03 9.346 44.078 9.313 A 0.778 0.778 0 0 0 44.085 9.309 A 9.086 9.086 0 0 0 44.152 9.262 Q 44.206 9.224 44.249 9.192 A 0.347 0.347 0 0 1 44.292 9.165 Q 44.315 9.152 44.337 9.146 A 0.152 0.152 0 0 1 44.377 9.141 A 0.242 0.242 0 0 1 44.422 9.144 Q 44.458 9.151 44.484 9.17 A 0.195 0.195 0 0 1 44.513 9.197 Q 44.538 9.224 44.561 9.265 L 44.941 9.88 A 2.32 2.32 0 0 1 44.193 10.346 A 2.641 2.641 0 0 1 44.165 10.356 Q 43.718 10.525 43.235 10.525 A 2.302 2.302 0 0 1 42.722 10.471 Q 42.257 10.365 41.96 10.049 Q 41.569 9.632 41.521 8.901 A 3.225 3.225 0 0 1 41.514 8.687 Z M 117.466 8.687 L 117.466 4.321 L 116.646 4.321 A 0.261 0.261 0 0 1 116.459 4.248 Q 116.388 4.18 116.382 4.057 A 0.477 0.477 0 0 1 116.382 4.036 L 116.382 3.523 L 117.51 3.376 L 117.81 1.172 A 0.3 0.3 0 0 1 117.838 1.079 A 0.257 0.257 0 0 1 117.902 0.996 A 0.271 0.271 0 0 1 118.04 0.934 A 0.369 0.369 0 0 1 118.096 0.93 L 118.755 0.93 L 118.755 3.384 L 120.725 3.384 L 120.725 4.321 L 118.755 4.321 L 118.755 8.599 Q 118.755 8.881 118.838 9.073 A 0.66 0.66 0 0 0 118.956 9.258 A 0.667 0.667 0 0 0 119.43 9.476 A 0.905 0.905 0 0 0 119.48 9.478 A 1.186 1.186 0 0 0 119.626 9.469 Q 119.725 9.457 119.806 9.426 A 1.281 1.281 0 0 0 119.924 9.375 Q 119.982 9.346 120.03 9.313 A 0.778 0.778 0 0 0 120.037 9.309 A 9.086 9.086 0 0 0 120.104 9.262 Q 120.158 9.224 120.201 9.192 A 0.347 0.347 0 0 1 120.244 9.165 Q 120.267 9.152 120.289 9.146 A 0.152 0.152 0 0 1 120.33 9.141 A 0.242 0.242 0 0 1 120.374 9.144 Q 120.41 9.151 120.436 9.17 A 0.195 0.195 0 0 1 120.466 9.197 Q 120.49 9.224 120.513 9.265 L 120.894 9.88 A 2.32 2.32 0 0 1 120.145 10.346 A 2.641 2.641 0 0 1 120.117 10.356 Q 119.67 10.525 119.187 10.525 A 2.302 2.302 0 0 1 118.674 10.471 Q 118.209 10.365 117.913 10.049 Q 117.522 9.632 117.473 8.901 A 3.225 3.225 0 0 1 117.466 8.687 Z M 161.77 8.687 L 161.77 4.321 L 160.95 4.321 A 0.261 0.261 0 0 1 160.763 4.248 Q 160.692 4.18 160.687 4.057 A 0.477 0.477 0 0 1 160.686 4.036 L 160.686 3.523 L 161.814 3.376 L 162.114 1.172 A 0.3 0.3 0 0 1 162.142 1.079 A 0.257 0.257 0 0 1 162.206 0.996 A 0.271 0.271 0 0 1 162.344 0.934 A 0.369 0.369 0 0 1 162.4 0.93 L 163.059 0.93 L 163.059 3.384 L 165.029 3.384 L 165.029 4.321 L 163.059 4.321 L 163.059 8.599 Q 163.059 8.881 163.142 9.073 A 0.66 0.66 0 0 0 163.261 9.258 A 0.667 0.667 0 0 0 163.735 9.476 A 0.905 0.905 0 0 0 163.784 9.478 A 1.186 1.186 0 0 0 163.93 9.469 Q 164.03 9.457 164.11 9.426 A 1.281 1.281 0 0 0 164.228 9.375 Q 164.286 9.346 164.334 9.313 A 0.778 0.778 0 0 0 164.341 9.309 A 9.086 9.086 0 0 0 164.409 9.262 Q 164.462 9.224 164.506 9.192 A 0.347 0.347 0 0 1 164.548 9.165 Q 164.572 9.152 164.594 9.146 A 0.152 0.152 0 0 1 164.634 9.141 A 0.242 0.242 0 0 1 164.678 9.144 Q 164.714 9.151 164.74 9.17 A 0.195 0.195 0 0 1 164.77 9.197 Q 164.794 9.224 164.817 9.265 L 165.198 9.88 A 2.32 2.32 0 0 1 164.449 10.346 A 2.641 2.641 0 0 1 164.421 10.356 Q 163.975 10.525 163.491 10.525 A 2.302 2.302 0 0 1 162.978 10.471 Q 162.514 10.365 162.217 10.049 Q 161.826 9.632 161.777 8.901 A 3.225 3.225 0 0 1 161.77 8.687 Z M 5.464 4.072 L 5.127 4.541 A 0.79 0.79 0 0 1 5.085 4.594 Q 5.049 4.636 5.013 4.662 A 0.184 0.184 0 0 1 4.959 4.689 Q 4.916 4.702 4.856 4.702 Q 4.746 4.702 4.629 4.614 A 2.592 2.592 0 0 0 4.533 4.546 Q 4.446 4.487 4.336 4.42 Q 4.185 4.329 3.977 4.251 A 3.19 3.19 0 0 0 3.908 4.226 A 1.45 1.45 0 0 0 3.667 4.166 Q 3.496 4.138 3.289 4.138 A 2.125 2.125 0 0 0 2.834 4.185 A 1.673 1.673 0 0 0 2.435 4.325 A 1.659 1.659 0 0 0 1.82 4.86 A 2.264 2.264 0 0 0 1.581 5.299 A 3.033 3.033 0 0 0 1.447 5.706 A 3.954 3.954 0 0 0 1.345 6.288 A 5.282 5.282 0 0 0 1.318 6.826 A 5.247 5.247 0 0 0 1.348 7.399 Q 1.382 7.706 1.454 7.972 Q 1.589 8.474 1.838 8.818 A 1.743 1.743 0 0 0 2.229 9.214 A 1.596 1.596 0 0 0 2.439 9.342 A 1.651 1.651 0 0 0 3.042 9.513 A 2.021 2.021 0 0 0 3.23 9.521 A 2.717 2.717 0 0 0 3.504 9.509 Q 3.748 9.484 3.926 9.412 Q 4.168 9.313 4.34 9.197 A 1.534 1.534 0 0 0 4.38 9.17 Q 4.52 9.069 4.624 8.981 A 2.367 2.367 0 0 0 4.684 8.928 Q 4.804 8.819 4.934 8.818 A 0.322 0.322 0 0 1 4.937 8.818 Q 5.083 8.818 5.171 8.943 L 5.544 9.412 Q 5.31 9.697 5.024 9.906 Q 4.739 10.115 4.409 10.25 A 3.453 3.453 0 0 1 3.724 10.452 A 3.946 3.946 0 0 1 3.003 10.518 Q 2.373 10.518 1.824 10.269 Q 1.274 10.02 0.868 9.547 A 3.173 3.173 0 0 1 0.412 8.84 A 4.028 4.028 0 0 1 0.231 8.39 A 4.281 4.281 0 0 1 0.047 7.583 A 5.777 5.777 0 0 1 0 6.826 A 5.257 5.257 0 0 1 0.083 5.875 A 4.426 4.426 0 0 1 0.212 5.35 Q 0.425 4.673 0.831 4.182 A 2.808 2.808 0 0 1 1.835 3.417 Q 2.432 3.142 3.208 3.142 A 3.701 3.701 0 0 1 3.844 3.194 A 2.725 2.725 0 0 1 4.49 3.387 Q 5.039 3.633 5.464 4.072 Z M 39.807 4.072 L 39.47 4.541 A 0.79 0.79 0 0 1 39.429 4.594 Q 39.392 4.636 39.357 4.662 A 0.184 0.184 0 0 1 39.302 4.689 Q 39.259 4.702 39.199 4.702 Q 39.089 4.702 38.972 4.614 A 2.592 2.592 0 0 0 38.876 4.546 Q 38.789 4.487 38.679 4.42 Q 38.528 4.329 38.32 4.251 A 3.19 3.19 0 0 0 38.251 4.226 A 1.45 1.45 0 0 0 38.01 4.166 Q 37.839 4.138 37.632 4.138 A 2.125 2.125 0 0 0 37.177 4.185 A 1.673 1.673 0 0 0 36.779 4.325 A 1.659 1.659 0 0 0 36.163 4.86 A 2.264 2.264 0 0 0 35.924 5.299 A 3.033 3.033 0 0 0 35.79 5.706 A 3.954 3.954 0 0 0 35.688 6.288 A 5.282 5.282 0 0 0 35.662 6.826 A 5.247 5.247 0 0 0 35.691 7.399 Q 35.725 7.706 35.797 7.972 Q 35.933 8.474 36.182 8.818 A 1.743 1.743 0 0 0 36.573 9.214 A 1.596 1.596 0 0 0 36.782 9.342 A 1.651 1.651 0 0 0 37.385 9.513 A 2.021 2.021 0 0 0 37.573 9.521 A 2.717 2.717 0 0 0 37.847 9.509 Q 38.091 9.484 38.269 9.412 Q 38.511 9.313 38.684 9.197 A 1.534 1.534 0 0 0 38.723 9.17 Q 38.863 9.069 38.967 8.981 A 2.367 2.367 0 0 0 39.027 8.928 Q 39.147 8.819 39.277 8.818 A 0.322 0.322 0 0 1 39.28 8.818 Q 39.426 8.818 39.514 8.943 L 39.888 9.412 Q 39.653 9.697 39.368 9.906 Q 39.082 10.115 38.752 10.25 A 3.453 3.453 0 0 1 38.068 10.452 A 3.946 3.946 0 0 1 37.346 10.518 Q 36.716 10.518 36.167 10.269 Q 35.618 10.02 35.211 9.547 A 3.173 3.173 0 0 1 34.756 8.84 A 4.028 4.028 0 0 1 34.574 8.39 A 4.281 4.281 0 0 1 34.391 7.583 A 5.777 5.777 0 0 1 34.343 6.826 A 5.257 5.257 0 0 1 34.426 5.875 A 4.426 4.426 0 0 1 34.556 5.35 Q 34.768 4.673 35.175 4.182 A 2.808 2.808 0 0 1 36.178 3.417 Q 36.775 3.142 37.551 3.142 A 3.701 3.701 0 0 1 38.188 3.194 A 2.725 2.725 0 0 1 38.833 3.387 Q 39.382 3.633 39.807 4.072 Z M 256.384 4.072 L 256.047 4.541 A 0.79 0.79 0 0 1 256.006 4.594 Q 255.969 4.636 255.934 4.662 A 0.184 0.184 0 0 1 255.88 4.689 Q 255.836 4.702 255.776 4.702 Q 255.667 4.702 255.549 4.614 A 2.592 2.592 0 0 0 255.453 4.546 Q 255.366 4.487 255.256 4.42 Q 255.105 4.329 254.897 4.251 A 3.19 3.19 0 0 0 254.828 4.226 A 1.45 1.45 0 0 0 254.587 4.166 Q 254.416 4.138 254.209 4.138 A 2.125 2.125 0 0 0 253.754 4.185 A 1.673 1.673 0 0 0 253.356 4.325 A 1.659 1.659 0 0 0 252.741 4.86 A 2.264 2.264 0 0 0 252.502 5.299 A 3.033 3.033 0 0 0 252.367 5.706 A 3.954 3.954 0 0 0 252.265 6.288 A 5.282 5.282 0 0 0 252.239 6.826 A 5.247 5.247 0 0 0 252.269 7.399 Q 252.302 7.706 252.374 7.972 Q 252.51 8.474 252.759 8.818 A 1.743 1.743 0 0 0 253.15 9.214 A 1.596 1.596 0 0 0 253.359 9.342 A 1.651 1.651 0 0 0 253.962 9.513 A 2.021 2.021 0 0 0 254.15 9.521 A 2.717 2.717 0 0 0 254.424 9.509 Q 254.668 9.484 254.846 9.412 Q 255.089 9.313 255.261 9.197 A 1.534 1.534 0 0 0 255.3 9.17 Q 255.441 9.069 255.544 8.981 A 2.367 2.367 0 0 0 255.604 8.928 Q 255.724 8.819 255.854 8.818 A 0.322 0.322 0 0 1 255.857 8.818 Q 256.003 8.818 256.091 8.943 L 256.465 9.412 Q 256.231 9.697 255.945 9.906 Q 255.659 10.115 255.33 10.25 A 3.453 3.453 0 0 1 254.645 10.452 A 3.946 3.946 0 0 1 253.923 10.518 Q 253.293 10.518 252.744 10.269 Q 252.195 10.02 251.788 9.547 A 3.173 3.173 0 0 1 251.333 8.84 A 4.028 4.028 0 0 1 251.151 8.39 A 4.281 4.281 0 0 1 250.968 7.583 A 5.777 5.777 0 0 1 250.92 6.826 A 5.257 5.257 0 0 1 251.003 5.875 A 4.426 4.426 0 0 1 251.133 5.35 Q 251.345 4.673 251.752 4.182 A 2.808 2.808 0 0 1 252.755 3.417 Q 253.352 3.142 254.128 3.142 A 3.701 3.701 0 0 1 254.765 3.194 A 2.725 2.725 0 0 1 255.41 3.387 Q 255.96 3.633 256.384 4.072 Z M 262.727 4.072 L 262.39 4.541 A 0.79 0.79 0 0 1 262.349 4.594 Q 262.312 4.636 262.277 4.662 A 0.184 0.184 0 0 1 262.222 4.689 Q 262.179 4.702 262.119 4.702 Q 262.009 4.702 261.892 4.614 A 2.592 2.592 0 0 0 261.796 4.546 Q 261.709 4.487 261.599 4.42 Q 261.448 4.329 261.24 4.251 A 3.19 3.19 0 0 0 261.171 4.226 A 1.45 1.45 0 0 0 260.93 4.166 Q 260.759 4.138 260.552 4.138 A 2.125 2.125 0 0 0 260.097 4.185 A 1.673 1.673 0 0 0 259.699 4.325 A 1.659 1.659 0 0 0 259.083 4.86 A 2.264 2.264 0 0 0 258.844 5.299 A 3.033 3.033 0 0 0 258.71 5.706 A 3.954 3.954 0 0 0 258.608 6.288 A 5.282 5.282 0 0 0 258.582 6.826 A 5.247 5.247 0 0 0 258.611 7.399 Q 258.645 7.706 258.717 7.972 Q 258.853 8.474 259.102 8.818 A 1.743 1.743 0 0 0 259.492 9.214 A 1.596 1.596 0 0 0 259.702 9.342 A 1.651 1.651 0 0 0 260.305 9.513 A 2.021 2.021 0 0 0 260.493 9.521 A 2.717 2.717 0 0 0 260.767 9.509 Q 261.011 9.484 261.189 9.412 Q 261.431 9.313 261.604 9.197 A 1.534 1.534 0 0 0 261.643 9.17 Q 261.783 9.069 261.887 8.981 A 2.367 2.367 0 0 0 261.947 8.928 Q 262.067 8.819 262.197 8.818 A 0.322 0.322 0 0 1 262.2 8.818 Q 262.346 8.818 262.434 8.943 L 262.808 9.412 Q 262.573 9.697 262.288 9.906 Q 262.002 10.115 261.672 10.25 A 3.453 3.453 0 0 1 260.988 10.452 A 3.946 3.946 0 0 1 260.266 10.518 Q 259.636 10.518 259.087 10.269 Q 258.538 10.02 258.131 9.547 A 3.173 3.173 0 0 1 257.676 8.84 A 4.028 4.028 0 0 1 257.494 8.39 A 4.281 4.281 0 0 1 257.311 7.583 A 5.777 5.777 0 0 1 257.263 6.826 A 5.257 5.257 0 0 1 257.346 5.875 A 4.426 4.426 0 0 1 257.476 5.35 Q 257.688 4.673 258.095 4.182 A 2.808 2.808 0 0 1 259.098 3.417 Q 259.695 3.142 260.471 3.142 A 3.701 3.701 0 0 1 261.108 3.194 A 2.725 2.725 0 0 1 261.753 3.387 Q 262.302 3.633 262.727 4.072 Z M 166.538 0 L 167.827 0 L 167.827 10.415 L 166.538 10.415 L 166.538 0 Z M 244.263 0 L 245.552 0 L 245.552 10.415 L 244.263 10.415 L 244.263 0 Z M 217.595 10.415 L 216.306 10.415 L 216.306 3.252 L 217.046 3.252 A 0.821 0.821 0 0 1 217.146 3.258 Q 217.253 3.271 217.313 3.314 A 0.203 0.203 0 0 1 217.335 3.333 A 0.259 0.259 0 0 1 217.39 3.412 Q 217.423 3.483 217.433 3.589 A 0.91 0.91 0 0 1 217.434 3.604 L 217.522 4.658 A 3.896 3.896 0 0 1 217.84 4.094 Q 218.063 3.768 218.335 3.538 A 1.72 1.72 0 0 1 219.405 3.129 A 2.196 2.196 0 0 1 219.5 3.127 A 1.919 1.919 0 0 1 219.785 3.148 A 1.632 1.632 0 0 1 219.924 3.175 A 1.08 1.08 0 0 1 220.283 3.333 L 220.181 4.285 A 0.275 0.275 0 0 1 220.161 4.363 Q 220.123 4.448 220.025 4.464 A 0.303 0.303 0 0 1 219.976 4.468 Q 219.89 4.468 219.746 4.44 A 2.995 2.995 0 0 1 219.686 4.427 A 1.755 1.755 0 0 0 219.463 4.395 A 2.279 2.279 0 0 0 219.272 4.387 A 1.873 1.873 0 0 0 218.98 4.409 A 1.388 1.388 0 0 0 218.69 4.486 A 1.368 1.368 0 0 0 218.236 4.779 A 1.857 1.857 0 0 0 217.987 5.078 A 2.274 2.274 0 0 0 217.881 5.251 A 4.035 4.035 0 0 0 217.724 5.57 A 5.322 5.322 0 0 0 217.595 5.889 L 217.595 10.415 Z M 10.611 3.22 A 4.067 4.067 0 0 0 9.8 3.142 Q 9.016 3.142 8.383 3.402 A 2.989 2.989 0 0 0 7.306 4.142 A 3.027 3.027 0 0 0 7.002 4.53 A 3.484 3.484 0 0 0 6.625 5.303 A 4.076 4.076 0 0 0 6.454 5.977 A 5.151 5.151 0 0 0 6.387 6.826 A 5.393 5.393 0 0 0 6.426 7.489 A 4.183 4.183 0 0 0 6.625 8.357 Q 6.863 9.038 7.306 9.518 A 2.989 2.989 0 0 0 8.383 10.258 A 3.329 3.329 0 0 0 8.977 10.438 A 4.076 4.076 0 0 0 9.8 10.518 A 4.305 4.305 0 0 0 10.298 10.49 A 3.426 3.426 0 0 0 11.213 10.258 A 2.96 2.96 0 0 0 12.283 9.518 A 3.043 3.043 0 0 0 12.587 9.125 A 3.526 3.526 0 0 0 12.96 8.357 A 4.075 4.075 0 0 0 13.133 7.669 A 5.221 5.221 0 0 0 13.198 6.826 A 5.369 5.369 0 0 0 13.165 6.217 A 4.212 4.212 0 0 0 12.96 5.303 Q 12.722 4.622 12.283 4.142 A 2.96 2.96 0 0 0 11.213 3.402 A 3.295 3.295 0 0 0 10.611 3.22 Z M 129.373 3.22 A 4.067 4.067 0 0 0 128.562 3.142 Q 127.778 3.142 127.145 3.402 A 2.989 2.989 0 0 0 126.068 4.142 A 3.027 3.027 0 0 0 125.765 4.53 A 3.484 3.484 0 0 0 125.387 5.303 A 4.076 4.076 0 0 0 125.216 5.977 A 5.151 5.151 0 0 0 125.149 6.826 A 5.393 5.393 0 0 0 125.188 7.489 A 4.183 4.183 0 0 0 125.387 8.357 Q 125.625 9.038 126.068 9.518 A 2.989 2.989 0 0 0 127.145 10.258 A 3.329 3.329 0 0 0 127.739 10.438 A 4.076 4.076 0 0 0 128.562 10.518 A 4.305 4.305 0 0 0 129.06 10.49 A 3.426 3.426 0 0 0 129.976 10.258 A 2.96 2.96 0 0 0 131.045 9.518 A 3.043 3.043 0 0 0 131.349 9.125 A 3.526 3.526 0 0 0 131.722 8.357 A 4.075 4.075 0 0 0 131.895 7.669 A 5.221 5.221 0 0 0 131.96 6.826 A 5.369 5.369 0 0 0 131.927 6.217 A 4.212 4.212 0 0 0 131.722 5.303 Q 131.484 4.622 131.045 4.142 A 2.96 2.96 0 0 0 129.976 3.402 A 3.295 3.295 0 0 0 129.373 3.22 Z M 122.234 3.252 L 123.523 3.252 L 123.523 10.415 L 122.234 10.415 L 122.234 3.252 Z M 212.981 3.252 L 214.27 3.252 L 214.27 10.415 L 212.981 10.415 L 212.981 3.252 Z M 240.82 3.252 L 242.109 3.252 L 242.109 10.415 L 240.82 10.415 L 240.82 3.252 Z M 9.8 9.514 A 2.546 2.546 0 0 0 10.251 9.476 A 1.877 1.877 0 0 0 10.708 9.335 Q 11.096 9.155 11.356 8.811 A 2.115 2.115 0 0 0 11.619 8.348 A 2.79 2.79 0 0 0 11.744 7.969 Q 11.869 7.486 11.872 6.873 A 6.27 6.27 0 0 0 11.873 6.833 Q 11.873 6.196 11.744 5.698 A 2.716 2.716 0 0 0 11.586 5.245 A 2.073 2.073 0 0 0 11.356 4.856 A 1.721 1.721 0 0 0 10.708 4.329 A 1.868 1.868 0 0 0 10.215 4.178 A 2.531 2.531 0 0 0 9.8 4.146 A 2.567 2.567 0 0 0 9.35 4.183 A 1.883 1.883 0 0 0 8.881 4.329 A 1.714 1.714 0 0 0 8.229 4.856 A 2.115 2.115 0 0 0 7.967 5.319 A 2.79 2.79 0 0 0 7.841 5.698 Q 7.716 6.181 7.713 6.794 A 6.27 6.27 0 0 0 7.712 6.833 Q 7.712 7.471 7.841 7.969 A 2.716 2.716 0 0 0 7.999 8.422 A 2.073 2.073 0 0 0 8.229 8.811 A 1.683 1.683 0 0 0 8.881 9.335 Q 9.272 9.514 9.8 9.514 Z M 128.562 9.514 A 2.546 2.546 0 0 0 129.013 9.476 A 1.877 1.877 0 0 0 129.47 9.335 Q 129.858 9.155 130.118 8.811 A 2.115 2.115 0 0 0 130.381 8.348 A 2.79 2.79 0 0 0 130.507 7.969 Q 130.631 7.486 130.635 6.873 A 6.27 6.27 0 0 0 130.635 6.833 Q 130.635 6.196 130.507 5.698 A 2.716 2.716 0 0 0 130.349 5.245 A 2.073 2.073 0 0 0 130.118 4.856 A 1.721 1.721 0 0 0 129.47 4.329 A 1.868 1.868 0 0 0 128.977 4.178 A 2.531 2.531 0 0 0 128.562 4.146 A 2.567 2.567 0 0 0 128.112 4.183 A 1.883 1.883 0 0 0 127.643 4.329 A 1.714 1.714 0 0 0 126.991 4.856 A 2.115 2.115 0 0 0 126.729 5.319 A 2.79 2.79 0 0 0 126.603 5.698 Q 126.479 6.181 126.475 6.794 A 6.27 6.27 0 0 0 126.475 6.833 Q 126.475 7.471 126.603 7.969 A 2.716 2.716 0 0 0 126.761 8.422 A 2.073 2.073 0 0 0 126.991 8.811 A 1.683 1.683 0 0 0 127.643 9.335 Q 128.035 9.514 128.562 9.514 Z M 69.199 8.416 L 69.199 4.951 Q 68.903 4.553 68.562 4.36 A 1.487 1.487 0 0 0 68.452 4.303 A 2.027 2.027 0 0 0 67.769 4.125 A 2.438 2.438 0 0 0 67.559 4.116 A 2.128 2.128 0 0 0 66.903 4.212 A 1.673 1.673 0 0 0 66.057 4.827 A 2.374 2.374 0 0 0 65.706 5.534 Q 65.53 6.093 65.53 6.855 A 6.714 6.714 0 0 0 65.55 7.388 Q 65.57 7.639 65.61 7.858 A 3.499 3.499 0 0 0 65.651 8.049 A 3.024 3.024 0 0 0 65.766 8.424 Q 65.839 8.614 65.934 8.767 A 1.688 1.688 0 0 0 65.999 8.866 A 1.452 1.452 0 0 0 66.322 9.198 A 1.315 1.315 0 0 0 66.555 9.335 Q 66.885 9.485 67.302 9.485 Q 67.91 9.485 68.361 9.203 A 2.888 2.888 0 0 0 68.861 8.802 A 3.828 3.828 0 0 0 69.199 8.416 Z M 198.977 6.694 L 199.512 4.614 A 2.139 2.139 0 0 0 199.213 4.563 A 2.864 2.864 0 0 0 198.918 4.548 Q 198.398 4.548 197.959 4.768 A 2.468 2.468 0 0 0 197.201 5.35 A 2.732 2.732 0 0 0 196.703 6.178 Q 196.523 6.643 196.523 7.126 A 1.798 1.798 0 0 0 196.553 7.46 Q 196.589 7.653 196.671 7.805 A 0.98 0.98 0 0 0 196.754 7.936 A 0.744 0.744 0 0 0 197.217 8.218 A 1.157 1.157 0 0 0 197.446 8.24 A 1.414 1.414 0 0 0 197.783 8.198 A 1.66 1.66 0 0 0 197.882 8.17 A 1.107 1.107 0 0 0 198.179 8.024 A 1.384 1.384 0 0 0 198.307 7.925 Q 198.488 7.767 198.649 7.507 A 2.734 2.734 0 0 0 198.684 7.449 A 2.299 2.299 0 0 0 198.827 7.157 Q 198.911 6.95 198.977 6.694 Z M 104.663 6.05 L 108.567 6.05 A 2.617 2.617 0 0 0 108.521 5.549 A 2.195 2.195 0 0 0 108.442 5.255 A 1.871 1.871 0 0 0 108.232 4.823 A 1.653 1.653 0 0 0 108.084 4.633 A 1.623 1.623 0 0 0 107.53 4.235 A 1.869 1.869 0 0 0 107.509 4.226 A 1.797 1.797 0 0 0 107.004 4.094 A 2.251 2.251 0 0 0 106.743 4.08 A 2.488 2.488 0 0 0 106.144 4.148 A 1.721 1.721 0 0 0 105.319 4.607 A 2.171 2.171 0 0 0 104.835 5.37 Q 104.717 5.678 104.663 6.05 Z M 170.764 6.05 L 174.668 6.05 A 2.617 2.617 0 0 0 174.622 5.549 A 2.195 2.195 0 0 0 174.543 5.255 A 1.871 1.871 0 0 0 174.333 4.823 A 1.653 1.653 0 0 0 174.185 4.633 A 1.623 1.623 0 0 0 173.631 4.235 A 1.869 1.869 0 0 0 173.61 4.226 A 1.797 1.797 0 0 0 173.105 4.094 A 2.251 2.251 0 0 0 172.844 4.08 A 2.488 2.488 0 0 0 172.245 4.148 A 1.721 1.721 0 0 0 171.42 4.607 A 2.171 2.171 0 0 0 170.936 5.37 Q 170.818 5.678 170.764 6.05 Z M 94.175 10.803 Q 94.175 10.547 94.039 10.386 A 0.812 0.812 0 0 0 93.832 10.212 A 1.089 1.089 0 0 0 93.669 10.133 A 1.981 1.981 0 0 0 93.417 10.054 Q 93.281 10.021 93.127 10.001 Q 92.82 9.961 92.476 9.939 Q 92.131 9.917 91.776 9.902 Q 91.421 9.888 91.091 9.836 A 2.194 2.194 0 0 0 90.747 10.06 A 1.756 1.756 0 0 0 90.505 10.294 A 0.95 0.95 0 0 0 90.279 10.9 A 1.205 1.205 0 0 0 90.278 10.935 A 0.931 0.931 0 0 0 90.388 11.382 A 0.895 0.895 0 0 0 90.579 11.622 A 1.185 1.185 0 0 0 90.729 11.737 Q 90.923 11.863 91.208 11.946 A 2.797 2.797 0 0 0 91.318 11.975 A 2.831 2.831 0 0 0 91.658 12.035 Q 91.833 12.056 92.033 12.061 A 5.176 5.176 0 0 0 92.168 12.063 A 4.225 4.225 0 0 0 92.57 12.045 Q 92.784 12.024 92.972 11.981 A 2.546 2.546 0 0 0 93.025 11.968 A 2.619 2.619 0 0 0 93.329 11.871 Q 93.488 11.809 93.618 11.731 A 1.556 1.556 0 0 0 93.655 11.708 A 1.289 1.289 0 0 0 93.886 11.52 A 1.044 1.044 0 0 0 94.043 11.312 Q 94.175 11.082 94.175 10.803 Z M 101.235 10.803 Q 101.235 10.547 101.1 10.386 A 0.812 0.812 0 0 0 100.893 10.212 A 1.089 1.089 0 0 0 100.73 10.133 A 1.981 1.981 0 0 0 100.477 10.054 Q 100.342 10.021 100.188 10.001 Q 99.88 9.961 99.536 9.939 Q 99.192 9.917 98.837 9.902 Q 98.481 9.888 98.152 9.836 A 2.194 2.194 0 0 0 97.808 10.06 A 1.756 1.756 0 0 0 97.566 10.294 A 0.95 0.95 0 0 0 97.339 10.9 A 1.205 1.205 0 0 0 97.339 10.935 A 0.931 0.931 0 0 0 97.449 11.382 A 0.895 0.895 0 0 0 97.639 11.622 A 1.185 1.185 0 0 0 97.789 11.737 Q 97.984 11.863 98.269 11.946 A 2.797 2.797 0 0 0 98.379 11.975 A 2.831 2.831 0 0 0 98.718 12.035 Q 98.894 12.056 99.093 12.061 A 5.176 5.176 0 0 0 99.229 12.063 A 4.225 4.225 0 0 0 99.63 12.045 Q 99.845 12.024 100.032 11.981 A 2.546 2.546 0 0 0 100.085 11.968 A 2.619 2.619 0 0 0 100.39 11.871 Q 100.549 11.809 100.679 11.731 A 1.556 1.556 0 0 0 100.715 11.708 A 1.289 1.289 0 0 0 100.947 11.52 A 1.044 1.044 0 0 0 101.104 11.312 Q 101.235 11.082 101.235 10.803 Z M 181.86 10.803 Q 181.86 10.547 181.725 10.386 A 0.812 0.812 0 0 0 181.518 10.212 A 1.089 1.089 0 0 0 181.355 10.133 A 1.981 1.981 0 0 0 181.102 10.054 Q 180.967 10.021 180.813 10.001 Q 180.505 9.961 180.161 9.939 Q 179.817 9.917 179.462 9.902 Q 179.106 9.888 178.777 9.836 A 2.194 2.194 0 0 0 178.433 10.06 A 1.756 1.756 0 0 0 178.191 10.294 A 0.95 0.95 0 0 0 177.964 10.9 A 1.205 1.205 0 0 0 177.964 10.935 A 0.931 0.931 0 0 0 178.074 11.382 A 0.895 0.895 0 0 0 178.264 11.622 A 1.185 1.185 0 0 0 178.414 11.737 Q 178.609 11.863 178.894 11.946 A 2.797 2.797 0 0 0 179.004 11.975 A 2.831 2.831 0 0 0 179.343 12.035 Q 179.519 12.056 179.718 12.061 A 5.176 5.176 0 0 0 179.854 12.063 A 4.225 4.225 0 0 0 180.255 12.045 Q 180.47 12.024 180.657 11.981 A 2.546 2.546 0 0 0 180.71 11.968 A 2.619 2.619 0 0 0 181.015 11.871 Q 181.174 11.809 181.304 11.731 A 1.556 1.556 0 0 0 181.34 11.708 A 1.289 1.289 0 0 0 181.572 11.52 A 1.044 1.044 0 0 0 181.729 11.312 Q 181.86 11.082 181.86 10.803 Z M 31.655 8.672 L 31.655 7.192 A 15.412 15.412 0 0 0 31.049 7.23 Q 30.751 7.254 30.493 7.289 A 7.53 7.53 0 0 0 30.198 7.335 A 5.736 5.736 0 0 0 29.795 7.421 Q 29.607 7.468 29.449 7.524 A 2.617 2.617 0 0 0 29.22 7.617 A 1.956 1.956 0 0 0 28.985 7.745 Q 28.869 7.82 28.784 7.904 A 0.923 0.923 0 0 0 28.674 8.031 Q 28.506 8.269 28.506 8.562 A 1.419 1.419 0 0 0 28.523 8.789 Q 28.543 8.915 28.588 9.02 A 0.86 0.86 0 0 0 28.597 9.042 A 0.973 0.973 0 0 0 28.732 9.26 A 0.845 0.845 0 0 0 28.843 9.371 A 0.972 0.972 0 0 0 29.119 9.531 A 1.165 1.165 0 0 0 29.209 9.562 Q 29.421 9.624 29.663 9.624 A 2.763 2.763 0 0 0 30.009 9.603 A 2.224 2.224 0 0 0 30.256 9.558 A 2.423 2.423 0 0 0 30.769 9.371 Q 31.011 9.25 31.227 9.071 A 5.197 5.197 0 0 0 31.549 8.779 A 5.904 5.904 0 0 0 31.655 8.672 Z M 53.599 8.672 L 53.599 7.192 A 15.412 15.412 0 0 0 52.992 7.23 Q 52.695 7.254 52.437 7.289 A 7.53 7.53 0 0 0 52.141 7.335 A 5.736 5.736 0 0 0 51.738 7.421 Q 51.551 7.468 51.392 7.524 A 2.617 2.617 0 0 0 51.163 7.617 A 1.956 1.956 0 0 0 50.929 7.745 Q 50.813 7.82 50.727 7.904 A 0.923 0.923 0 0 0 50.618 8.031 Q 50.449 8.269 50.449 8.562 A 1.419 1.419 0 0 0 50.466 8.789 Q 50.487 8.915 50.531 9.02 A 0.86 0.86 0 0 0 50.541 9.042 A 0.973 0.973 0 0 0 50.676 9.26 A 0.845 0.845 0 0 0 50.786 9.371 A 0.972 0.972 0 0 0 51.062 9.531 A 1.165 1.165 0 0 0 51.152 9.562 Q 51.365 9.624 51.606 9.624 A 2.763 2.763 0 0 0 51.953 9.603 A 2.224 2.224 0 0 0 52.2 9.558 A 2.423 2.423 0 0 0 52.712 9.371 Q 52.954 9.25 53.17 9.071 A 5.197 5.197 0 0 0 53.492 8.779 A 5.904 5.904 0 0 0 53.599 8.672 Z M 209.722 8.672 L 209.722 7.192 A 15.412 15.412 0 0 0 209.115 7.23 Q 208.818 7.254 208.56 7.289 A 7.53 7.53 0 0 0 208.264 7.335 A 5.736 5.736 0 0 0 207.861 7.421 Q 207.674 7.468 207.515 7.524 A 2.617 2.617 0 0 0 207.286 7.617 A 1.956 1.956 0 0 0 207.052 7.745 Q 206.936 7.82 206.85 7.904 A 0.923 0.923 0 0 0 206.741 8.031 Q 206.572 8.269 206.572 8.562 A 1.419 1.419 0 0 0 206.59 8.789 Q 206.61 8.915 206.654 9.02 A 0.86 0.86 0 0 0 206.664 9.042 A 0.973 0.973 0 0 0 206.799 9.26 A 0.845 0.845 0 0 0 206.909 9.371 A 0.972 0.972 0 0 0 207.185 9.531 A 1.165 1.165 0 0 0 207.275 9.562 Q 207.488 9.624 207.73 9.624 A 2.763 2.763 0 0 0 208.076 9.603 A 2.224 2.224 0 0 0 208.323 9.558 A 2.423 2.423 0 0 0 208.835 9.371 Q 209.077 9.25 209.293 9.071 A 5.197 5.197 0 0 0 209.615 8.779 A 5.904 5.904 0 0 0 209.722 8.672 Z M 237.561 8.672 L 237.561 7.192 A 15.412 15.412 0 0 0 236.954 7.23 Q 236.657 7.254 236.399 7.289 A 7.53 7.53 0 0 0 236.104 7.335 A 5.736 5.736 0 0 0 235.701 7.421 Q 235.513 7.468 235.355 7.524 A 2.617 2.617 0 0 0 235.126 7.617 A 1.956 1.956 0 0 0 234.891 7.745 Q 234.775 7.82 234.689 7.904 A 0.923 0.923 0 0 0 234.58 8.031 Q 234.412 8.269 234.412 8.562 A 1.419 1.419 0 0 0 234.429 8.789 Q 234.449 8.915 234.494 9.02 A 0.86 0.86 0 0 0 234.503 9.042 A 0.973 0.973 0 0 0 234.638 9.26 A 0.845 0.845 0 0 0 234.749 9.371 A 0.972 0.972 0 0 0 235.025 9.531 A 1.165 1.165 0 0 0 235.115 9.562 Q 235.327 9.624 235.569 9.624 A 2.763 2.763 0 0 0 235.915 9.603 A 2.224 2.224 0 0 0 236.162 9.558 A 2.423 2.423 0 0 0 236.675 9.371 Q 236.917 9.25 237.133 9.071 A 5.197 5.197 0 0 0 237.455 8.779 A 5.904 5.904 0 0 0 237.561 8.672 Z M 92.916 6.689 A 1.086 1.086 0 0 0 93.138 6.504 A 1.354 1.354 0 0 0 93.471 5.819 A 1.916 1.916 0 0 0 93.501 5.471 A 1.9 1.9 0 0 0 93.454 5.037 A 1.288 1.288 0 0 0 93.138 4.435 A 1.151 1.151 0 0 0 92.625 4.125 Q 92.441 4.069 92.218 4.055 A 2.422 2.422 0 0 0 92.065 4.05 A 2.012 2.012 0 0 0 91.654 4.09 Q 91.254 4.173 91.007 4.435 A 1.291 1.291 0 0 0 90.689 5.046 A 1.908 1.908 0 0 0 90.645 5.471 A 1.88 1.88 0 0 0 90.675 5.817 A 1.542 1.542 0 0 0 90.736 6.046 A 1.259 1.259 0 0 0 90.996 6.485 A 1.225 1.225 0 0 0 91.007 6.497 A 1.19 1.19 0 0 0 91.357 6.75 A 1.425 1.425 0 0 0 91.454 6.793 A 1.473 1.473 0 0 0 91.794 6.881 A 1.951 1.951 0 0 0 92.065 6.899 Q 92.583 6.899 92.916 6.689 Z M 99.977 6.689 A 1.086 1.086 0 0 0 100.199 6.504 A 1.354 1.354 0 0 0 100.531 5.819 A 1.916 1.916 0 0 0 100.562 5.471 A 1.9 1.9 0 0 0 100.515 5.037 A 1.288 1.288 0 0 0 100.199 4.435 A 1.151 1.151 0 0 0 99.685 4.125 Q 99.501 4.069 99.279 4.055 A 2.422 2.422 0 0 0 99.126 4.05 A 2.012 2.012 0 0 0 98.714 4.09 Q 98.314 4.173 98.068 4.435 A 1.291 1.291 0 0 0 97.75 5.046 A 1.908 1.908 0 0 0 97.705 5.471 A 1.88 1.88 0 0 0 97.736 5.817 A 1.542 1.542 0 0 0 97.797 6.046 A 1.259 1.259 0 0 0 98.057 6.485 A 1.225 1.225 0 0 0 98.068 6.497 A 1.19 1.19 0 0 0 98.417 6.75 A 1.425 1.425 0 0 0 98.514 6.793 A 1.473 1.473 0 0 0 98.854 6.881 A 1.951 1.951 0 0 0 99.126 6.899 Q 99.644 6.899 99.977 6.689 Z M 180.602 6.689 A 1.086 1.086 0 0 0 180.824 6.504 A 1.354 1.354 0 0 0 181.156 5.819 A 1.916 1.916 0 0 0 181.187 5.471 A 1.9 1.9 0 0 0 181.14 5.037 A 1.288 1.288 0 0 0 180.824 4.435 A 1.151 1.151 0 0 0 180.31 4.125 Q 180.126 4.069 179.904 4.055 A 2.422 2.422 0 0 0 179.751 4.05 A 2.012 2.012 0 0 0 179.339 4.09 Q 178.939 4.173 178.693 4.435 A 1.291 1.291 0 0 0 178.375 5.046 A 1.908 1.908 0 0 0 178.33 5.471 A 1.88 1.88 0 0 0 178.361 5.817 A 1.542 1.542 0 0 0 178.422 6.046 A 1.259 1.259 0 0 0 178.682 6.485 A 1.225 1.225 0 0 0 178.693 6.497 A 1.19 1.19 0 0 0 179.042 6.75 A 1.425 1.425 0 0 0 179.139 6.793 A 1.473 1.473 0 0 0 179.479 6.881 A 1.951 1.951 0 0 0 179.751 6.899 Q 180.269 6.899 180.602 6.689 Z M 249.419 9.631 Q 249.419 9.814 249.346 9.979 A 0.879 0.879 0 0 1 249.144 10.265 Q 249.016 10.386 248.851 10.459 Q 248.687 10.532 248.503 10.532 Q 248.32 10.532 248.159 10.459 Q 247.998 10.386 247.877 10.265 A 0.937 0.937 0 0 1 247.685 9.984 A 1.057 1.057 0 0 1 247.683 9.979 Q 247.61 9.814 247.61 9.631 A 0.87 0.87 0 0 1 247.67 9.307 A 0.837 0.837 0 0 1 247.683 9.276 A 0.987 0.987 0 0 1 247.877 8.987 A 0.919 0.919 0 0 1 248.159 8.789 Q 248.32 8.716 248.503 8.716 Q 248.687 8.716 248.851 8.789 A 1 1 0 0 1 249.144 8.987 A 0.921 0.921 0 0 1 249.346 9.276 A 0.862 0.862 0 0 1 249.419 9.619 A 0.983 0.983 0 0 1 249.419 9.631 Z M 149.158 9.631 Q 149.158 9.814 149.085 9.979 A 0.879 0.879 0 0 1 148.883 10.265 Q 148.755 10.386 148.59 10.459 Q 148.425 10.532 148.242 10.532 Q 148.059 10.532 147.898 10.459 Q 147.737 10.386 147.616 10.265 A 0.937 0.937 0 0 1 147.424 9.984 A 1.057 1.057 0 0 1 147.422 9.979 Q 147.349 9.814 147.349 9.631 A 0.87 0.87 0 0 1 147.409 9.307 A 0.837 0.837 0 0 1 147.422 9.276 A 0.987 0.987 0 0 1 147.616 8.987 A 0.919 0.919 0 0 1 147.898 8.789 Q 148.059 8.716 148.242 8.716 Q 148.425 8.716 148.59 8.789 A 1 1 0 0 1 148.883 8.987 A 0.921 0.921 0 0 1 149.085 9.276 A 0.862 0.862 0 0 1 149.158 9.619 A 0.983 0.983 0 0 1 149.158 9.631 Z M 149.114 4.666 Q 149.114 4.849 149.041 5.013 A 0.879 0.879 0 0 1 148.839 5.299 Q 148.711 5.42 148.546 5.493 Q 148.381 5.566 148.198 5.566 Q 148.015 5.566 147.854 5.493 Q 147.693 5.42 147.572 5.299 A 0.937 0.937 0 0 1 147.38 5.019 A 1.057 1.057 0 0 1 147.378 5.013 Q 147.305 4.849 147.305 4.666 A 0.87 0.87 0 0 1 147.365 4.341 A 0.837 0.837 0 0 1 147.378 4.31 A 0.987 0.987 0 0 1 147.572 4.021 A 0.919 0.919 0 0 1 147.854 3.823 Q 148.015 3.75 148.198 3.75 Q 148.381 3.75 148.546 3.823 A 1 1 0 0 1 148.839 4.021 A 0.921 0.921 0 0 1 149.041 4.31 A 0.862 0.862 0 0 1 149.114 4.654 A 0.983 0.983 0 0 1 149.114 4.666 Z M 123.772 1.011 Q 123.772 1.194 123.699 1.359 A 0.879 0.879 0 0 1 123.497 1.644 Q 123.369 1.765 123.204 1.838 Q 123.04 1.912 122.856 1.912 Q 122.673 1.912 122.512 1.838 Q 122.351 1.765 122.23 1.644 A 0.937 0.937 0 0 1 122.038 1.364 A 1.057 1.057 0 0 1 122.036 1.359 Q 121.963 1.194 121.963 1.011 A 0.87 0.87 0 0 1 122.023 0.687 A 0.837 0.837 0 0 1 122.036 0.656 A 0.987 0.987 0 0 1 122.23 0.366 A 0.919 0.919 0 0 1 122.512 0.168 Q 122.673 0.095 122.856 0.095 Q 123.04 0.095 123.204 0.168 A 1 1 0 0 1 123.497 0.366 A 0.921 0.921 0 0 1 123.699 0.656 A 0.862 0.862 0 0 1 123.772 0.999 A 0.983 0.983 0 0 1 123.772 1.011 Z M 214.519 1.011 Q 214.519 1.194 214.446 1.359 A 0.879 0.879 0 0 1 214.244 1.644 Q 214.116 1.765 213.951 1.838 Q 213.787 1.912 213.604 1.912 Q 213.42 1.912 213.259 1.838 Q 213.098 1.765 212.977 1.644 A 0.937 0.937 0 0 1 212.786 1.364 A 1.057 1.057 0 0 1 212.783 1.359 Q 212.71 1.194 212.71 1.011 A 0.87 0.87 0 0 1 212.77 0.687 A 0.837 0.837 0 0 1 212.783 0.656 A 0.987 0.987 0 0 1 212.977 0.366 A 0.919 0.919 0 0 1 213.259 0.168 Q 213.42 0.095 213.604 0.095 Q 213.787 0.095 213.951 0.168 A 1 1 0 0 1 214.244 0.366 A 0.921 0.921 0 0 1 214.446 0.656 A 0.862 0.862 0 0 1 214.519 0.999 A 0.983 0.983 0 0 1 214.519 1.011 Z M 242.358 1.011 Q 242.358 1.194 242.285 1.359 A 0.879 0.879 0 0 1 242.084 1.644 Q 241.956 1.765 241.791 1.838 Q 241.626 1.912 241.443 1.912 Q 241.26 1.912 241.099 1.838 Q 240.938 1.765 240.817 1.644 A 0.937 0.937 0 0 1 240.625 1.364 A 1.057 1.057 0 0 1 240.623 1.359 Q 240.549 1.194 240.549 1.011 A 0.87 0.87 0 0 1 240.61 0.687 A 0.837 0.837 0 0 1 240.623 0.656 A 0.987 0.987 0 0 1 240.817 0.366 A 0.919 0.919 0 0 1 241.099 0.168 Q 241.26 0.095 241.443 0.095 Q 241.626 0.095 241.791 0.168 A 1 1 0 0 1 242.084 0.366 A 0.921 0.921 0 0 1 242.285 0.656 A 0.862 0.862 0 0 1 242.358 0.999 A 0.983 0.983 0 0 1 242.358 1.011 Z" vector-effect="non-scaling-stroke"/></g></svg>
