<svg width="250.223" height="16.524" viewBox="0 0 250.223 16.524" xmlns="http://www.w3.org/2000/svg"><g id="svgGroup" stroke-linecap="round" fill-rule="evenodd" font-size="9pt" stroke="#000" stroke-width="0" fill="#000" style="stroke:#000;stroke-width:0;fill:#000"><path d="M 165.733 5.644 L 165.886 4.505 L 167.229 4.505 L 166.532 10.064 A 7.778 7.778 0 0 0 166.505 10.283 Q 166.484 10.483 166.481 10.626 A 2.061 2.061 0 0 0 166.481 10.659 A 1.801 1.801 0 0 0 166.505 10.963 Q 166.534 11.129 166.595 11.262 A 0.911 0.911 0 0 0 166.685 11.415 Q 166.889 11.696 167.365 11.696 A 1.288 1.288 0 0 0 168.076 11.477 Q 168.279 11.345 168.47 11.135 A 3.107 3.107 0 0 0 168.877 10.561 Q 169.114 10.139 169.286 9.58 A 6.649 6.649 0 0 0 169.52 8.475 Q 169.59 7.936 169.592 7.332 A 10.871 10.871 0 0 0 169.592 7.293 A 5.899 5.899 0 0 0 169.363 5.625 A 5.088 5.088 0 0 0 168.87 4.48 Q 168.147 3.247 166.872 2.541 Q 165.597 1.836 163.931 1.836 A 6.972 6.972 0 0 0 162.371 2.004 A 5.639 5.639 0 0 0 161.118 2.448 Q 159.885 3.06 159.044 4.08 Q 158.202 5.1 157.769 6.358 Q 157.335 7.616 157.335 8.925 A 8.21 8.21 0 0 0 157.481 10.513 A 5.883 5.883 0 0 0 158.125 12.291 Q 158.916 13.685 160.293 14.425 Q 161.67 15.164 163.387 15.164 A 9.346 9.346 0 0 0 164.602 15.089 A 6.97 6.97 0 0 0 165.699 14.858 Q 166.719 14.552 167.62 14.11 L 168.113 15.402 Q 167.317 15.831 166.218 16.135 A 13.474 13.474 0 0 1 165.971 16.201 A 10.386 10.386 0 0 1 163.988 16.504 A 12.088 12.088 0 0 1 163.285 16.524 A 9.327 9.327 0 0 1 161.107 16.279 A 7.64 7.64 0 0 1 159.409 15.657 Q 157.709 14.79 156.74 13.099 A 7.072 7.072 0 0 1 155.956 10.962 Q 155.783 10.097 155.772 9.108 A 12.048 12.048 0 0 1 155.771 8.976 Q 155.771 7.276 156.349 5.746 Q 156.927 4.216 158.015 3.026 Q 159.103 1.836 160.624 1.156 A 7.83 7.83 0 0 1 163 0.53 A 9.685 9.685 0 0 1 164.033 0.476 A 8.695 8.695 0 0 1 165.739 0.637 A 7.172 7.172 0 0 1 166.94 0.986 A 6.777 6.777 0 0 1 168.794 2.058 A 6.319 6.319 0 0 1 169.193 2.414 Q 170.136 3.332 170.646 4.556 A 6.721 6.721 0 0 1 171.148 6.854 A 7.791 7.791 0 0 1 171.156 7.208 A 8.895 8.895 0 0 1 171.036 8.701 A 6.7 6.7 0 0 1 170.646 10.098 Q 170.136 11.356 169.252 12.07 Q 168.368 12.784 167.229 12.784 A 2.668 2.668 0 0 1 166.637 12.722 A 1.833 1.833 0 0 1 165.852 12.342 A 1.777 1.777 0 0 1 165.238 11.261 A 2.297 2.297 0 0 1 165.223 11.169 A 4.634 4.634 0 0 1 164.096 12.15 A 5.178 5.178 0 0 1 164.075 12.163 A 2.79 2.79 0 0 1 162.712 12.576 A 3.371 3.371 0 0 1 162.554 12.58 Q 161.704 12.58 160.965 12.147 A 3.089 3.089 0 0 1 159.898 11.095 A 3.737 3.737 0 0 1 159.783 10.897 A 3.558 3.558 0 0 1 159.42 9.846 A 4.941 4.941 0 0 1 159.341 8.942 A 5.444 5.444 0 0 1 159.508 7.572 A 4.617 4.617 0 0 1 159.868 6.622 A 4.504 4.504 0 0 1 160.713 5.455 A 4.096 4.096 0 0 1 161.279 4.99 Q 162.163 4.386 163.251 4.386 A 3.653 3.653 0 0 1 163.95 4.45 Q 164.395 4.536 164.753 4.741 A 2.242 2.242 0 0 1 164.755 4.743 A 3.014 3.014 0 0 1 165.414 5.248 A 2.638 2.638 0 0 1 165.733 5.644 Z M 196.809 12.58 L 195.279 12.58 L 195.279 3.74 L 196.758 3.74 L 196.758 5.219 Q 197.234 4.505 197.965 4.021 A 2.925 2.925 0 0 1 199.529 3.537 A 3.545 3.545 0 0 1 199.631 3.536 A 3.569 3.569 0 0 1 200.382 3.611 Q 200.89 3.72 201.278 3.989 A 2.231 2.231 0 0 1 201.357 4.046 A 2.678 2.678 0 0 1 202.283 5.353 A 3.257 3.257 0 0 1 202.3 5.406 Q 202.827 4.624 203.55 4.08 A 2.664 2.664 0 0 1 204.704 3.59 A 3.646 3.646 0 0 1 205.343 3.536 Q 206.788 3.536 207.493 4.445 Q 208.162 5.307 208.197 6.664 A 5.881 5.881 0 0 1 208.199 6.817 L 208.199 12.58 L 206.669 12.58 L 206.669 6.936 A 3.237 3.237 0 0 0 206.612 6.309 Q 206.513 5.809 206.244 5.448 A 1.356 1.356 0 0 0 205.256 4.888 A 1.815 1.815 0 0 0 205.071 4.879 A 2.027 2.027 0 0 0 203.922 5.241 A 2.719 2.719 0 0 0 203.651 5.448 Q 202.997 6.018 202.504 6.783 L 202.504 12.58 L 200.974 12.58 L 200.974 6.936 A 3.237 3.237 0 0 0 200.917 6.309 Q 200.818 5.809 200.549 5.448 A 1.356 1.356 0 0 0 199.561 4.888 A 1.815 1.815 0 0 0 199.376 4.879 A 2.043 2.043 0 0 0 198.302 5.19 A 2.762 2.762 0 0 0 197.965 5.431 Q 197.302 5.984 196.809 6.732 L 196.809 12.58 Z M 147.373 12.58 L 145.843 12.58 L 145.843 0 L 147.373 0 L 147.373 5.151 Q 147.849 4.454 148.58 3.995 A 2.987 2.987 0 0 1 149.791 3.568 A 3.841 3.841 0 0 1 150.297 3.536 A 3.948 3.948 0 0 1 151.158 3.624 Q 151.726 3.751 152.141 4.061 A 2.254 2.254 0 0 1 152.532 4.437 Q 153.234 5.291 153.27 6.665 A 5.739 5.739 0 0 1 153.272 6.817 L 153.272 12.58 L 151.742 12.58 L 151.742 6.987 A 3.336 3.336 0 0 0 151.685 6.351 Q 151.612 5.975 151.445 5.677 A 1.867 1.867 0 0 0 151.3 5.457 A 1.431 1.431 0 0 0 150.253 4.888 A 2.036 2.036 0 0 0 150.059 4.879 A 2.249 2.249 0 0 0 148.918 5.196 A 2.99 2.99 0 0 0 148.572 5.432 Q 147.866 5.984 147.373 6.732 L 147.373 12.58 Z M 19.227 15.776 L 19.788 14.45 A 3.495 3.495 0 0 0 20.437 14.853 A 4.205 4.205 0 0 0 20.74 14.986 A 2.874 2.874 0 0 0 21.282 15.134 Q 21.638 15.198 22.066 15.198 Q 23.06 15.198 23.702 14.766 A 2.138 2.138 0 0 0 23.962 14.561 Q 24.501 14.061 24.618 13.095 A 4.733 4.733 0 0 0 24.65 12.529 L 24.65 11.441 A 2.686 2.686 0 0 1 24.31 11.778 Q 24.041 12.003 23.673 12.215 A 2.704 2.704 0 0 1 22.792 12.526 A 3.67 3.67 0 0 1 22.151 12.58 Q 21.148 12.58 20.247 12.062 A 3.78 3.78 0 0 1 19.007 10.899 A 4.664 4.664 0 0 1 18.785 10.54 A 4.281 4.281 0 0 1 18.324 9.244 A 5.956 5.956 0 0 1 18.224 8.126 Q 18.224 6.8 18.777 5.763 A 4.37 4.37 0 0 1 19.807 4.467 A 4.156 4.156 0 0 1 20.264 4.131 Q 21.199 3.536 22.321 3.536 A 3.802 3.802 0 0 1 23.14 3.621 A 3.182 3.182 0 0 1 23.681 3.791 Q 24.293 4.046 24.735 4.42 L 24.735 3.74 L 26.129 3.74 L 26.129 12.376 A 6.918 6.918 0 0 1 26.069 13.317 Q 25.954 14.154 25.619 14.756 Q 25.109 15.674 24.2 16.099 A 4.388 4.388 0 0 1 23.077 16.443 A 5.991 5.991 0 0 1 22.066 16.524 Q 21.284 16.524 20.545 16.337 Q 19.805 16.15 19.227 15.776 Z M 29.172 15.776 L 29.733 14.45 A 3.495 3.495 0 0 0 30.382 14.853 A 4.205 4.205 0 0 0 30.685 14.986 A 2.874 2.874 0 0 0 31.227 15.134 Q 31.583 15.198 32.011 15.198 Q 33.005 15.198 33.647 14.766 A 2.138 2.138 0 0 0 33.907 14.561 Q 34.446 14.061 34.563 13.095 A 4.733 4.733 0 0 0 34.595 12.529 L 34.595 11.441 A 2.686 2.686 0 0 1 34.255 11.778 Q 33.986 12.003 33.618 12.215 A 2.704 2.704 0 0 1 32.737 12.526 A 3.67 3.67 0 0 1 32.096 12.58 Q 31.093 12.58 30.192 12.062 A 3.78 3.78 0 0 1 28.952 10.899 A 4.664 4.664 0 0 1 28.73 10.54 A 4.281 4.281 0 0 1 28.269 9.244 A 5.956 5.956 0 0 1 28.169 8.126 Q 28.169 6.8 28.722 5.763 A 4.37 4.37 0 0 1 29.752 4.467 A 4.156 4.156 0 0 1 30.209 4.131 Q 31.144 3.536 32.266 3.536 A 3.802 3.802 0 0 1 33.085 3.621 A 3.182 3.182 0 0 1 33.626 3.791 Q 34.238 4.046 34.68 4.42 L 34.68 3.74 L 36.074 3.74 L 36.074 12.376 A 6.918 6.918 0 0 1 36.014 13.317 Q 35.899 14.154 35.564 14.756 Q 35.054 15.674 34.145 16.099 A 4.388 4.388 0 0 1 33.022 16.443 A 5.991 5.991 0 0 1 32.011 16.524 Q 31.229 16.524 30.49 16.337 Q 29.75 16.15 29.172 15.776 Z M 136.306 15.776 L 136.867 14.45 A 3.495 3.495 0 0 0 137.516 14.853 A 4.205 4.205 0 0 0 137.819 14.986 A 2.874 2.874 0 0 0 138.361 15.134 Q 138.717 15.198 139.145 15.198 Q 140.139 15.198 140.781 14.766 A 2.138 2.138 0 0 0 141.041 14.561 Q 141.58 14.061 141.697 13.095 A 4.733 4.733 0 0 0 141.729 12.529 L 141.729 11.441 A 2.686 2.686 0 0 1 141.389 11.778 Q 141.12 12.003 140.752 12.215 A 2.704 2.704 0 0 1 139.871 12.526 A 3.67 3.67 0 0 1 139.23 12.58 Q 138.227 12.58 137.326 12.062 A 3.78 3.78 0 0 1 136.086 10.899 A 4.664 4.664 0 0 1 135.864 10.54 A 4.281 4.281 0 0 1 135.403 9.244 A 5.956 5.956 0 0 1 135.303 8.126 Q 135.303 6.8 135.856 5.763 A 4.37 4.37 0 0 1 136.886 4.467 A 4.156 4.156 0 0 1 137.343 4.131 Q 138.278 3.536 139.4 3.536 A 3.802 3.802 0 0 1 140.219 3.621 A 3.182 3.182 0 0 1 140.76 3.791 Q 141.372 4.046 141.814 4.42 L 141.814 3.74 L 143.208 3.74 L 143.208 12.376 A 6.918 6.918 0 0 1 143.148 13.317 Q 143.033 14.154 142.698 14.756 Q 142.188 15.674 141.279 16.099 A 4.388 4.388 0 0 1 140.156 16.443 A 5.991 5.991 0 0 1 139.145 16.524 Q 138.363 16.524 137.624 16.337 Q 136.884 16.15 136.306 15.776 Z M 8.636 9.486 L 8.636 3.74 L 10.166 3.74 L 10.166 9.282 A 3.907 3.907 0 0 0 10.209 9.883 Q 10.304 10.492 10.608 10.872 A 1.429 1.429 0 0 0 11.477 11.385 A 2.177 2.177 0 0 0 11.9 11.424 Q 12.597 11.424 13.252 11.144 Q 13.906 10.863 14.416 10.387 L 14.416 3.74 L 15.946 3.74 L 15.946 10.285 Q 15.946 11.016 16.261 11.246 Q 16.575 11.475 16.949 11.475 L 16.626 12.665 A 2.999 2.999 0 0 1 15.911 12.586 Q 14.952 12.351 14.671 11.407 Q 14.076 12.019 13.294 12.402 Q 12.512 12.784 11.611 12.784 Q 10.846 12.784 10.166 12.461 A 2.455 2.455 0 0 1 9.229 11.672 A 3.105 3.105 0 0 1 9.061 11.416 A 2.761 2.761 0 0 1 8.778 10.72 Q 8.689 10.385 8.656 9.987 A 6.013 6.013 0 0 1 8.636 9.486 Z M 78.608 12.58 L 77.078 12.58 L 77.078 3.74 L 78.557 3.74 L 78.557 5.219 Q 79.033 4.505 79.773 4.021 A 2.944 2.944 0 0 1 80.98 3.574 A 3.847 3.847 0 0 1 81.532 3.536 A 3.948 3.948 0 0 1 82.393 3.624 Q 82.961 3.751 83.376 4.061 A 2.254 2.254 0 0 1 83.767 4.437 Q 84.469 5.291 84.505 6.665 A 5.739 5.739 0 0 1 84.507 6.817 L 84.507 12.58 L 82.977 12.58 L 82.977 6.987 A 3.275 3.275 0 0 0 82.919 6.351 Q 82.844 5.975 82.674 5.677 A 1.864 1.864 0 0 0 82.527 5.457 A 1.459 1.459 0 0 0 81.459 4.887 A 2.05 2.05 0 0 0 81.277 4.879 A 2.231 2.231 0 0 0 80.113 5.213 A 2.95 2.95 0 0 0 79.798 5.432 Q 79.101 5.984 78.608 6.732 L 78.608 12.58 Z M 0 11.866 L 0.646 10.591 Q 1.086 10.964 1.755 11.21 A 5.262 5.262 0 0 0 1.76 11.212 A 4.092 4.092 0 0 0 3.053 11.456 A 4.669 4.669 0 0 0 3.196 11.458 Q 4.113 11.458 4.596 11.166 A 1.315 1.315 0 0 0 4.633 11.144 A 1.266 1.266 0 0 0 4.893 10.924 A 0.859 0.859 0 0 0 5.117 10.336 A 1.211 1.211 0 0 0 5.064 9.971 A 1.056 1.056 0 0 0 4.938 9.707 A 1.085 1.085 0 0 0 4.781 9.521 Q 4.608 9.356 4.324 9.194 A 3.794 3.794 0 0 0 4.284 9.171 Q 3.854 8.933 3.077 8.661 A 17.612 17.612 0 0 0 2.907 8.602 A 7.925 7.925 0 0 1 2.159 8.306 Q 1.462 7.985 1.046 7.591 A 1.925 1.925 0 0 1 0.486 6.571 A 2.855 2.855 0 0 1 0.425 5.967 A 2.06 2.06 0 0 1 1.096 4.434 A 2.969 2.969 0 0 1 1.318 4.242 Q 2.066 3.65 3.299 3.554 A 6.38 6.38 0 0 1 3.791 3.536 A 6.935 6.935 0 0 1 4.547 3.575 Q 4.939 3.618 5.282 3.709 A 4.294 4.294 0 0 1 5.304 3.714 A 6.591 6.591 0 0 1 6.007 3.945 A 5.289 5.289 0 0 1 6.494 4.165 L 6.069 5.423 A 4.17 4.17 0 0 0 5.445 5.123 A 5.133 5.133 0 0 0 5.023 4.981 A 4.254 4.254 0 0 0 4.261 4.837 A 5.412 5.412 0 0 0 3.723 4.811 A 3.507 3.507 0 0 0 3.224 4.844 Q 2.97 4.881 2.764 4.958 A 1.447 1.447 0 0 0 2.38 5.168 Q 2.075 5.405 1.973 5.672 A 0.77 0.77 0 0 0 1.921 5.95 A 0.837 0.837 0 0 0 2.175 6.554 A 1.204 1.204 0 0 0 2.278 6.647 Q 2.635 6.936 3.672 7.276 A 11.518 11.518 0 0 1 4.533 7.599 Q 5.351 7.946 5.82 8.335 A 2.541 2.541 0 0 1 6.018 8.517 Q 6.681 9.197 6.681 10.217 Q 6.681 11.364 5.788 12.045 A 2.825 2.825 0 0 1 5.72 12.095 Q 4.915 12.673 3.648 12.766 A 6.872 6.872 0 0 1 3.145 12.784 A 6.798 6.798 0 0 1 2.149 12.714 A 5.261 5.261 0 0 1 1.335 12.529 A 5.25 5.25 0 0 1 0.682 12.277 Q 0.345 12.118 0.076 11.923 A 3.099 3.099 0 0 1 0 11.866 Z M 47.192 11.866 L 47.838 10.591 Q 48.278 10.964 48.947 11.21 A 5.262 5.262 0 0 0 48.952 11.212 A 4.092 4.092 0 0 0 50.245 11.456 A 4.669 4.669 0 0 0 50.388 11.458 Q 51.305 11.458 51.788 11.166 A 1.315 1.315 0 0 0 51.825 11.144 A 1.266 1.266 0 0 0 52.085 10.924 A 0.859 0.859 0 0 0 52.309 10.336 A 1.211 1.211 0 0 0 52.256 9.971 A 1.056 1.056 0 0 0 52.13 9.707 A 1.085 1.085 0 0 0 51.973 9.521 Q 51.8 9.356 51.516 9.194 A 3.794 3.794 0 0 0 51.476 9.171 Q 51.046 8.933 50.269 8.661 A 17.612 17.612 0 0 0 50.099 8.602 A 7.925 7.925 0 0 1 49.351 8.306 Q 48.654 7.985 48.238 7.591 A 1.925 1.925 0 0 1 47.678 6.571 A 2.855 2.855 0 0 1 47.617 5.967 A 2.06 2.06 0 0 1 48.288 4.434 A 2.969 2.969 0 0 1 48.51 4.242 Q 49.258 3.65 50.491 3.554 A 6.38 6.38 0 0 1 50.983 3.536 A 6.935 6.935 0 0 1 51.739 3.575 Q 52.131 3.618 52.474 3.709 A 4.294 4.294 0 0 1 52.496 3.714 A 6.591 6.591 0 0 1 53.199 3.945 A 5.289 5.289 0 0 1 53.686 4.165 L 53.261 5.423 A 4.17 4.17 0 0 0 52.637 5.123 A 5.133 5.133 0 0 0 52.215 4.981 A 4.254 4.254 0 0 0 51.453 4.837 A 5.412 5.412 0 0 0 50.915 4.811 A 3.507 3.507 0 0 0 50.416 4.844 Q 50.162 4.881 49.956 4.958 A 1.447 1.447 0 0 0 49.572 5.168 Q 49.267 5.405 49.165 5.672 A 0.77 0.77 0 0 0 49.113 5.95 A 0.837 0.837 0 0 0 49.367 6.554 A 1.204 1.204 0 0 0 49.47 6.647 Q 49.827 6.936 50.864 7.276 A 11.518 11.518 0 0 1 51.725 7.599 Q 52.543 7.946 53.012 8.335 A 2.541 2.541 0 0 1 53.21 8.517 Q 53.873 9.197 53.873 10.217 Q 53.873 11.364 52.98 12.045 A 2.825 2.825 0 0 1 52.912 12.095 Q 52.107 12.673 50.84 12.766 A 6.872 6.872 0 0 1 50.337 12.784 A 6.798 6.798 0 0 1 49.341 12.714 A 5.261 5.261 0 0 1 48.527 12.529 A 5.25 5.25 0 0 1 47.874 12.277 Q 47.537 12.118 47.268 11.923 A 3.099 3.099 0 0 1 47.192 11.866 Z M 86.377 11.866 L 87.023 10.591 Q 87.463 10.964 88.132 11.21 A 5.262 5.262 0 0 0 88.137 11.212 A 4.092 4.092 0 0 0 89.43 11.456 A 4.669 4.669 0 0 0 89.573 11.458 Q 90.49 11.458 90.973 11.166 A 1.315 1.315 0 0 0 91.01 11.144 A 1.266 1.266 0 0 0 91.27 10.924 A 0.859 0.859 0 0 0 91.494 10.336 A 1.211 1.211 0 0 0 91.441 9.971 A 1.056 1.056 0 0 0 91.315 9.707 A 1.085 1.085 0 0 0 91.158 9.521 Q 90.985 9.356 90.701 9.194 A 3.794 3.794 0 0 0 90.661 9.171 Q 90.231 8.933 89.454 8.661 A 17.612 17.612 0 0 0 89.284 8.602 A 7.925 7.925 0 0 1 88.536 8.306 Q 87.839 7.985 87.423 7.591 A 1.925 1.925 0 0 1 86.863 6.571 A 2.855 2.855 0 0 1 86.802 5.967 A 2.06 2.06 0 0 1 87.473 4.434 A 2.969 2.969 0 0 1 87.695 4.242 Q 88.443 3.65 89.676 3.554 A 6.38 6.38 0 0 1 90.168 3.536 A 6.935 6.935 0 0 1 90.924 3.575 Q 91.316 3.618 91.659 3.709 A 4.294 4.294 0 0 1 91.681 3.714 A 6.591 6.591 0 0 1 92.384 3.945 A 5.289 5.289 0 0 1 92.871 4.165 L 92.446 5.423 A 4.17 4.17 0 0 0 91.822 5.123 A 5.133 5.133 0 0 0 91.4 4.981 A 4.254 4.254 0 0 0 90.638 4.837 A 5.412 5.412 0 0 0 90.1 4.811 A 3.507 3.507 0 0 0 89.601 4.844 Q 89.347 4.881 89.141 4.958 A 1.447 1.447 0 0 0 88.757 5.168 Q 88.452 5.405 88.35 5.672 A 0.77 0.77 0 0 0 88.298 5.95 A 0.837 0.837 0 0 0 88.552 6.554 A 1.204 1.204 0 0 0 88.655 6.647 Q 89.012 6.936 90.049 7.276 A 11.518 11.518 0 0 1 90.91 7.599 Q 91.728 7.946 92.197 8.335 A 2.541 2.541 0 0 1 92.395 8.517 Q 93.058 9.197 93.058 10.217 Q 93.058 11.364 92.165 12.045 A 2.825 2.825 0 0 1 92.097 12.095 Q 91.292 12.673 90.025 12.766 A 6.872 6.872 0 0 1 89.522 12.784 A 6.798 6.798 0 0 1 88.526 12.714 A 5.261 5.261 0 0 1 87.712 12.529 A 5.25 5.25 0 0 1 87.059 12.277 Q 86.722 12.118 86.453 11.923 A 3.099 3.099 0 0 1 86.377 11.866 Z M 45.866 8.789 L 39.678 8.789 A 4.095 4.095 0 0 0 39.872 9.643 Q 40.099 10.291 40.545 10.727 A 2.404 2.404 0 0 0 41.841 11.375 A 3.404 3.404 0 0 0 42.432 11.424 Q 43.197 11.424 43.809 11.263 Q 44.421 11.101 44.982 10.846 L 45.339 12.155 A 6.931 6.931 0 0 1 44.602 12.431 A 8.817 8.817 0 0 1 43.962 12.606 A 6.615 6.615 0 0 1 43.096 12.745 A 8.844 8.844 0 0 1 42.245 12.784 A 4.814 4.814 0 0 1 40.928 12.613 A 3.588 3.588 0 0 1 39.228 11.568 A 3.999 3.999 0 0 1 38.343 9.947 Q 38.171 9.352 38.128 8.644 A 8.011 8.011 0 0 1 38.114 8.16 Q 38.114 6.834 38.616 5.789 A 4.189 4.189 0 0 1 39.468 4.585 A 3.891 3.891 0 0 1 40.018 4.139 A 3.578 3.578 0 0 1 41.762 3.549 A 4.455 4.455 0 0 1 42.109 3.536 Q 43.263 3.536 44.061 3.988 A 2.926 2.926 0 0 1 44.225 4.089 Q 45.067 4.641 45.492 5.576 A 4.791 4.791 0 0 1 45.904 7.253 A 5.684 5.684 0 0 1 45.917 7.633 A 12.785 12.785 0 0 1 45.868 8.771 A 11.866 11.866 0 0 1 45.866 8.789 Z M 133.807 8.789 L 127.619 8.789 A 4.095 4.095 0 0 0 127.813 9.643 Q 128.04 10.291 128.486 10.727 A 2.404 2.404 0 0 0 129.782 11.375 A 3.404 3.404 0 0 0 130.373 11.424 Q 131.138 11.424 131.75 11.263 Q 132.362 11.101 132.923 10.846 L 133.28 12.155 A 6.931 6.931 0 0 1 132.543 12.431 A 8.817 8.817 0 0 1 131.903 12.606 A 6.615 6.615 0 0 1 131.037 12.745 A 8.844 8.844 0 0 1 130.186 12.784 A 4.814 4.814 0 0 1 128.869 12.613 A 3.588 3.588 0 0 1 127.169 11.568 A 3.999 3.999 0 0 1 126.284 9.947 Q 126.112 9.352 126.069 8.644 A 8.011 8.011 0 0 1 126.055 8.16 Q 126.055 6.834 126.557 5.789 A 4.189 4.189 0 0 1 127.409 4.585 A 3.891 3.891 0 0 1 127.959 4.139 A 3.578 3.578 0 0 1 129.703 3.549 A 4.455 4.455 0 0 1 130.05 3.536 Q 131.204 3.536 132.002 3.988 A 2.926 2.926 0 0 1 132.166 4.089 Q 133.008 4.641 133.433 5.576 A 4.791 4.791 0 0 1 133.845 7.253 A 5.684 5.684 0 0 1 133.858 7.633 A 12.785 12.785 0 0 1 133.809 8.771 A 11.866 11.866 0 0 1 133.807 8.789 Z M 109.259 12.58 L 107.661 12.58 L 104.108 4.148 L 105.502 3.57 L 108.511 10.846 L 111.52 3.57 L 112.829 4.148 L 109.259 12.58 Z M 56.253 9.537 L 56.253 5.389 L 54.723 5.389 L 54.723 4.063 L 56.287 4.063 L 56.61 1.275 L 57.783 1.275 L 57.783 4.063 L 60.231 4.063 L 60.231 5.389 L 57.783 5.389 L 57.783 9.656 A 3.665 3.665 0 0 0 57.812 10.131 Q 57.88 10.65 58.11 10.936 A 0.945 0.945 0 0 0 58.199 11.033 Q 58.616 11.424 59.194 11.424 Q 59.619 11.424 60.002 11.288 A 4.375 4.375 0 0 0 60.542 11.055 A 3.87 3.87 0 0 0 60.707 10.965 L 61.132 12.189 Q 60.792 12.393 60.214 12.589 Q 59.636 12.784 59.007 12.784 Q 58.513 12.784 58.099 12.658 A 2.367 2.367 0 0 1 56.992 11.943 A 2.74 2.74 0 0 1 56.444 10.939 Q 56.253 10.331 56.253 9.537 Z M 114.699 9.537 L 114.699 5.389 L 113.169 5.389 L 113.169 4.063 L 114.733 4.063 L 115.056 1.275 L 116.229 1.275 L 116.229 4.063 L 118.677 4.063 L 118.677 5.389 L 116.229 5.389 L 116.229 9.656 A 3.665 3.665 0 0 0 116.258 10.131 Q 116.326 10.65 116.556 10.936 A 0.945 0.945 0 0 0 116.645 11.033 Q 117.062 11.424 117.64 11.424 Q 118.065 11.424 118.447 11.288 A 4.375 4.375 0 0 0 118.988 11.055 A 3.87 3.87 0 0 0 119.153 10.965 L 119.578 12.189 Q 119.238 12.393 118.66 12.589 Q 118.082 12.784 117.453 12.784 Q 116.959 12.784 116.545 12.658 A 2.367 2.367 0 0 1 115.438 11.943 A 2.74 2.74 0 0 1 114.89 10.939 Q 114.699 10.331 114.699 9.537 Z M 242.233 4.063 L 241.774 5.355 A 5.172 5.172 0 0 0 241.28 5.138 A 3.981 3.981 0 0 0 240.864 5.007 Q 240.431 4.896 239.904 4.896 A 2.701 2.701 0 0 0 238.671 5.175 A 2.742 2.742 0 0 0 237.906 5.754 Q 237.099 6.613 237.099 8.126 A 4.283 4.283 0 0 0 237.219 9.156 A 3.647 3.647 0 0 0 237.439 9.792 A 3.156 3.156 0 0 0 237.934 10.57 A 2.767 2.767 0 0 0 238.382 10.982 A 2.289 2.289 0 0 0 239.601 11.417 A 2.874 2.874 0 0 0 239.802 11.424 A 4.831 4.831 0 0 0 240.296 11.4 Q 240.634 11.365 240.907 11.28 Q 241.364 11.136 241.889 10.865 A 8.738 8.738 0 0 0 241.893 10.863 L 242.369 12.155 A 4.851 4.851 0 0 1 241.584 12.496 A 5.829 5.829 0 0 1 241.187 12.614 Q 240.543 12.781 239.726 12.784 A 8.104 8.104 0 0 1 239.7 12.784 A 4.557 4.557 0 0 1 238.503 12.633 A 3.753 3.753 0 0 1 237.498 12.198 Q 236.555 11.611 236.045 10.566 A 4.992 4.992 0 0 1 235.597 9.068 A 6.464 6.464 0 0 1 235.535 8.16 A 5.446 5.446 0 0 1 235.758 6.582 A 4.896 4.896 0 0 1 236.054 5.831 Q 236.572 4.777 237.541 4.156 A 3.921 3.921 0 0 1 239.185 3.575 A 5.033 5.033 0 0 1 239.819 3.536 A 7.023 7.023 0 0 1 240.439 3.562 Q 240.757 3.59 241.035 3.649 A 4.076 4.076 0 0 1 241.137 3.672 Q 241.706 3.808 242.233 4.063 Z M 250.087 4.063 L 249.628 5.355 A 5.172 5.172 0 0 0 249.134 5.138 A 3.981 3.981 0 0 0 248.718 5.007 Q 248.285 4.896 247.758 4.896 A 2.701 2.701 0 0 0 246.525 5.175 A 2.742 2.742 0 0 0 245.76 5.754 Q 244.953 6.613 244.953 8.126 A 4.283 4.283 0 0 0 245.073 9.156 A 3.647 3.647 0 0 0 245.293 9.792 A 3.156 3.156 0 0 0 245.788 10.57 A 2.767 2.767 0 0 0 246.236 10.982 A 2.289 2.289 0 0 0 247.455 11.417 A 2.874 2.874 0 0 0 247.656 11.424 A 4.831 4.831 0 0 0 248.15 11.4 Q 248.488 11.365 248.761 11.28 Q 249.218 11.136 249.743 10.865 A 8.738 8.738 0 0 0 249.747 10.863 L 250.223 12.155 A 4.851 4.851 0 0 1 249.438 12.496 A 5.829 5.829 0 0 1 249.041 12.614 Q 248.397 12.781 247.58 12.784 A 8.104 8.104 0 0 1 247.554 12.784 A 4.557 4.557 0 0 1 246.357 12.633 A 3.753 3.753 0 0 1 245.352 12.198 Q 244.409 11.611 243.899 10.566 A 4.992 4.992 0 0 1 243.451 9.068 A 6.464 6.464 0 0 1 243.389 8.16 A 5.446 5.446 0 0 1 243.612 6.582 A 4.896 4.896 0 0 1 243.908 5.831 Q 244.426 4.777 245.395 4.156 A 3.921 3.921 0 0 1 247.039 3.575 A 5.033 5.033 0 0 1 247.673 3.536 A 7.023 7.023 0 0 1 248.293 3.562 Q 248.611 3.59 248.889 3.649 A 4.076 4.076 0 0 1 248.991 3.672 Q 249.56 3.808 250.087 4.063 Z M 179.809 4.454 L 179.809 3.74 L 181.203 3.74 L 181.203 10.438 Q 181.203 10.972 181.418 11.198 A 0.504 0.504 0 0 0 181.518 11.279 Q 181.832 11.475 182.206 11.475 L 181.883 12.665 Q 180.251 12.665 179.911 11.339 Q 179.52 11.883 178.849 12.334 Q 178.177 12.784 177.14 12.784 Q 176.035 12.784 175.134 12.223 A 3.901 3.901 0 0 1 173.874 10.943 A 4.747 4.747 0 0 1 173.697 10.634 Q 173.162 9.605 173.162 8.211 A 5.634 5.634 0 0 1 173.331 6.805 A 4.755 4.755 0 0 1 173.698 5.831 Q 174.233 4.777 175.177 4.156 Q 176.12 3.536 177.344 3.536 Q 178.109 3.536 178.73 3.8 Q 179.35 4.063 179.809 4.454 Z M 216.886 4.454 L 216.886 3.74 L 218.28 3.74 L 218.28 10.438 Q 218.28 10.972 218.495 11.198 A 0.504 0.504 0 0 0 218.595 11.279 Q 218.909 11.475 219.283 11.475 L 218.96 12.665 Q 217.328 12.665 216.988 11.339 Q 216.597 11.883 215.926 12.334 Q 215.254 12.784 214.217 12.784 Q 213.112 12.784 212.211 12.223 A 3.901 3.901 0 0 1 210.951 10.943 A 4.747 4.747 0 0 1 210.774 10.634 Q 210.239 9.605 210.239 8.211 A 5.634 5.634 0 0 1 210.408 6.805 A 4.755 4.755 0 0 1 210.775 5.831 Q 211.31 4.777 212.254 4.156 Q 213.197 3.536 214.421 3.536 Q 215.186 3.536 215.807 3.8 Q 216.427 4.063 216.886 4.454 Z M 120.938 9.809 L 120.938 0 L 122.468 0 L 122.468 9.656 Q 122.468 10.574 122.851 11.016 A 1.252 1.252 0 0 0 123.63 11.437 A 1.823 1.823 0 0 0 123.913 11.458 Q 124.236 11.458 124.551 11.381 A 3.773 3.773 0 0 0 124.799 11.312 Q 124.918 11.275 125.02 11.232 A 2.03 2.03 0 0 0 125.086 11.203 L 125.46 12.444 A 3.086 3.086 0 0 1 125.188 12.549 Q 125.052 12.594 124.897 12.635 A 5.946 5.946 0 0 1 124.704 12.682 Q 124.253 12.784 123.709 12.784 A 3.547 3.547 0 0 1 122.878 12.69 A 2.983 2.983 0 0 1 122.298 12.486 A 2.156 2.156 0 0 1 121.393 11.676 A 2.696 2.696 0 0 1 121.304 11.526 A 2.678 2.678 0 0 1 121.054 10.871 Q 120.978 10.563 120.952 10.202 A 5.458 5.458 0 0 1 120.938 9.809 Z M 225.488 9.809 L 225.488 0 L 227.018 0 L 227.018 9.656 Q 227.018 10.574 227.401 11.016 A 1.252 1.252 0 0 0 228.18 11.437 A 1.823 1.823 0 0 0 228.463 11.458 Q 228.786 11.458 229.1 11.381 A 3.773 3.773 0 0 0 229.349 11.312 Q 229.468 11.275 229.57 11.232 A 2.03 2.03 0 0 0 229.636 11.203 L 230.01 12.444 A 3.086 3.086 0 0 1 229.738 12.549 Q 229.602 12.594 229.447 12.635 A 5.946 5.946 0 0 1 229.254 12.682 Q 228.803 12.784 228.259 12.784 A 3.547 3.547 0 0 1 227.428 12.69 A 2.983 2.983 0 0 1 226.848 12.486 A 2.156 2.156 0 0 1 225.943 11.676 A 2.696 2.696 0 0 1 225.854 11.526 A 2.678 2.678 0 0 1 225.604 10.871 Q 225.528 10.563 225.502 10.202 A 5.458 5.458 0 0 1 225.488 9.809 Z M 190.026 12.58 L 188.496 12.58 L 188.496 3.74 L 189.975 3.74 L 189.975 5.661 Q 190.196 5.1 190.57 4.616 Q 190.944 4.131 191.505 3.833 Q 192.066 3.536 192.814 3.536 Q 193.069 3.536 193.324 3.561 A 3.225 3.225 0 0 1 193.503 3.584 Q 193.588 3.598 193.661 3.615 A 1.499 1.499 0 0 1 193.749 3.638 L 193.29 5.219 A 1.66 1.66 0 0 0 192.925 5.115 Q 192.757 5.086 192.565 5.083 A 2.821 2.821 0 0 0 192.525 5.083 Q 191.896 5.083 191.326 5.44 A 2.278 2.278 0 0 0 190.736 5.983 Q 190.549 6.226 190.396 6.535 A 3.929 3.929 0 0 0 190.391 6.545 A 3.285 3.285 0 0 0 190.142 7.278 Q 190.063 7.632 190.038 8.046 A 6.645 6.645 0 0 0 190.026 8.449 L 190.026 12.58 Z M 69.166 12.556 A 4.626 4.626 0 0 0 70.635 12.784 A 5.223 5.223 0 0 0 71.022 12.77 A 4.294 4.294 0 0 0 72.888 12.206 Q 73.882 11.628 74.46 10.583 A 4.463 4.463 0 0 0 74.911 9.369 A 5.811 5.811 0 0 0 75.038 8.126 A 5.872 5.872 0 0 0 74.956 7.122 A 4.385 4.385 0 0 0 74.451 5.686 Q 73.865 4.658 72.871 4.097 A 4.224 4.224 0 0 0 72.081 3.752 A 4.715 4.715 0 0 0 70.635 3.536 A 5.325 5.325 0 0 0 70.366 3.543 A 4.449 4.449 0 0 0 68.391 4.097 Q 67.388 4.658 66.81 5.695 A 4.424 4.424 0 0 0 66.343 6.985 A 5.951 5.951 0 0 0 66.232 8.16 A 5.919 5.919 0 0 0 66.277 8.9 A 4.667 4.667 0 0 0 66.802 10.566 Q 67.371 11.611 68.374 12.198 A 4.175 4.175 0 0 0 69.166 12.556 Z M 64.192 12.58 L 62.662 12.58 L 62.662 3.74 L 64.192 3.74 L 64.192 12.58 Z M 185.776 12.58 L 184.246 12.58 L 184.246 3.74 L 185.776 3.74 L 185.776 12.58 Z M 222.853 12.58 L 221.323 12.58 L 221.323 3.74 L 222.853 3.74 L 222.853 12.58 Z M 70.635 11.424 A 3.186 3.186 0 0 0 71.523 11.307 A 2.38 2.38 0 0 0 72.726 10.515 Q 73.474 9.605 73.474 8.16 A 3.634 3.634 0 0 0 73.266 6.921 A 3.402 3.402 0 0 0 73.1 6.537 A 3.264 3.264 0 0 0 72.391 5.59 A 3.089 3.089 0 0 0 72.088 5.347 Q 71.451 4.896 70.635 4.896 A 3.272 3.272 0 0 0 69.747 5.01 A 2.386 2.386 0 0 0 68.544 5.78 A 3.039 3.039 0 0 0 67.919 7.034 Q 67.796 7.532 67.796 8.126 Q 67.796 9.01 68.17 9.767 Q 68.544 10.523 69.182 10.974 Q 69.819 11.424 70.635 11.424 Z M 179.673 10.319 L 179.673 5.576 Q 179.214 5.253 178.662 5.057 Q 178.109 4.862 177.497 4.862 A 2.707 2.707 0 0 0 176.652 4.99 A 2.384 2.384 0 0 0 176.061 5.279 A 2.771 2.771 0 0 0 175.207 6.201 A 3.394 3.394 0 0 0 175.083 6.435 A 3.513 3.513 0 0 0 174.785 7.4 A 4.705 4.705 0 0 0 174.726 8.16 A 4.346 4.346 0 0 0 174.815 9.059 A 3.458 3.458 0 0 0 175.083 9.851 A 2.992 2.992 0 0 0 175.611 10.624 A 2.668 2.668 0 0 0 176.069 11.008 Q 176.698 11.424 177.48 11.424 Q 178.126 11.424 178.704 11.11 A 3.307 3.307 0 0 0 179.506 10.506 A 3.072 3.072 0 0 0 179.673 10.319 Z M 216.75 10.319 L 216.75 5.576 Q 216.291 5.253 215.739 5.057 Q 215.186 4.862 214.574 4.862 A 2.707 2.707 0 0 0 213.729 4.99 A 2.384 2.384 0 0 0 213.138 5.279 A 2.771 2.771 0 0 0 212.284 6.201 A 3.394 3.394 0 0 0 212.16 6.435 A 3.513 3.513 0 0 0 211.862 7.4 A 4.705 4.705 0 0 0 211.803 8.16 A 4.346 4.346 0 0 0 211.892 9.059 A 3.458 3.458 0 0 0 212.16 9.851 A 2.992 2.992 0 0 0 212.688 10.624 A 2.668 2.668 0 0 0 213.146 11.008 Q 213.775 11.424 214.557 11.424 Q 215.203 11.424 215.781 11.11 A 3.307 3.307 0 0 0 216.583 10.506 A 3.072 3.072 0 0 0 216.75 10.319 Z M 24.599 10.2 L 24.599 5.576 Q 24.231 5.308 23.714 5.09 A 6.145 6.145 0 0 0 23.698 5.083 A 2.762 2.762 0 0 0 23.051 4.904 A 3.763 3.763 0 0 0 22.474 4.862 Q 21.777 4.862 21.165 5.236 A 2.675 2.675 0 0 0 20.349 6.023 A 3.335 3.335 0 0 0 20.17 6.315 Q 19.81 6.98 19.789 7.923 A 5.295 5.295 0 0 0 19.788 8.041 A 4.134 4.134 0 0 0 19.869 8.88 A 3.113 3.113 0 0 0 20.17 9.724 Q 20.553 10.438 21.165 10.829 Q 21.777 11.22 22.491 11.22 Q 23.171 11.22 23.715 10.914 A 3.545 3.545 0 0 0 24.222 10.571 A 2.773 2.773 0 0 0 24.599 10.2 Z M 34.544 10.2 L 34.544 5.576 Q 34.176 5.308 33.659 5.09 A 6.145 6.145 0 0 0 33.643 5.083 A 2.762 2.762 0 0 0 32.996 4.904 A 3.763 3.763 0 0 0 32.419 4.862 Q 31.722 4.862 31.11 5.236 A 2.675 2.675 0 0 0 30.294 6.023 A 3.335 3.335 0 0 0 30.115 6.315 Q 29.755 6.98 29.734 7.923 A 5.295 5.295 0 0 0 29.733 8.041 A 4.134 4.134 0 0 0 29.814 8.88 A 3.113 3.113 0 0 0 30.115 9.724 Q 30.498 10.438 31.11 10.829 Q 31.722 11.22 32.436 11.22 Q 33.116 11.22 33.66 10.914 A 3.545 3.545 0 0 0 34.167 10.571 A 2.773 2.773 0 0 0 34.544 10.2 Z M 141.678 10.2 L 141.678 5.576 Q 141.31 5.308 140.793 5.09 A 6.145 6.145 0 0 0 140.777 5.083 A 2.762 2.762 0 0 0 140.13 4.904 A 3.763 3.763 0 0 0 139.553 4.862 Q 138.856 4.862 138.244 5.236 A 2.675 2.675 0 0 0 137.428 6.023 A 3.335 3.335 0 0 0 137.249 6.315 Q 136.889 6.98 136.868 7.923 A 5.295 5.295 0 0 0 136.867 8.041 A 4.134 4.134 0 0 0 136.948 8.88 A 3.113 3.113 0 0 0 137.249 9.724 Q 137.632 10.438 138.244 10.829 Q 138.856 11.22 139.57 11.22 Q 140.25 11.22 140.794 10.914 A 3.545 3.545 0 0 0 141.301 10.571 A 2.773 2.773 0 0 0 141.678 10.2 Z M 165.138 10.166 L 165.546 6.8 Q 165.223 6.256 164.671 5.916 A 2.306 2.306 0 0 0 163.55 5.579 A 2.778 2.778 0 0 0 163.421 5.576 A 2.271 2.271 0 0 0 162.194 5.939 A 2.748 2.748 0 0 0 162.137 5.976 Q 161.534 6.375 161.169 7.081 A 3.219 3.219 0 0 0 160.85 8.079 A 4.217 4.217 0 0 0 160.803 8.721 Q 160.803 9.602 161.104 10.187 A 1.944 1.944 0 0 0 161.449 10.668 Q 162.095 11.322 163.013 11.322 Q 163.676 11.322 164.246 10.957 Q 164.775 10.617 165.091 10.225 A 2.504 2.504 0 0 0 165.138 10.166 Z M 39.661 7.548 L 44.506 7.548 A 4.14 4.14 0 0 0 44.437 6.768 Q 44.353 6.329 44.165 5.985 A 2.112 2.112 0 0 0 43.86 5.559 Q 43.214 4.862 42.075 4.862 A 2.309 2.309 0 0 0 41.206 5.021 A 2.129 2.129 0 0 0 40.443 5.55 A 2.578 2.578 0 0 0 39.943 6.348 Q 39.732 6.863 39.661 7.548 Z M 127.602 7.548 L 132.447 7.548 A 4.14 4.14 0 0 0 132.378 6.768 Q 132.294 6.329 132.106 5.985 A 2.112 2.112 0 0 0 131.801 5.559 Q 131.155 4.862 130.016 4.862 A 2.309 2.309 0 0 0 129.147 5.021 A 2.129 2.129 0 0 0 128.384 5.55 A 2.578 2.578 0 0 0 127.884 6.348 Q 127.673 6.863 127.602 7.548 Z M 95.5 5.485 A 1.091 1.091 0 0 0 96.288 5.814 A 1.463 1.463 0 0 0 96.394 5.81 A 1.098 1.098 0 0 0 97.104 5.499 A 1.025 1.025 0 0 0 97.375 5.054 A 1.308 1.308 0 0 0 97.427 4.675 A 1.058 1.058 0 0 0 97.329 4.221 A 1.182 1.182 0 0 0 97.078 3.876 A 1.441 1.441 0 0 0 96.99 3.796 A 1.075 1.075 0 0 0 96.288 3.536 A 1.498 1.498 0 0 0 95.973 3.567 A 1.016 1.016 0 0 0 95.455 3.842 A 1.008 1.008 0 0 0 95.189 4.325 A 1.466 1.466 0 0 0 95.149 4.675 A 1.085 1.085 0 0 0 95.234 5.104 A 1.171 1.171 0 0 0 95.489 5.474 A 1.415 1.415 0 0 0 95.5 5.485 Z M 95.5 12.455 A 1.091 1.091 0 0 0 96.288 12.784 A 1.463 1.463 0 0 0 96.394 12.78 A 1.098 1.098 0 0 0 97.104 12.469 A 1.025 1.025 0 0 0 97.375 12.024 A 1.308 1.308 0 0 0 97.427 11.645 A 1.058 1.058 0 0 0 97.329 11.191 A 1.182 1.182 0 0 0 97.078 10.846 A 1.441 1.441 0 0 0 96.99 10.766 A 1.075 1.075 0 0 0 96.288 10.506 A 1.498 1.498 0 0 0 95.973 10.537 A 1.016 1.016 0 0 0 95.455 10.812 A 1.008 1.008 0 0 0 95.189 11.295 A 1.466 1.466 0 0 0 95.149 11.645 A 1.085 1.085 0 0 0 95.234 12.074 A 1.171 1.171 0 0 0 95.489 12.444 A 1.415 1.415 0 0 0 95.5 12.455 Z M 231.857 12.455 A 1.091 1.091 0 0 0 232.645 12.784 A 1.463 1.463 0 0 0 232.751 12.78 A 1.098 1.098 0 0 0 233.461 12.469 A 1.025 1.025 0 0 0 233.732 12.024 A 1.308 1.308 0 0 0 233.784 11.645 A 1.058 1.058 0 0 0 233.686 11.191 A 1.182 1.182 0 0 0 233.435 10.846 A 1.441 1.441 0 0 0 233.347 10.766 A 1.075 1.075 0 0 0 232.645 10.506 A 1.498 1.498 0 0 0 232.33 10.537 A 1.016 1.016 0 0 0 231.812 10.812 A 1.008 1.008 0 0 0 231.546 11.295 A 1.466 1.466 0 0 0 231.506 11.645 A 1.085 1.085 0 0 0 231.591 12.074 A 1.171 1.171 0 0 0 231.846 12.444 A 1.415 1.415 0 0 0 231.857 12.455 Z M 63.427 2.227 Q 62.985 2.227 62.671 1.904 A 1.129 1.129 0 0 1 62.44 1.567 A 1.019 1.019 0 0 1 62.356 1.156 A 1.358 1.358 0 0 1 62.395 0.821 A 0.95 0.95 0 0 1 62.645 0.374 A 0.962 0.962 0 0 1 63.146 0.112 A 1.405 1.405 0 0 1 63.427 0.085 A 1.03 1.03 0 0 1 64.174 0.39 A 1.256 1.256 0 0 1 64.184 0.399 Q 64.498 0.714 64.498 1.156 A 1.277 1.277 0 0 1 64.451 1.51 A 0.982 0.982 0 0 1 64.209 1.93 A 0.96 0.96 0 0 1 63.681 2.205 A 1.39 1.39 0 0 1 63.427 2.227 Z M 185.011 2.227 Q 184.569 2.227 184.255 1.904 A 1.129 1.129 0 0 1 184.024 1.567 A 1.019 1.019 0 0 1 183.94 1.156 A 1.358 1.358 0 0 1 183.979 0.821 A 0.95 0.95 0 0 1 184.229 0.374 A 0.962 0.962 0 0 1 184.73 0.112 A 1.405 1.405 0 0 1 185.011 0.085 A 1.03 1.03 0 0 1 185.758 0.39 A 1.256 1.256 0 0 1 185.768 0.399 Q 186.082 0.714 186.082 1.156 A 1.277 1.277 0 0 1 186.035 1.51 A 0.982 0.982 0 0 1 185.793 1.93 A 0.96 0.96 0 0 1 185.265 2.205 A 1.39 1.39 0 0 1 185.011 2.227 Z M 222.088 2.227 Q 221.646 2.227 221.332 1.904 A 1.129 1.129 0 0 1 221.101 1.567 A 1.019 1.019 0 0 1 221.017 1.156 A 1.358 1.358 0 0 1 221.056 0.821 A 0.95 0.95 0 0 1 221.306 0.374 A 0.962 0.962 0 0 1 221.807 0.112 A 1.405 1.405 0 0 1 222.088 0.085 A 1.03 1.03 0 0 1 222.835 0.39 A 1.256 1.256 0 0 1 222.845 0.399 Q 223.159 0.714 223.159 1.156 A 1.277 1.277 0 0 1 223.112 1.51 A 0.982 0.982 0 0 1 222.87 1.93 A 0.96 0.96 0 0 1 222.342 2.205 A 1.39 1.39 0 0 1 222.088 2.227 Z" vector-effect="non-scaling-stroke"/></g></svg>
