<svg width="350.41" height="17.324" viewBox="0 0 350.41 17.324" xmlns="http://www.w3.org/2000/svg"><g id="svgGroup" stroke-linecap="round" fill-rule="evenodd" font-size="9pt" stroke="#000" stroke-width="0" fill="#000" style="stroke:#000;stroke-width:0;fill:#000"><path d="M 267.52 5.361 L 266.641 8.76 Q 266.46 9.454 266.46 9.894 A 2.09 2.09 0 0 0 266.46 9.917 Q 266.463 10.209 266.523 10.418 A 0.988 0.988 0 0 0 266.602 10.615 A 0.804 0.804 0 0 0 266.752 10.816 A 0.677 0.677 0 0 0 266.982 10.962 A 1.428 1.428 0 0 0 267.359 11.047 A 1.729 1.729 0 0 0 267.52 11.055 A 1.55 1.55 0 0 0 268.253 10.867 A 1.907 1.907 0 0 0 268.384 10.791 A 2.191 2.191 0 0 0 268.882 10.351 A 2.819 2.819 0 0 0 269.106 10.044 A 3.734 3.734 0 0 0 269.406 9.46 A 5.004 5.004 0 0 0 269.6 8.892 A 4.991 4.991 0 0 0 269.75 8.091 A 6.438 6.438 0 0 0 269.785 7.402 Q 269.785 6.104 269.37 5.127 A 4.718 4.718 0 0 0 268.691 3.986 A 4.219 4.219 0 0 0 268.228 3.501 A 4.757 4.757 0 0 0 266.692 2.589 A 5.497 5.497 0 0 0 266.509 2.524 A 6.561 6.561 0 0 0 264.897 2.215 A 7.741 7.741 0 0 0 264.365 2.197 A 5.841 5.841 0 0 0 262.007 2.676 Q 260.908 3.154 260.088 4.004 A 6.193 6.193 0 0 0 258.829 5.939 A 7.02 7.02 0 0 0 258.799 6.011 A 6.495 6.495 0 0 0 258.342 8.106 A 7.603 7.603 0 0 0 258.33 8.525 A 8.639 8.639 0 0 0 258.44 9.938 A 6.342 6.342 0 0 0 258.833 11.338 A 6.109 6.109 0 0 0 259.605 12.697 A 5.345 5.345 0 0 0 260.205 13.364 Q 261.074 14.18 262.246 14.595 A 7.343 7.343 0 0 0 264.349 15 A 8.496 8.496 0 0 0 264.766 15.01 Q 266.1 15.01 267.144 14.744 A 6.879 6.879 0 0 0 267.3 14.702 Q 268.398 14.395 269.19 13.916 Q 269.327 13.833 269.438 13.833 A 0.268 0.268 0 0 1 269.526 13.848 A 0.323 0.323 0 0 1 269.694 13.98 A 0.481 0.481 0 0 1 269.736 14.063 L 269.981 14.697 A 8.262 8.262 0 0 1 268.461 15.481 A 9.911 9.911 0 0 1 267.681 15.752 A 8.944 8.944 0 0 1 266.122 16.068 A 11.809 11.809 0 0 1 264.766 16.143 A 9.146 9.146 0 0 1 262.621 15.898 A 8.076 8.076 0 0 1 261.719 15.625 A 6.99 6.99 0 0 1 259.315 14.157 A 6.806 6.806 0 0 1 259.282 14.126 A 6.857 6.857 0 0 1 257.816 12.076 A 7.995 7.995 0 0 1 257.661 11.729 A 7.595 7.595 0 0 1 257.147 9.762 A 9.708 9.708 0 0 1 257.07 8.525 A 7.506 7.506 0 0 1 257.329 6.548 A 7.733 7.733 0 0 1 258.057 4.766 Q 258.525 3.936 259.19 3.257 Q 259.854 2.578 260.664 2.09 Q 261.475 1.602 262.412 1.333 A 7.058 7.058 0 0 1 264.365 1.064 Q 265.674 1.064 266.875 1.489 A 6.436 6.436 0 0 1 268.999 2.725 A 5.951 5.951 0 0 1 270.421 4.607 A 6.829 6.829 0 0 1 270.474 4.717 A 5.844 5.844 0 0 1 270.966 6.45 A 7.412 7.412 0 0 1 271.025 7.402 A 6.294 6.294 0 0 1 270.901 8.672 A 5.425 5.425 0 0 1 270.737 9.287 A 5.179 5.179 0 0 1 270.318 10.237 A 4.346 4.346 0 0 1 269.941 10.791 Q 269.434 11.426 268.75 11.782 A 3.162 3.162 0 0 1 267.266 12.139 A 2.435 2.435 0 0 1 266.743 12.086 Q 266.375 12.005 266.097 11.8 A 1.551 1.551 0 0 1 266.079 11.787 Q 265.615 11.436 265.479 10.703 A 4.421 4.421 0 0 1 265.021 11.242 Q 264.744 11.517 264.445 11.697 A 2.53 2.53 0 0 1 264.292 11.782 A 2.97 2.97 0 0 1 262.92 12.109 A 2.69 2.69 0 0 1 262.428 12.066 A 2.02 2.02 0 0 1 261.943 11.914 Q 261.523 11.719 261.245 11.377 A 2.175 2.175 0 0 1 260.907 10.79 A 2.642 2.642 0 0 1 260.83 10.562 A 3.522 3.522 0 0 1 260.702 9.812 A 4.165 4.165 0 0 1 260.693 9.541 A 4.456 4.456 0 0 1 260.83 8.457 A 4.674 4.674 0 0 1 261.235 7.402 A 4.606 4.606 0 0 1 261.909 6.45 A 4.327 4.327 0 0 1 262.847 5.679 A 4.616 4.616 0 0 1 263.719 5.265 A 5.428 5.428 0 0 1 264.043 5.161 A 4.908 4.908 0 0 1 264.969 4.993 A 6.061 6.061 0 0 1 265.498 4.971 Q 266.044 4.971 266.474 5.043 A 3.981 3.981 0 0 1 266.611 5.068 A 4.232 4.232 0 0 1 267.52 5.361 Z M 297.256 13.887 L 295.537 13.887 L 295.537 4.336 L 296.553 4.336 A 0.743 0.743 0 0 1 296.675 4.345 Q 296.786 4.364 296.86 4.419 A 0.299 0.299 0 0 1 296.958 4.547 Q 296.977 4.593 296.987 4.649 A 0.624 0.624 0 0 1 296.992 4.687 L 297.139 5.664 Q 297.412 5.342 297.71 5.073 A 3.887 3.887 0 0 1 298.35 4.604 Q 298.691 4.404 299.082 4.297 A 3.045 3.045 0 0 1 299.749 4.193 A 3.488 3.488 0 0 1 299.912 4.189 A 2.955 2.955 0 0 1 300.627 4.271 A 2.122 2.122 0 0 1 301.519 4.727 A 2.76 2.76 0 0 1 302.226 5.69 A 3.599 3.599 0 0 1 302.402 6.172 A 3.097 3.097 0 0 1 302.692 5.601 A 2.591 2.591 0 0 1 302.944 5.273 Q 303.281 4.902 303.691 4.658 A 3.137 3.137 0 0 1 304.57 4.302 A 4.093 4.093 0 0 1 305.527 4.189 A 4.17 4.17 0 0 1 306.518 4.3 A 2.768 2.768 0 0 1 307.944 5.127 A 3.048 3.048 0 0 1 308.598 6.307 Q 308.799 6.961 308.799 7.803 L 308.799 13.887 L 307.08 13.887 L 307.08 7.803 Q 307.08 6.689 306.572 6.118 A 1.645 1.645 0 0 0 305.692 5.608 A 2.525 2.525 0 0 0 305.117 5.547 A 2.32 2.32 0 0 0 304.366 5.667 A 2.203 2.203 0 0 0 304.307 5.688 Q 303.926 5.83 303.638 6.118 A 2.027 2.027 0 0 0 303.272 6.624 A 2.442 2.442 0 0 0 303.179 6.826 A 2.243 2.243 0 0 0 303.043 7.326 A 3.081 3.081 0 0 0 303.008 7.803 L 303.008 13.887 L 301.289 13.887 L 301.289 7.803 A 4.429 4.429 0 0 0 301.252 7.206 Q 301.156 6.504 300.815 6.104 A 1.52 1.52 0 0 0 300.002 5.613 Q 299.756 5.551 299.463 5.547 A 2.982 2.982 0 0 0 299.424 5.547 A 2.244 2.244 0 0 0 298.252 5.874 A 3.403 3.403 0 0 0 297.561 6.426 A 4.246 4.246 0 0 0 297.256 6.777 L 297.256 13.887 Z M 247.686 13.887 L 245.967 13.887 L 245.967 0 L 247.686 0 L 247.686 5.596 A 4.97 4.97 0 0 1 248.741 4.722 A 4.594 4.594 0 0 1 249.009 4.57 A 3.305 3.305 0 0 1 250.063 4.234 A 4.276 4.276 0 0 1 250.693 4.189 A 3.999 3.999 0 0 1 251.384 4.246 A 2.971 2.971 0 0 1 252.065 4.448 A 2.691 2.691 0 0 1 253.057 5.181 Q 253.457 5.654 253.657 6.323 A 4.732 4.732 0 0 1 253.829 7.215 A 5.962 5.962 0 0 1 253.857 7.803 L 253.857 13.887 L 252.139 13.887 L 252.139 7.803 A 3.82 3.82 0 0 0 252.087 7.155 Q 252.026 6.801 251.893 6.518 A 1.864 1.864 0 0 0 251.66 6.143 Q 251.182 5.547 250.195 5.547 A 2.723 2.723 0 0 0 248.838 5.898 A 4.07 4.07 0 0 0 248.007 6.523 A 4.971 4.971 0 0 0 247.686 6.865 L 247.686 13.887 Z M 21.416 13.887 L 19.697 13.887 L 19.697 4.336 L 20.723 4.336 Q 20.881 4.336 20.99 4.396 A 0.391 0.391 0 0 1 21.025 4.419 Q 21.143 4.502 21.162 4.688 L 21.309 5.703 A 5.228 5.228 0 0 1 22.532 4.692 A 4.922 4.922 0 0 1 22.686 4.604 A 3.392 3.392 0 0 1 23.873 4.226 A 4.328 4.328 0 0 1 24.443 4.189 A 3.999 3.999 0 0 1 25.134 4.246 A 2.971 2.971 0 0 1 25.815 4.448 A 2.691 2.691 0 0 1 26.807 5.181 A 3.033 3.033 0 0 1 27.281 5.962 A 3.724 3.724 0 0 1 27.412 6.323 A 4.632 4.632 0 0 1 27.588 7.215 A 5.821 5.821 0 0 1 27.617 7.803 L 27.617 13.887 L 25.898 13.887 L 25.898 7.803 Q 25.898 6.738 25.415 6.143 Q 24.954 5.574 24.034 5.548 A 3.155 3.155 0 0 0 23.945 5.547 A 2.808 2.808 0 0 0 22.578 5.894 Q 21.943 6.24 21.416 6.855 L 21.416 13.887 Z M 77.461 13.887 L 75.742 13.887 L 75.742 4.336 L 76.768 4.336 Q 76.926 4.336 77.035 4.396 A 0.391 0.391 0 0 1 77.07 4.419 Q 77.188 4.502 77.207 4.688 L 77.354 5.703 A 5.228 5.228 0 0 1 78.577 4.692 A 4.922 4.922 0 0 1 78.731 4.604 A 3.392 3.392 0 0 1 79.918 4.226 A 4.328 4.328 0 0 1 80.488 4.189 A 3.999 3.999 0 0 1 81.179 4.246 A 2.971 2.971 0 0 1 81.86 4.448 A 2.691 2.691 0 0 1 82.852 5.181 A 3.033 3.033 0 0 1 83.326 5.962 A 3.724 3.724 0 0 1 83.457 6.323 A 4.632 4.632 0 0 1 83.633 7.215 A 5.821 5.821 0 0 1 83.662 7.803 L 83.662 13.887 L 81.943 13.887 L 81.943 7.803 Q 81.943 6.738 81.46 6.143 Q 80.999 5.574 80.079 5.548 A 3.155 3.155 0 0 0 79.99 5.547 A 2.808 2.808 0 0 0 78.623 5.894 Q 77.988 6.24 77.461 6.855 L 77.461 13.887 Z M 179.766 13.887 L 178.047 13.887 L 178.047 4.336 L 179.072 4.336 Q 179.231 4.336 179.339 4.396 A 0.391 0.391 0 0 1 179.375 4.419 Q 179.492 4.502 179.512 4.688 L 179.658 5.703 A 5.228 5.228 0 0 1 180.882 4.692 A 4.922 4.922 0 0 1 181.035 4.604 A 3.392 3.392 0 0 1 182.222 4.226 A 4.328 4.328 0 0 1 182.793 4.189 A 3.999 3.999 0 0 1 183.484 4.246 A 2.971 2.971 0 0 1 184.165 4.448 A 2.691 2.691 0 0 1 185.156 5.181 A 3.033 3.033 0 0 1 185.631 5.962 A 3.724 3.724 0 0 1 185.762 6.323 A 4.632 4.632 0 0 1 185.938 7.215 A 5.821 5.821 0 0 1 185.967 7.803 L 185.967 13.887 L 184.248 13.887 L 184.248 7.803 Q 184.248 6.738 183.765 6.143 Q 183.303 5.574 182.384 5.548 A 3.155 3.155 0 0 0 182.295 5.547 A 2.808 2.808 0 0 0 180.928 5.894 Q 180.293 6.24 179.766 6.855 L 179.766 13.887 Z M 108.955 4.336 L 110.674 4.336 L 110.674 10.42 Q 110.674 11.177 110.914 11.693 A 1.834 1.834 0 0 0 111.157 12.085 Q 111.641 12.676 112.627 12.676 A 2.78 2.78 0 0 0 113.989 12.329 Q 114.619 11.982 115.156 11.377 L 115.156 4.336 L 116.875 4.336 L 116.875 13.887 L 115.84 13.887 A 0.614 0.614 0 0 1 115.707 13.873 A 0.437 0.437 0 0 1 115.547 13.804 Q 115.43 13.721 115.41 13.535 L 115.254 12.52 A 5.292 5.292 0 0 1 114.115 13.482 A 4.922 4.922 0 0 1 113.882 13.618 A 3.348 3.348 0 0 1 112.728 13.993 A 4.296 4.296 0 0 1 112.129 14.033 A 3.999 3.999 0 0 1 111.438 13.976 A 2.971 2.971 0 0 1 110.757 13.774 A 2.691 2.691 0 0 1 109.766 13.042 A 3.033 3.033 0 0 1 109.291 12.26 A 3.724 3.724 0 0 1 109.16 11.899 A 4.632 4.632 0 0 1 108.984 11.008 A 5.821 5.821 0 0 1 108.955 10.42 L 108.955 4.336 Z M 124.805 4.707 L 127.305 4.707 L 127.305 5.342 A 0.436 0.436 0 0 1 127.274 5.512 Q 127.198 5.694 126.933 5.739 A 0.895 0.895 0 0 1 126.914 5.742 L 125.898 5.889 A 3.065 3.065 0 0 1 126.199 7.141 A 3.574 3.574 0 0 1 126.201 7.256 A 3.295 3.295 0 0 1 126.119 8.004 A 2.751 2.751 0 0 1 125.942 8.525 A 2.824 2.824 0 0 1 125.225 9.492 A 3.19 3.19 0 0 1 124.366 10.024 A 3.764 3.764 0 0 1 124.136 10.112 A 3.951 3.951 0 0 1 123.19 10.313 A 4.8 4.8 0 0 1 122.754 10.332 A 4.667 4.667 0 0 1 122.046 10.28 A 3.829 3.829 0 0 1 121.602 10.186 Q 121.375 10.334 121.242 10.498 A 0.995 0.995 0 0 0 121.182 10.581 A 0.931 0.931 0 0 0 121.091 10.756 A 0.669 0.669 0 0 0 121.045 10.996 Q 121.045 11.338 121.309 11.504 A 1.459 1.459 0 0 0 121.561 11.628 Q 121.754 11.703 122.002 11.748 A 5.777 5.777 0 0 0 122.453 11.811 Q 122.701 11.836 122.979 11.846 Q 123.525 11.865 124.097 11.909 Q 124.668 11.953 125.215 12.051 A 3.371 3.371 0 0 1 125.823 12.217 A 2.815 2.815 0 0 1 126.191 12.388 A 1.91 1.91 0 0 1 126.885 13.042 A 1.575 1.575 0 0 1 127.078 13.502 Q 127.148 13.779 127.148 14.121 A 2.598 2.598 0 0 1 126.856 15.312 A 3.085 3.085 0 0 1 126.216 16.158 A 3.686 3.686 0 0 1 126.011 16.338 A 3.867 3.867 0 0 1 125.27 16.808 A 5.011 5.011 0 0 1 124.663 17.056 A 4.995 4.995 0 0 1 123.701 17.273 A 6.589 6.589 0 0 1 122.861 17.324 A 8.348 8.348 0 0 1 122.03 17.285 Q 121.621 17.244 121.265 17.16 A 4.773 4.773 0 0 1 121.104 17.119 A 4.914 4.914 0 0 1 120.497 16.913 Q 120.191 16.785 119.943 16.623 A 2.87 2.87 0 0 1 119.854 16.563 A 2.693 2.693 0 0 1 119.425 16.19 A 2.102 2.102 0 0 1 119.111 15.752 Q 118.867 15.293 118.867 14.795 Q 118.867 14.092 119.282 13.604 A 2.452 2.452 0 0 1 119.868 13.107 A 3.397 3.397 0 0 1 120.43 12.832 A 1.723 1.723 0 0 1 120.032 12.58 A 1.484 1.484 0 0 1 119.795 12.324 A 1.144 1.144 0 0 1 119.619 11.948 Q 119.561 11.733 119.561 11.465 A 1.319 1.319 0 0 1 119.634 11.042 Q 119.689 10.88 119.785 10.71 A 2.51 2.51 0 0 1 119.854 10.596 Q 120.147 10.137 120.732 9.834 A 2.964 2.964 0 0 1 119.673 8.779 Q 119.287 8.125 119.287 7.256 A 3.295 3.295 0 0 1 119.369 6.508 A 2.751 2.751 0 0 1 119.546 5.986 Q 119.805 5.42 120.264 5.015 A 3.077 3.077 0 0 1 121.126 4.482 A 3.636 3.636 0 0 1 121.357 4.395 Q 121.992 4.18 122.754 4.18 A 4.598 4.598 0 0 1 123.502 4.239 A 3.932 3.932 0 0 1 123.867 4.316 A 3.69 3.69 0 0 1 124.561 4.573 A 3.267 3.267 0 0 1 124.805 4.707 Z M 134.219 4.707 L 136.719 4.707 L 136.719 5.342 A 0.436 0.436 0 0 1 136.688 5.512 Q 136.612 5.694 136.347 5.739 A 0.895 0.895 0 0 1 136.328 5.742 L 135.313 5.889 A 3.065 3.065 0 0 1 135.613 7.141 A 3.574 3.574 0 0 1 135.615 7.256 A 3.295 3.295 0 0 1 135.533 8.004 A 2.751 2.751 0 0 1 135.356 8.525 A 2.824 2.824 0 0 1 134.639 9.492 A 3.19 3.19 0 0 1 133.78 10.024 A 3.764 3.764 0 0 1 133.55 10.112 A 3.951 3.951 0 0 1 132.604 10.313 A 4.8 4.8 0 0 1 132.168 10.332 A 4.667 4.667 0 0 1 131.46 10.28 A 3.829 3.829 0 0 1 131.016 10.186 Q 130.789 10.334 130.656 10.498 A 0.995 0.995 0 0 0 130.596 10.581 A 0.931 0.931 0 0 0 130.505 10.756 A 0.669 0.669 0 0 0 130.459 10.996 Q 130.459 11.338 130.723 11.504 A 1.459 1.459 0 0 0 130.975 11.628 Q 131.168 11.703 131.416 11.748 A 5.777 5.777 0 0 0 131.867 11.811 Q 132.115 11.836 132.393 11.846 Q 132.94 11.865 133.511 11.909 Q 134.082 11.953 134.629 12.051 A 3.371 3.371 0 0 1 135.237 12.217 A 2.815 2.815 0 0 1 135.606 12.388 A 1.91 1.91 0 0 1 136.299 13.042 A 1.575 1.575 0 0 1 136.492 13.502 Q 136.563 13.779 136.563 14.121 A 2.598 2.598 0 0 1 136.27 15.312 A 3.085 3.085 0 0 1 135.631 16.158 A 3.686 3.686 0 0 1 135.425 16.338 A 3.867 3.867 0 0 1 134.684 16.808 A 5.011 5.011 0 0 1 134.077 17.056 A 4.995 4.995 0 0 1 133.115 17.273 A 6.589 6.589 0 0 1 132.275 17.324 A 8.348 8.348 0 0 1 131.444 17.285 Q 131.035 17.244 130.679 17.16 A 4.773 4.773 0 0 1 130.518 17.119 A 4.914 4.914 0 0 1 129.911 16.913 Q 129.605 16.785 129.357 16.623 A 2.87 2.87 0 0 1 129.268 16.563 A 2.693 2.693 0 0 1 128.839 16.19 A 2.102 2.102 0 0 1 128.525 15.752 Q 128.281 15.293 128.281 14.795 Q 128.281 14.092 128.696 13.604 A 2.452 2.452 0 0 1 129.282 13.107 A 3.397 3.397 0 0 1 129.844 12.832 A 1.723 1.723 0 0 1 129.446 12.58 A 1.484 1.484 0 0 1 129.209 12.324 A 1.144 1.144 0 0 1 129.033 11.948 Q 128.975 11.733 128.975 11.465 A 1.319 1.319 0 0 1 129.048 11.042 Q 129.103 10.88 129.199 10.71 A 2.51 2.51 0 0 1 129.268 10.596 Q 129.561 10.137 130.147 9.834 A 2.964 2.964 0 0 1 129.087 8.779 Q 128.701 8.125 128.701 7.256 A 3.295 3.295 0 0 1 128.783 6.508 A 2.751 2.751 0 0 1 128.96 5.986 Q 129.219 5.42 129.678 5.015 A 3.077 3.077 0 0 1 130.54 4.482 A 3.636 3.636 0 0 1 130.772 4.395 Q 131.406 4.18 132.168 4.18 A 4.598 4.598 0 0 1 132.916 4.239 A 3.932 3.932 0 0 1 133.281 4.316 A 3.69 3.69 0 0 1 133.975 4.573 A 3.267 3.267 0 0 1 134.219 4.707 Z M 241.719 4.707 L 244.219 4.707 L 244.219 5.342 A 0.436 0.436 0 0 1 244.188 5.512 Q 244.112 5.694 243.847 5.739 A 0.895 0.895 0 0 1 243.828 5.742 L 242.813 5.889 A 3.065 3.065 0 0 1 243.113 7.141 A 3.574 3.574 0 0 1 243.115 7.256 A 3.295 3.295 0 0 1 243.033 8.004 A 2.751 2.751 0 0 1 242.856 8.525 A 2.824 2.824 0 0 1 242.139 9.492 A 3.19 3.19 0 0 1 241.28 10.024 A 3.764 3.764 0 0 1 241.05 10.112 A 3.951 3.951 0 0 1 240.104 10.313 A 4.8 4.8 0 0 1 239.668 10.332 A 4.667 4.667 0 0 1 238.96 10.28 A 3.829 3.829 0 0 1 238.516 10.186 Q 238.289 10.334 238.156 10.498 A 0.995 0.995 0 0 0 238.096 10.581 A 0.931 0.931 0 0 0 238.005 10.756 A 0.669 0.669 0 0 0 237.959 10.996 Q 237.959 11.338 238.223 11.504 A 1.459 1.459 0 0 0 238.475 11.628 Q 238.668 11.703 238.916 11.748 A 5.777 5.777 0 0 0 239.367 11.811 Q 239.615 11.836 239.893 11.846 Q 240.44 11.865 241.011 11.909 Q 241.582 11.953 242.129 12.051 A 3.371 3.371 0 0 1 242.737 12.217 A 2.815 2.815 0 0 1 243.106 12.388 A 1.91 1.91 0 0 1 243.799 13.042 A 1.575 1.575 0 0 1 243.992 13.502 Q 244.063 13.779 244.063 14.121 A 2.598 2.598 0 0 1 243.77 15.312 A 3.085 3.085 0 0 1 243.131 16.158 A 3.686 3.686 0 0 1 242.925 16.338 A 3.867 3.867 0 0 1 242.184 16.808 A 5.011 5.011 0 0 1 241.577 17.056 A 4.995 4.995 0 0 1 240.615 17.273 A 6.589 6.589 0 0 1 239.775 17.324 A 8.348 8.348 0 0 1 238.944 17.285 Q 238.535 17.244 238.179 17.16 A 4.773 4.773 0 0 1 238.018 17.119 A 4.914 4.914 0 0 1 237.411 16.913 Q 237.105 16.785 236.857 16.623 A 2.87 2.87 0 0 1 236.768 16.563 A 2.693 2.693 0 0 1 236.339 16.19 A 2.102 2.102 0 0 1 236.025 15.752 Q 235.781 15.293 235.781 14.795 Q 235.781 14.092 236.196 13.604 A 2.452 2.452 0 0 1 236.782 13.107 A 3.397 3.397 0 0 1 237.344 12.832 A 1.723 1.723 0 0 1 236.946 12.58 A 1.484 1.484 0 0 1 236.709 12.324 A 1.144 1.144 0 0 1 236.533 11.948 Q 236.475 11.733 236.475 11.465 A 1.319 1.319 0 0 1 236.548 11.042 Q 236.603 10.88 236.699 10.71 A 2.51 2.51 0 0 1 236.768 10.596 Q 237.061 10.137 237.647 9.834 A 2.964 2.964 0 0 1 236.587 8.779 Q 236.201 8.125 236.201 7.256 A 3.295 3.295 0 0 1 236.283 6.508 A 2.751 2.751 0 0 1 236.46 5.986 Q 236.719 5.42 237.178 5.015 A 3.077 3.077 0 0 1 238.04 4.482 A 3.636 3.636 0 0 1 238.272 4.395 Q 238.906 4.18 239.668 4.18 A 4.598 4.598 0 0 1 240.416 4.239 A 3.932 3.932 0 0 1 240.781 4.316 A 3.69 3.69 0 0 1 241.475 4.573 A 3.267 3.267 0 0 1 241.719 4.707 Z M 93.984 13.887 L 92.959 13.887 Q 92.801 13.887 92.692 13.826 A 0.391 0.391 0 0 1 92.656 13.804 Q 92.539 13.721 92.52 13.535 L 92.344 12.393 A 5.207 5.207 0 0 1 91.204 13.427 A 4.861 4.861 0 0 1 90.967 13.574 Q 90.195 14.023 89.18 14.023 A 3.582 3.582 0 0 1 88.271 13.912 A 3.092 3.092 0 0 1 87.71 13.706 A 3.085 3.085 0 0 1 86.612 12.812 A 3.578 3.578 0 0 1 86.582 12.773 A 3.897 3.897 0 0 1 86.134 12.011 A 5.335 5.335 0 0 1 85.859 11.245 A 6.635 6.635 0 0 1 85.669 10.262 Q 85.613 9.802 85.607 9.288 A 10.941 10.941 0 0 1 85.606 9.141 A 7.055 7.055 0 0 1 85.734 7.772 A 6.117 6.117 0 0 1 85.884 7.173 A 5.093 5.093 0 0 1 86.302 6.176 A 4.281 4.281 0 0 1 86.69 5.596 A 3.805 3.805 0 0 1 87.974 4.551 A 3.574 3.574 0 0 1 89.193 4.197 A 4.442 4.442 0 0 1 89.688 4.17 Q 90.557 4.17 91.172 4.458 A 3.362 3.362 0 0 1 92.236 5.25 A 3.841 3.841 0 0 1 92.266 5.283 L 92.266 0 L 93.984 0 L 93.984 13.887 Z M 145.889 9.121 L 139.502 9.121 A 6.524 6.524 0 0 0 139.558 9.863 Q 139.62 10.312 139.746 10.688 A 3.608 3.608 0 0 0 140.004 11.283 A 2.745 2.745 0 0 0 140.366 11.797 A 2.512 2.512 0 0 0 141.309 12.456 A 3.045 3.045 0 0 0 142.116 12.654 A 3.792 3.792 0 0 0 142.529 12.676 A 4.658 4.658 0 0 0 143.027 12.651 Q 143.348 12.616 143.613 12.534 Q 144.024 12.408 144.329 12.253 A 3.111 3.111 0 0 0 144.399 12.217 Q 144.65 12.082 144.84 11.968 A 6.266 6.266 0 0 0 144.951 11.899 A 1.279 1.279 0 0 1 145.083 11.826 Q 145.226 11.758 145.342 11.758 A 0.441 0.441 0 0 1 145.433 11.767 A 0.33 0.33 0 0 1 145.527 11.802 A 0.431 0.431 0 0 1 145.645 11.9 A 0.509 0.509 0 0 1 145.664 11.924 L 146.152 12.549 A 3.352 3.352 0 0 1 145.396 13.208 A 4.685 4.685 0 0 1 144.463 13.667 A 5.773 5.773 0 0 1 143.433 13.936 Q 142.9 14.023 142.383 14.023 A 5.223 5.223 0 0 1 141.15 13.882 A 4.553 4.553 0 0 1 140.547 13.691 A 3.965 3.965 0 0 1 139.097 12.71 A 4.29 4.29 0 0 1 138.371 11.647 A 5.312 5.312 0 0 1 138.145 11.108 A 5.612 5.612 0 0 1 137.878 10.015 A 7.667 7.667 0 0 1 137.803 8.916 A 5.706 5.706 0 0 1 137.962 7.552 A 5.111 5.111 0 0 1 138.11 7.056 A 4.463 4.463 0 0 1 138.824 5.757 A 4.213 4.213 0 0 1 138.999 5.552 A 4.068 4.068 0 0 1 140.414 4.551 A 4.382 4.382 0 0 1 141.647 4.227 A 5.509 5.509 0 0 1 142.295 4.189 A 4.575 4.575 0 0 1 143.411 4.322 A 4.046 4.046 0 0 1 143.887 4.473 A 3.553 3.553 0 0 1 145.156 5.303 A 3.708 3.708 0 0 1 145.852 6.306 A 4.442 4.442 0 0 1 145.996 6.641 A 4.464 4.464 0 0 1 146.241 7.605 A 6.001 6.001 0 0 1 146.299 8.457 A 2.902 2.902 0 0 1 146.295 8.619 Q 146.281 8.869 146.22 8.975 A 0.246 0.246 0 0 1 146.211 8.989 A 0.268 0.268 0 0 1 146.081 9.09 Q 146.002 9.121 145.889 9.121 Z M 234.023 9.121 L 227.637 9.121 A 6.524 6.524 0 0 0 227.693 9.863 Q 227.755 10.312 227.881 10.688 A 3.608 3.608 0 0 0 228.139 11.283 A 2.745 2.745 0 0 0 228.501 11.797 A 2.512 2.512 0 0 0 229.443 12.456 A 3.045 3.045 0 0 0 230.25 12.654 A 3.792 3.792 0 0 0 230.664 12.676 A 4.658 4.658 0 0 0 231.162 12.651 Q 231.483 12.616 231.748 12.534 Q 232.159 12.408 232.464 12.253 A 3.111 3.111 0 0 0 232.534 12.217 Q 232.785 12.082 232.975 11.968 A 6.266 6.266 0 0 0 233.086 11.899 A 1.279 1.279 0 0 1 233.217 11.826 Q 233.361 11.758 233.477 11.758 A 0.441 0.441 0 0 1 233.568 11.767 A 0.33 0.33 0 0 1 233.662 11.802 A 0.431 0.431 0 0 1 233.78 11.9 A 0.509 0.509 0 0 1 233.799 11.924 L 234.287 12.549 A 3.352 3.352 0 0 1 233.53 13.208 A 4.685 4.685 0 0 1 232.598 13.667 A 5.773 5.773 0 0 1 231.567 13.936 Q 231.035 14.023 230.518 14.023 A 5.223 5.223 0 0 1 229.285 13.882 A 4.553 4.553 0 0 1 228.682 13.691 A 3.965 3.965 0 0 1 227.231 12.71 A 4.29 4.29 0 0 1 226.506 11.647 A 5.312 5.312 0 0 1 226.279 11.108 A 5.612 5.612 0 0 1 226.013 10.015 A 7.667 7.667 0 0 1 225.938 8.916 A 5.706 5.706 0 0 1 226.096 7.552 A 5.111 5.111 0 0 1 226.245 7.056 A 4.463 4.463 0 0 1 226.959 5.757 A 4.213 4.213 0 0 1 227.134 5.552 A 4.068 4.068 0 0 1 228.549 4.551 A 4.382 4.382 0 0 1 229.782 4.227 A 5.509 5.509 0 0 1 230.43 4.189 A 4.575 4.575 0 0 1 231.545 4.322 A 4.046 4.046 0 0 1 232.022 4.473 A 3.553 3.553 0 0 1 233.291 5.303 A 3.708 3.708 0 0 1 233.987 6.306 A 4.442 4.442 0 0 1 234.131 6.641 A 4.464 4.464 0 0 1 234.376 7.605 A 6.001 6.001 0 0 1 234.434 8.457 A 2.902 2.902 0 0 1 234.429 8.619 Q 234.415 8.869 234.354 8.975 A 0.246 0.246 0 0 1 234.346 8.989 A 0.268 0.268 0 0 1 234.216 9.09 Q 234.137 9.121 234.023 9.121 Z M 106.924 5.303 L 106.543 5.918 A 0.454 0.454 0 0 1 106.449 6.04 Q 106.353 6.126 106.213 6.132 A 0.494 0.494 0 0 1 106.191 6.133 A 0.468 0.468 0 0 1 106.05 6.11 Q 105.966 6.083 105.874 6.025 A 4.059 4.059 0 0 0 105.736 5.943 Q 105.652 5.894 105.555 5.843 A 7.43 7.43 0 0 0 105.464 5.796 Q 105.256 5.69 104.983 5.595 A 5.479 5.479 0 0 0 104.898 5.566 Q 104.614 5.473 104.238 5.461 A 3.559 3.559 0 0 0 104.121 5.459 A 2.317 2.317 0 0 0 103.749 5.488 A 1.789 1.789 0 0 0 103.438 5.566 A 1.737 1.737 0 0 0 103.113 5.719 A 1.447 1.447 0 0 0 102.92 5.859 A 1.302 1.302 0 0 0 102.588 6.294 A 1.234 1.234 0 0 0 102.471 6.826 A 1.162 1.162 0 0 0 102.503 7.107 A 0.86 0.86 0 0 0 102.666 7.441 A 1.537 1.537 0 0 0 102.96 7.72 A 1.986 1.986 0 0 0 103.184 7.861 A 4.2 4.2 0 0 0 103.57 8.046 A 5.487 5.487 0 0 0 103.921 8.179 A 3727.12 3727.12 0 0 0 104.766 8.467 A 8.186 8.186 0 0 1 105.61 8.809 A 3.172 3.172 0 0 1 106.245 9.201 A 2.914 2.914 0 0 1 106.348 9.287 Q 106.67 9.57 106.865 9.976 Q 107.045 10.349 107.059 10.868 A 3.284 3.284 0 0 1 107.061 10.957 Q 107.061 11.621 106.836 12.183 Q 106.611 12.744 106.177 13.154 A 2.903 2.903 0 0 1 105.482 13.635 A 3.611 3.611 0 0 1 105.103 13.799 A 3.732 3.732 0 0 1 104.334 13.987 A 5.06 5.06 0 0 1 103.633 14.033 A 4.823 4.823 0 0 1 102.581 13.923 A 4.045 4.045 0 0 1 101.909 13.711 A 4.509 4.509 0 0 1 101.072 13.259 A 3.783 3.783 0 0 1 100.596 12.871 L 100.996 12.227 Q 101.074 12.1 101.182 12.031 Q 101.279 11.969 101.425 11.963 A 0.769 0.769 0 0 1 101.455 11.963 Q 101.631 11.963 101.807 12.095 Q 101.941 12.196 102.119 12.314 A 10.549 10.549 0 0 0 102.231 12.388 A 2.605 2.605 0 0 0 102.497 12.537 Q 102.632 12.603 102.787 12.664 A 4.343 4.343 0 0 0 102.832 12.681 Q 103.105 12.783 103.485 12.806 A 3.77 3.77 0 0 0 103.711 12.813 A 2.672 2.672 0 0 0 104.074 12.789 Q 104.301 12.758 104.487 12.686 A 1.787 1.787 0 0 0 104.795 12.533 A 1.409 1.409 0 0 0 105.029 12.349 Q 105.244 12.139 105.352 11.855 A 1.665 1.665 0 0 0 105.459 11.26 A 1.258 1.258 0 0 0 105.426 10.964 A 0.925 0.925 0 0 0 105.259 10.61 A 1.613 1.613 0 0 0 104.908 10.279 A 1.982 1.982 0 0 0 104.736 10.171 A 3.747 3.747 0 0 0 104.344 9.982 A 4.826 4.826 0 0 0 103.999 9.854 A 52.937 52.937 0 0 1 103.149 9.565 A 9.639 9.639 0 0 1 102.3 9.224 A 2.795 2.795 0 0 1 101.563 8.735 A 2.262 2.262 0 0 1 101.093 8.115 A 2.631 2.631 0 0 1 101.04 8.008 A 2.02 2.02 0 0 1 100.892 7.54 Q 100.85 7.325 100.842 7.078 A 3.623 3.623 0 0 1 100.84 6.963 A 2.669 2.669 0 0 1 101.055 5.903 A 2.576 2.576 0 0 1 101.68 5.02 Q 102.09 4.639 102.695 4.414 A 3.506 3.506 0 0 1 103.432 4.232 A 4.705 4.705 0 0 1 104.082 4.189 A 4.661 4.661 0 0 1 105.029 4.282 A 3.834 3.834 0 0 1 105.693 4.482 A 3.584 3.584 0 0 1 106.709 5.098 A 3.362 3.362 0 0 1 106.924 5.303 Z M 154.033 5.303 L 153.652 5.918 A 0.454 0.454 0 0 1 153.558 6.04 Q 153.462 6.126 153.322 6.132 A 0.494 0.494 0 0 1 153.301 6.133 A 0.468 0.468 0 0 1 153.159 6.11 Q 153.075 6.083 152.983 6.025 A 4.059 4.059 0 0 0 152.846 5.943 Q 152.761 5.894 152.664 5.843 A 7.43 7.43 0 0 0 152.573 5.796 Q 152.366 5.69 152.092 5.595 A 5.479 5.479 0 0 0 152.007 5.566 Q 151.723 5.473 151.348 5.461 A 3.559 3.559 0 0 0 151.231 5.459 A 2.317 2.317 0 0 0 150.859 5.488 A 1.789 1.789 0 0 0 150.547 5.566 A 1.737 1.737 0 0 0 150.222 5.719 A 1.447 1.447 0 0 0 150.029 5.859 A 1.302 1.302 0 0 0 149.697 6.294 A 1.234 1.234 0 0 0 149.58 6.826 A 1.162 1.162 0 0 0 149.612 7.107 A 0.86 0.86 0 0 0 149.775 7.441 A 1.537 1.537 0 0 0 150.069 7.72 A 1.986 1.986 0 0 0 150.293 7.861 A 4.2 4.2 0 0 0 150.679 8.046 A 5.487 5.487 0 0 0 151.03 8.179 A 3727.12 3727.12 0 0 0 151.875 8.467 A 8.186 8.186 0 0 1 152.72 8.809 A 3.172 3.172 0 0 1 153.354 9.201 A 2.914 2.914 0 0 1 153.457 9.287 Q 153.779 9.57 153.975 9.976 Q 154.155 10.349 154.169 10.868 A 3.284 3.284 0 0 1 154.17 10.957 Q 154.17 11.621 153.945 12.183 Q 153.721 12.744 153.286 13.154 A 2.903 2.903 0 0 1 152.592 13.635 A 3.611 3.611 0 0 1 152.212 13.799 A 3.732 3.732 0 0 1 151.444 13.987 A 5.06 5.06 0 0 1 150.742 14.033 A 4.823 4.823 0 0 1 149.691 13.923 A 4.045 4.045 0 0 1 149.019 13.711 A 4.509 4.509 0 0 1 148.181 13.259 A 3.783 3.783 0 0 1 147.705 12.871 L 148.106 12.227 Q 148.184 12.1 148.291 12.031 Q 148.389 11.969 148.535 11.963 A 0.769 0.769 0 0 1 148.565 11.963 Q 148.74 11.963 148.916 12.095 Q 149.051 12.196 149.228 12.314 A 10.549 10.549 0 0 0 149.341 12.388 A 2.605 2.605 0 0 0 149.606 12.537 Q 149.741 12.603 149.897 12.664 A 4.343 4.343 0 0 0 149.941 12.681 Q 150.215 12.783 150.594 12.806 A 3.77 3.77 0 0 0 150.82 12.813 A 2.672 2.672 0 0 0 151.184 12.789 Q 151.41 12.758 151.597 12.686 A 1.787 1.787 0 0 0 151.904 12.533 A 1.409 1.409 0 0 0 152.139 12.349 Q 152.354 12.139 152.461 11.855 A 1.665 1.665 0 0 0 152.568 11.26 A 1.258 1.258 0 0 0 152.535 10.964 A 0.925 0.925 0 0 0 152.368 10.61 A 1.613 1.613 0 0 0 152.017 10.279 A 1.982 1.982 0 0 0 151.846 10.171 A 3.747 3.747 0 0 0 151.454 9.982 A 4.826 4.826 0 0 0 151.108 9.854 A 52.937 52.937 0 0 1 150.259 9.565 A 9.639 9.639 0 0 1 149.409 9.224 A 2.795 2.795 0 0 1 148.672 8.735 A 2.262 2.262 0 0 1 148.202 8.115 A 2.631 2.631 0 0 1 148.149 8.008 A 2.02 2.02 0 0 1 148.001 7.54 Q 147.959 7.325 147.951 7.078 A 3.623 3.623 0 0 1 147.949 6.963 A 2.669 2.669 0 0 1 148.164 5.903 A 2.576 2.576 0 0 1 148.789 5.02 Q 149.199 4.639 149.805 4.414 A 3.506 3.506 0 0 1 150.542 4.232 A 4.705 4.705 0 0 1 151.191 4.189 A 4.661 4.661 0 0 1 152.139 4.282 A 3.834 3.834 0 0 1 152.803 4.482 A 3.584 3.584 0 0 1 153.818 5.098 A 3.362 3.362 0 0 1 154.033 5.303 Z M 194.199 5.303 L 193.818 5.918 A 0.454 0.454 0 0 1 193.724 6.04 Q 193.628 6.126 193.488 6.132 A 0.494 0.494 0 0 1 193.467 6.133 A 0.468 0.468 0 0 1 193.325 6.11 Q 193.241 6.083 193.149 6.025 A 4.059 4.059 0 0 0 193.012 5.943 Q 192.927 5.894 192.83 5.843 A 7.43 7.43 0 0 0 192.739 5.796 Q 192.532 5.69 192.258 5.595 A 5.479 5.479 0 0 0 192.173 5.566 Q 191.889 5.473 191.514 5.461 A 3.559 3.559 0 0 0 191.397 5.459 A 2.317 2.317 0 0 0 191.025 5.488 A 1.789 1.789 0 0 0 190.713 5.566 A 1.737 1.737 0 0 0 190.388 5.719 A 1.447 1.447 0 0 0 190.195 5.859 A 1.302 1.302 0 0 0 189.863 6.294 A 1.234 1.234 0 0 0 189.746 6.826 A 1.162 1.162 0 0 0 189.778 7.107 A 0.86 0.86 0 0 0 189.941 7.441 A 1.537 1.537 0 0 0 190.235 7.72 A 1.986 1.986 0 0 0 190.459 7.861 A 4.2 4.2 0 0 0 190.845 8.046 A 5.487 5.487 0 0 0 191.196 8.179 A 3727.12 3727.12 0 0 0 192.041 8.467 A 8.186 8.186 0 0 1 192.886 8.809 A 3.172 3.172 0 0 1 193.52 9.201 A 2.914 2.914 0 0 1 193.623 9.287 Q 193.945 9.57 194.141 9.976 Q 194.321 10.349 194.335 10.868 A 3.284 3.284 0 0 1 194.336 10.957 Q 194.336 11.621 194.111 12.183 Q 193.887 12.744 193.452 13.154 A 2.903 2.903 0 0 1 192.758 13.635 A 3.611 3.611 0 0 1 192.378 13.799 A 3.732 3.732 0 0 1 191.61 13.987 A 5.06 5.06 0 0 1 190.908 14.033 A 4.823 4.823 0 0 1 189.857 13.923 A 4.045 4.045 0 0 1 189.185 13.711 A 4.509 4.509 0 0 1 188.347 13.259 A 3.783 3.783 0 0 1 187.871 12.871 L 188.272 12.227 Q 188.35 12.1 188.457 12.031 Q 188.555 11.969 188.701 11.963 A 0.769 0.769 0 0 1 188.731 11.963 Q 188.906 11.963 189.082 12.095 Q 189.217 12.196 189.394 12.314 A 10.549 10.549 0 0 0 189.507 12.388 A 2.605 2.605 0 0 0 189.772 12.537 Q 189.907 12.603 190.063 12.664 A 4.343 4.343 0 0 0 190.107 12.681 Q 190.381 12.783 190.76 12.806 A 3.77 3.77 0 0 0 190.986 12.813 A 2.672 2.672 0 0 0 191.35 12.789 Q 191.576 12.758 191.763 12.686 A 1.787 1.787 0 0 0 192.07 12.533 A 1.409 1.409 0 0 0 192.305 12.349 Q 192.52 12.139 192.627 11.855 A 1.665 1.665 0 0 0 192.734 11.26 A 1.258 1.258 0 0 0 192.701 10.964 A 0.925 0.925 0 0 0 192.534 10.61 A 1.613 1.613 0 0 0 192.183 10.279 A 1.982 1.982 0 0 0 192.012 10.171 A 3.747 3.747 0 0 0 191.62 9.982 A 4.826 4.826 0 0 0 191.274 9.854 A 52.937 52.937 0 0 1 190.425 9.565 A 9.639 9.639 0 0 1 189.575 9.224 A 2.795 2.795 0 0 1 188.838 8.735 A 2.262 2.262 0 0 1 188.368 8.115 A 2.631 2.631 0 0 1 188.315 8.008 A 2.02 2.02 0 0 1 188.167 7.54 Q 188.125 7.325 188.117 7.078 A 3.623 3.623 0 0 1 188.115 6.963 A 2.669 2.669 0 0 1 188.33 5.903 A 2.576 2.576 0 0 1 188.955 5.02 Q 189.365 4.639 189.971 4.414 A 3.506 3.506 0 0 1 190.708 4.232 A 4.705 4.705 0 0 1 191.357 4.189 A 4.661 4.661 0 0 1 192.305 4.282 A 3.834 3.834 0 0 1 192.969 4.482 A 3.584 3.584 0 0 1 193.984 5.098 A 3.362 3.362 0 0 1 194.199 5.303 Z M 213.731 4.336 L 210.176 13.887 L 208.623 13.887 L 205.068 4.336 L 206.484 4.336 A 0.59 0.59 0 0 1 206.654 4.359 A 0.485 0.485 0 0 1 206.816 4.443 Q 206.953 4.551 207.002 4.688 L 209.043 10.801 A 8.08 8.08 0 0 1 209.211 11.302 A 7.084 7.084 0 0 1 209.258 11.465 Q 209.346 11.787 209.424 12.119 Q 209.492 11.797 209.585 11.47 A 6.645 6.645 0 0 1 209.765 10.928 A 7.491 7.491 0 0 1 209.815 10.801 L 211.885 4.688 Q 211.943 4.541 212.075 4.438 A 0.473 0.473 0 0 1 212.373 4.336 L 213.731 4.336 Z M 43.887 13.887 L 43.125 13.887 A 1.33 1.33 0 0 1 42.981 13.879 Q 42.91 13.872 42.851 13.856 A 0.504 0.504 0 0 1 42.735 13.809 A 0.302 0.302 0 0 1 42.632 13.708 Q 42.576 13.624 42.549 13.486 L 42.334 12.598 Q 41.963 12.939 41.606 13.208 A 4.32 4.32 0 0 1 40.859 13.662 A 3.666 3.666 0 0 1 40.076 13.928 A 4.065 4.065 0 0 1 40.02 13.94 Q 39.57 14.033 39.033 14.033 Q 38.477 14.033 37.993 13.882 A 2.356 2.356 0 0 1 37.144 13.413 A 2.199 2.199 0 0 1 36.601 12.695 A 2.559 2.559 0 0 1 36.567 12.622 Q 36.357 12.148 36.357 11.504 A 2.095 2.095 0 0 1 36.619 10.497 A 2.502 2.502 0 0 1 36.665 10.415 A 2.201 2.201 0 0 1 37.054 9.935 Q 37.309 9.694 37.666 9.482 Q 38.359 9.072 39.473 8.813 Q 40.322 8.616 41.468 8.546 A 20.277 20.277 0 0 1 42.207 8.516 L 42.207 7.783 A 4.19 4.19 0 0 0 42.165 7.171 Q 42.119 6.858 42.021 6.605 A 1.73 1.73 0 0 0 41.733 6.108 A 1.528 1.528 0 0 0 40.88 5.602 A 2.367 2.367 0 0 0 40.352 5.547 A 3.925 3.925 0 0 0 39.924 5.569 Q 39.705 5.593 39.518 5.643 A 2.022 2.022 0 0 0 39.331 5.703 A 5.042 5.042 0 0 0 38.967 5.856 Q 38.774 5.946 38.613 6.045 A 11.633 11.633 0 0 0 38.364 6.202 Q 38.252 6.275 38.154 6.342 A 6.408 6.408 0 0 0 38.091 6.387 A 0.924 0.924 0 0 1 37.905 6.491 A 0.679 0.679 0 0 1 37.647 6.543 A 0.589 0.589 0 0 1 37.49 6.523 A 0.477 0.477 0 0 1 37.344 6.455 A 0.679 0.679 0 0 1 37.139 6.23 L 36.826 5.684 A 5.801 5.801 0 0 1 37.863 4.882 A 4.981 4.981 0 0 1 38.53 4.546 A 5.007 5.007 0 0 1 39.946 4.2 A 6.13 6.13 0 0 1 40.557 4.17 A 4.236 4.236 0 0 1 41.314 4.235 A 3.27 3.27 0 0 1 41.982 4.429 A 2.837 2.837 0 0 1 42.834 4.967 A 2.681 2.681 0 0 1 43.027 5.166 A 3.169 3.169 0 0 1 43.576 6.061 A 3.767 3.767 0 0 1 43.667 6.309 A 4.303 4.303 0 0 1 43.856 7.196 A 5.418 5.418 0 0 1 43.887 7.783 L 43.887 13.887 Z M 73.145 13.887 L 72.383 13.887 A 1.33 1.33 0 0 1 72.239 13.879 Q 72.168 13.872 72.109 13.856 A 0.504 0.504 0 0 1 71.993 13.809 A 0.302 0.302 0 0 1 71.889 13.708 Q 71.834 13.624 71.807 13.486 L 71.592 12.598 Q 71.221 12.939 70.864 13.208 A 4.32 4.32 0 0 1 70.117 13.662 A 3.666 3.666 0 0 1 69.333 13.928 A 4.065 4.065 0 0 1 69.277 13.94 Q 68.828 14.033 68.291 14.033 Q 67.734 14.033 67.251 13.882 A 2.356 2.356 0 0 1 66.401 13.413 A 2.199 2.199 0 0 1 65.859 12.695 A 2.559 2.559 0 0 1 65.825 12.622 Q 65.615 12.148 65.615 11.504 A 2.095 2.095 0 0 1 65.877 10.497 A 2.502 2.502 0 0 1 65.923 10.415 A 2.201 2.201 0 0 1 66.311 9.935 Q 66.566 9.694 66.924 9.482 Q 67.617 9.072 68.731 8.813 Q 69.58 8.616 70.726 8.546 A 20.277 20.277 0 0 1 71.465 8.516 L 71.465 7.783 A 4.19 4.19 0 0 0 71.423 7.171 Q 71.377 6.858 71.279 6.605 A 1.73 1.73 0 0 0 70.991 6.108 A 1.528 1.528 0 0 0 70.138 5.602 A 2.367 2.367 0 0 0 69.609 5.547 A 3.925 3.925 0 0 0 69.182 5.569 Q 68.963 5.593 68.776 5.643 A 2.022 2.022 0 0 0 68.589 5.703 A 5.042 5.042 0 0 0 68.224 5.856 Q 68.032 5.946 67.871 6.045 A 11.633 11.633 0 0 0 67.622 6.202 Q 67.51 6.275 67.412 6.342 A 6.408 6.408 0 0 0 67.349 6.387 A 0.924 0.924 0 0 1 67.163 6.491 A 0.679 0.679 0 0 1 66.904 6.543 A 0.589 0.589 0 0 1 66.748 6.523 A 0.477 0.477 0 0 1 66.602 6.455 A 0.679 0.679 0 0 1 66.397 6.23 L 66.084 5.684 A 5.801 5.801 0 0 1 67.12 4.882 A 4.981 4.981 0 0 1 67.788 4.546 A 5.007 5.007 0 0 1 69.204 4.2 A 6.13 6.13 0 0 1 69.815 4.17 A 4.236 4.236 0 0 1 70.571 4.235 A 3.27 3.27 0 0 1 71.24 4.429 A 2.837 2.837 0 0 1 72.092 4.967 A 2.681 2.681 0 0 1 72.285 5.166 A 3.169 3.169 0 0 1 72.833 6.061 A 3.767 3.767 0 0 1 72.925 6.309 A 4.303 4.303 0 0 1 73.114 7.196 A 5.418 5.418 0 0 1 73.145 7.783 L 73.145 13.887 Z M 281.309 13.887 L 280.547 13.887 A 1.33 1.33 0 0 1 280.403 13.879 Q 280.332 13.872 280.273 13.856 A 0.504 0.504 0 0 1 280.157 13.809 A 0.302 0.302 0 0 1 280.053 13.708 Q 279.998 13.624 279.971 13.486 L 279.756 12.598 Q 279.385 12.939 279.028 13.208 A 4.32 4.32 0 0 1 278.281 13.662 A 3.666 3.666 0 0 1 277.497 13.928 A 4.065 4.065 0 0 1 277.441 13.94 Q 276.992 14.033 276.455 14.033 Q 275.898 14.033 275.415 13.882 A 2.356 2.356 0 0 1 274.565 13.413 A 2.199 2.199 0 0 1 274.023 12.695 A 2.559 2.559 0 0 1 273.989 12.622 Q 273.779 12.148 273.779 11.504 A 2.095 2.095 0 0 1 274.041 10.497 A 2.502 2.502 0 0 1 274.087 10.415 A 2.201 2.201 0 0 1 274.475 9.935 Q 274.73 9.694 275.088 9.482 Q 275.781 9.072 276.895 8.813 Q 277.744 8.616 278.89 8.546 A 20.277 20.277 0 0 1 279.629 8.516 L 279.629 7.783 A 4.19 4.19 0 0 0 279.587 7.171 Q 279.541 6.858 279.443 6.605 A 1.73 1.73 0 0 0 279.155 6.108 A 1.528 1.528 0 0 0 278.302 5.602 A 2.367 2.367 0 0 0 277.773 5.547 A 3.925 3.925 0 0 0 277.346 5.569 Q 277.127 5.593 276.94 5.643 A 2.022 2.022 0 0 0 276.753 5.703 A 5.042 5.042 0 0 0 276.389 5.856 Q 276.196 5.946 276.035 6.045 A 11.633 11.633 0 0 0 275.786 6.202 Q 275.674 6.275 275.576 6.342 A 6.408 6.408 0 0 0 275.513 6.387 A 0.924 0.924 0 0 1 275.327 6.491 A 0.679 0.679 0 0 1 275.068 6.543 A 0.589 0.589 0 0 1 274.912 6.523 A 0.477 0.477 0 0 1 274.766 6.455 A 0.679 0.679 0 0 1 274.561 6.23 L 274.248 5.684 A 5.801 5.801 0 0 1 275.285 4.882 A 4.981 4.981 0 0 1 275.952 4.546 A 5.007 5.007 0 0 1 277.368 4.2 A 6.13 6.13 0 0 1 277.979 4.17 A 4.236 4.236 0 0 1 278.735 4.235 A 3.27 3.27 0 0 1 279.404 4.429 A 2.837 2.837 0 0 1 280.256 4.967 A 2.681 2.681 0 0 1 280.449 5.166 A 3.169 3.169 0 0 1 280.997 6.061 A 3.767 3.767 0 0 1 281.089 6.309 A 4.303 4.303 0 0 1 281.278 7.196 A 5.418 5.418 0 0 1 281.309 7.783 L 281.309 13.887 Z M 318.428 13.887 L 317.666 13.887 A 1.33 1.33 0 0 1 317.522 13.879 Q 317.451 13.872 317.392 13.856 A 0.504 0.504 0 0 1 317.276 13.809 A 0.302 0.302 0 0 1 317.173 13.708 Q 317.117 13.624 317.09 13.486 L 316.875 12.598 Q 316.504 12.939 316.148 13.208 A 4.32 4.32 0 0 1 315.4 13.662 A 3.666 3.666 0 0 1 314.617 13.928 A 4.065 4.065 0 0 1 314.561 13.94 Q 314.111 14.033 313.574 14.033 Q 313.018 14.033 312.534 13.882 A 2.356 2.356 0 0 1 311.685 13.413 A 2.199 2.199 0 0 1 311.142 12.695 A 2.559 2.559 0 0 1 311.108 12.622 Q 310.898 12.148 310.898 11.504 A 2.095 2.095 0 0 1 311.16 10.497 A 2.502 2.502 0 0 1 311.206 10.415 A 2.201 2.201 0 0 1 311.595 9.935 Q 311.85 9.694 312.207 9.482 Q 312.9 9.072 314.014 8.813 Q 314.863 8.616 316.009 8.546 A 20.277 20.277 0 0 1 316.748 8.516 L 316.748 7.783 A 4.19 4.19 0 0 0 316.706 7.171 Q 316.66 6.858 316.562 6.605 A 1.73 1.73 0 0 0 316.274 6.108 A 1.528 1.528 0 0 0 315.421 5.602 A 2.367 2.367 0 0 0 314.893 5.547 A 3.925 3.925 0 0 0 314.465 5.569 Q 314.246 5.593 314.059 5.643 A 2.022 2.022 0 0 0 313.872 5.703 A 5.042 5.042 0 0 0 313.508 5.856 Q 313.315 5.946 313.154 6.045 A 11.633 11.633 0 0 0 312.905 6.202 Q 312.793 6.275 312.695 6.342 A 6.408 6.408 0 0 0 312.632 6.387 A 0.924 0.924 0 0 1 312.446 6.491 A 0.679 0.679 0 0 1 312.188 6.543 A 0.589 0.589 0 0 1 312.031 6.523 A 0.477 0.477 0 0 1 311.885 6.455 A 0.679 0.679 0 0 1 311.68 6.23 L 311.367 5.684 A 5.801 5.801 0 0 1 312.404 4.882 A 4.981 4.981 0 0 1 313.071 4.546 A 5.007 5.007 0 0 1 314.487 4.2 A 6.13 6.13 0 0 1 315.098 4.17 A 4.236 4.236 0 0 1 315.855 4.235 A 3.27 3.27 0 0 1 316.523 4.429 A 2.837 2.837 0 0 1 317.375 4.967 A 2.681 2.681 0 0 1 317.568 5.166 A 3.169 3.169 0 0 1 318.117 6.061 A 3.767 3.767 0 0 1 318.208 6.309 A 4.303 4.303 0 0 1 318.397 7.196 A 5.418 5.418 0 0 1 318.428 7.783 L 318.428 13.887 Z M 30.615 11.582 L 30.615 5.762 L 29.522 5.762 A 0.348 0.348 0 0 1 29.273 5.664 A 0.314 0.314 0 0 1 29.188 5.519 Q 29.173 5.469 29.171 5.409 A 0.636 0.636 0 0 1 29.17 5.381 L 29.17 4.697 L 30.674 4.502 L 31.074 1.563 A 0.401 0.401 0 0 1 31.111 1.438 A 0.342 0.342 0 0 1 31.196 1.328 A 0.361 0.361 0 0 1 31.38 1.246 A 0.491 0.491 0 0 1 31.455 1.24 L 32.334 1.24 L 32.334 4.512 L 34.961 4.512 L 34.961 5.762 L 32.334 5.762 L 32.334 11.465 Q 32.334 11.842 32.445 12.097 A 0.88 0.88 0 0 0 32.603 12.344 Q 32.871 12.637 33.301 12.637 A 1.582 1.582 0 0 0 33.495 12.625 Q 33.628 12.609 33.735 12.568 A 1.708 1.708 0 0 0 33.893 12.5 Q 33.97 12.461 34.035 12.418 A 1.033 1.033 0 0 0 34.043 12.412 Q 34.13 12.352 34.201 12.3 A 6.81 6.81 0 0 0 34.263 12.256 A 0.463 0.463 0 0 1 34.319 12.22 Q 34.351 12.203 34.38 12.195 A 0.203 0.203 0 0 1 34.434 12.188 Q 34.504 12.188 34.552 12.212 A 0.176 0.176 0 0 1 34.575 12.227 A 0.26 0.26 0 0 1 34.615 12.263 Q 34.633 12.283 34.651 12.309 A 0.611 0.611 0 0 1 34.678 12.354 L 35.186 13.174 A 3.093 3.093 0 0 1 34.188 13.794 A 3.522 3.522 0 0 1 34.15 13.809 Q 33.555 14.033 32.91 14.033 A 3.07 3.07 0 0 1 32.226 13.962 Q 31.607 13.82 31.211 13.398 Q 30.615 12.764 30.615 11.582 Z M 55.352 11.582 L 55.352 5.762 L 54.258 5.762 A 0.348 0.348 0 0 1 54.009 5.664 A 0.314 0.314 0 0 1 53.924 5.519 Q 53.91 5.469 53.907 5.409 A 0.636 0.636 0 0 1 53.906 5.381 L 53.906 4.697 L 55.41 4.502 L 55.811 1.563 A 0.401 0.401 0 0 1 55.847 1.438 A 0.342 0.342 0 0 1 55.933 1.328 A 0.361 0.361 0 0 1 56.117 1.246 A 0.491 0.491 0 0 1 56.191 1.24 L 57.07 1.24 L 57.07 4.512 L 59.697 4.512 L 59.697 5.762 L 57.07 5.762 L 57.07 11.465 Q 57.07 11.842 57.181 12.097 A 0.88 0.88 0 0 0 57.339 12.344 Q 57.607 12.637 58.037 12.637 A 1.582 1.582 0 0 0 58.231 12.625 Q 58.364 12.609 58.472 12.568 A 1.708 1.708 0 0 0 58.629 12.5 Q 58.707 12.461 58.771 12.418 A 1.033 1.033 0 0 0 58.779 12.412 Q 58.867 12.352 58.938 12.3 A 6.81 6.81 0 0 0 58.999 12.256 A 0.463 0.463 0 0 1 59.056 12.22 Q 59.087 12.203 59.116 12.195 A 0.203 0.203 0 0 1 59.17 12.188 Q 59.24 12.188 59.289 12.212 A 0.176 0.176 0 0 1 59.312 12.227 A 0.26 0.26 0 0 1 59.351 12.263 Q 59.369 12.283 59.387 12.309 A 0.611 0.611 0 0 1 59.414 12.354 L 59.922 13.174 A 3.093 3.093 0 0 1 58.924 13.794 A 3.522 3.522 0 0 1 58.887 13.809 Q 58.291 14.033 57.647 14.033 A 3.07 3.07 0 0 1 56.962 13.962 Q 56.343 13.82 55.947 13.398 Q 55.352 12.764 55.352 11.582 Z M 156.621 11.582 L 156.621 5.762 L 155.527 5.762 A 0.348 0.348 0 0 1 155.278 5.664 A 0.314 0.314 0 0 1 155.193 5.519 Q 155.179 5.469 155.176 5.409 A 0.636 0.636 0 0 1 155.176 5.381 L 155.176 4.697 L 156.68 4.502 L 157.08 1.563 A 0.401 0.401 0 0 1 157.117 1.438 A 0.342 0.342 0 0 1 157.202 1.328 A 0.361 0.361 0 0 1 157.386 1.246 A 0.491 0.491 0 0 1 157.461 1.24 L 158.34 1.24 L 158.34 4.512 L 160.967 4.512 L 160.967 5.762 L 158.34 5.762 L 158.34 11.465 Q 158.34 11.842 158.451 12.097 A 0.88 0.88 0 0 0 158.608 12.344 Q 158.877 12.637 159.307 12.637 A 1.582 1.582 0 0 0 159.501 12.625 Q 159.634 12.609 159.741 12.568 A 1.708 1.708 0 0 0 159.899 12.5 Q 159.976 12.461 160.04 12.418 A 1.033 1.033 0 0 0 160.049 12.412 Q 160.136 12.352 160.207 12.3 A 6.81 6.81 0 0 0 160.269 12.256 A 0.463 0.463 0 0 1 160.325 12.22 Q 160.356 12.203 160.386 12.195 A 0.203 0.203 0 0 1 160.44 12.188 Q 160.51 12.188 160.558 12.212 A 0.176 0.176 0 0 1 160.581 12.227 A 0.26 0.26 0 0 1 160.621 12.263 Q 160.639 12.283 160.656 12.309 A 0.611 0.611 0 0 1 160.684 12.354 L 161.191 13.174 A 3.093 3.093 0 0 1 160.193 13.794 A 3.522 3.522 0 0 1 160.156 13.809 Q 159.561 14.033 158.916 14.033 A 3.07 3.07 0 0 1 158.232 13.962 Q 157.612 13.82 157.217 13.398 Q 156.621 12.764 156.621 11.582 Z M 215.693 11.582 L 215.693 5.762 L 214.6 5.762 A 0.348 0.348 0 0 1 214.351 5.664 A 0.314 0.314 0 0 1 214.266 5.519 Q 214.251 5.469 214.249 5.409 A 0.636 0.636 0 0 1 214.248 5.381 L 214.248 4.697 L 215.752 4.502 L 216.152 1.563 A 0.401 0.401 0 0 1 216.189 1.438 A 0.342 0.342 0 0 1 216.274 1.328 A 0.361 0.361 0 0 1 216.458 1.246 A 0.491 0.491 0 0 1 216.533 1.24 L 217.412 1.24 L 217.412 4.512 L 220.039 4.512 L 220.039 5.762 L 217.412 5.762 L 217.412 11.465 Q 217.412 11.842 217.523 12.097 A 0.88 0.88 0 0 0 217.681 12.344 Q 217.949 12.637 218.379 12.637 A 1.582 1.582 0 0 0 218.573 12.625 Q 218.706 12.609 218.814 12.568 A 1.708 1.708 0 0 0 218.971 12.5 Q 219.049 12.461 219.113 12.418 A 1.033 1.033 0 0 0 219.121 12.412 Q 219.208 12.352 219.28 12.3 A 6.81 6.81 0 0 0 219.341 12.256 A 0.463 0.463 0 0 1 219.397 12.22 Q 219.429 12.203 219.458 12.195 A 0.203 0.203 0 0 1 219.512 12.188 Q 219.582 12.188 219.63 12.212 A 0.176 0.176 0 0 1 219.653 12.227 A 0.26 0.26 0 0 1 219.693 12.263 Q 219.711 12.283 219.729 12.309 A 0.611 0.611 0 0 1 219.756 12.354 L 220.264 13.174 A 3.093 3.093 0 0 1 219.266 13.794 A 3.522 3.522 0 0 1 219.229 13.809 Q 218.633 14.033 217.988 14.033 A 3.07 3.07 0 0 1 217.304 13.962 Q 216.685 13.82 216.289 13.398 Q 215.693 12.764 215.693 11.582 Z M 7.285 5.43 L 6.836 6.055 Q 6.758 6.162 6.685 6.216 Q 6.611 6.27 6.475 6.27 A 0.413 0.413 0 0 1 6.321 6.238 Q 6.266 6.216 6.21 6.179 A 0.807 0.807 0 0 1 6.172 6.152 Q 6.052 6.063 5.887 5.959 A 6.93 6.93 0 0 0 5.781 5.894 Q 5.547 5.752 5.21 5.635 A 1.934 1.934 0 0 0 4.889 5.555 Q 4.661 5.518 4.385 5.518 Q 3.74 5.518 3.247 5.767 A 2.212 2.212 0 0 0 2.427 6.479 A 3.019 3.019 0 0 0 2.108 7.065 A 4.044 4.044 0 0 0 1.929 7.607 A 5.271 5.271 0 0 0 1.793 8.383 A 7.043 7.043 0 0 0 1.758 9.102 A 6.996 6.996 0 0 0 1.798 9.865 Q 1.843 10.275 1.939 10.63 A 4.066 4.066 0 0 0 2.141 11.211 A 2.984 2.984 0 0 0 2.451 11.758 A 2.324 2.324 0 0 0 2.972 12.285 A 2.129 2.129 0 0 0 3.252 12.456 A 2.201 2.201 0 0 0 4.056 12.684 A 2.695 2.695 0 0 0 4.307 12.695 A 3.623 3.623 0 0 0 4.672 12.678 Q 4.855 12.659 5.01 12.621 A 1.667 1.667 0 0 0 5.234 12.549 Q 5.558 12.418 5.787 12.263 A 2.044 2.044 0 0 0 5.84 12.227 Q 6.027 12.092 6.165 11.975 A 3.156 3.156 0 0 0 6.245 11.904 Q 6.405 11.759 6.579 11.758 A 0.418 0.418 0 0 1 6.582 11.758 A 0.358 0.358 0 0 1 6.859 11.879 A 0.472 0.472 0 0 1 6.895 11.924 L 7.393 12.549 A 3.784 3.784 0 0 1 6.699 13.208 Q 6.318 13.486 5.879 13.667 A 4.604 4.604 0 0 1 4.966 13.936 Q 4.492 14.023 4.004 14.023 A 3.763 3.763 0 0 1 2.432 13.691 A 3.66 3.66 0 0 1 1.157 12.729 Q 0.615 12.1 0.308 11.187 Q 0 10.273 0 9.102 A 7.01 7.01 0 0 1 0.111 7.834 A 5.902 5.902 0 0 1 0.283 7.134 A 4.849 4.849 0 0 1 0.731 6.114 A 4.15 4.15 0 0 1 1.108 5.576 Q 1.65 4.922 2.446 4.556 A 3.946 3.946 0 0 1 3.535 4.241 A 5.165 5.165 0 0 1 4.277 4.189 A 4.934 4.934 0 0 1 5.126 4.259 A 3.634 3.634 0 0 1 5.986 4.517 Q 6.719 4.844 7.285 5.43 Z M 53.076 5.43 L 52.627 6.055 Q 52.549 6.162 52.476 6.216 Q 52.402 6.27 52.266 6.27 A 0.413 0.413 0 0 1 52.112 6.238 Q 52.057 6.216 52.001 6.179 A 0.807 0.807 0 0 1 51.963 6.152 Q 51.843 6.063 51.678 5.959 A 6.93 6.93 0 0 0 51.572 5.894 Q 51.338 5.752 51.001 5.635 A 1.934 1.934 0 0 0 50.68 5.555 Q 50.452 5.518 50.176 5.518 Q 49.531 5.518 49.038 5.767 A 2.212 2.212 0 0 0 48.218 6.479 A 3.019 3.019 0 0 0 47.899 7.065 A 4.044 4.044 0 0 0 47.72 7.607 A 5.271 5.271 0 0 0 47.584 8.383 A 7.043 7.043 0 0 0 47.549 9.102 A 6.996 6.996 0 0 0 47.589 9.865 Q 47.634 10.275 47.73 10.63 A 4.066 4.066 0 0 0 47.932 11.211 A 2.984 2.984 0 0 0 48.242 11.758 A 2.324 2.324 0 0 0 48.763 12.285 A 2.129 2.129 0 0 0 49.043 12.456 A 2.201 2.201 0 0 0 49.847 12.684 A 2.695 2.695 0 0 0 50.098 12.695 A 3.623 3.623 0 0 0 50.463 12.678 Q 50.646 12.659 50.801 12.621 A 1.667 1.667 0 0 0 51.025 12.549 Q 51.349 12.418 51.578 12.263 A 2.044 2.044 0 0 0 51.631 12.227 Q 51.818 12.092 51.956 11.975 A 3.156 3.156 0 0 0 52.036 11.904 Q 52.196 11.759 52.37 11.758 A 0.418 0.418 0 0 1 52.373 11.758 A 0.358 0.358 0 0 1 52.65 11.879 A 0.472 0.472 0 0 1 52.686 11.924 L 53.184 12.549 A 3.784 3.784 0 0 1 52.49 13.208 Q 52.109 13.486 51.67 13.667 A 4.604 4.604 0 0 1 50.757 13.936 Q 50.283 14.023 49.795 14.023 A 3.763 3.763 0 0 1 48.223 13.691 A 3.66 3.66 0 0 1 46.948 12.729 Q 46.406 12.1 46.099 11.187 Q 45.791 10.273 45.791 9.102 A 7.01 7.01 0 0 1 45.902 7.834 A 5.902 5.902 0 0 1 46.074 7.134 A 4.849 4.849 0 0 1 46.522 6.114 A 4.15 4.15 0 0 1 46.899 5.576 Q 47.441 4.922 48.237 4.556 A 3.946 3.946 0 0 1 49.326 4.241 A 5.165 5.165 0 0 1 50.068 4.189 A 4.934 4.934 0 0 1 50.917 4.259 A 3.634 3.634 0 0 1 51.777 4.517 Q 52.51 4.844 53.076 5.43 Z M 341.846 5.43 L 341.397 6.055 Q 341.318 6.162 341.245 6.216 Q 341.172 6.27 341.035 6.27 A 0.413 0.413 0 0 1 340.882 6.238 Q 340.827 6.216 340.77 6.179 A 0.807 0.807 0 0 1 340.732 6.152 Q 340.613 6.063 340.447 5.959 A 6.93 6.93 0 0 0 340.342 5.894 Q 340.107 5.752 339.771 5.635 A 1.934 1.934 0 0 0 339.45 5.555 Q 339.222 5.518 338.945 5.518 Q 338.301 5.518 337.808 5.767 A 2.212 2.212 0 0 0 336.987 6.479 A 3.019 3.019 0 0 0 336.669 7.065 A 4.044 4.044 0 0 0 336.489 7.607 A 5.271 5.271 0 0 0 336.354 8.383 A 7.043 7.043 0 0 0 336.318 9.102 A 6.996 6.996 0 0 0 336.358 9.865 Q 336.403 10.275 336.499 10.63 A 4.066 4.066 0 0 0 336.702 11.211 A 2.984 2.984 0 0 0 337.012 11.758 A 2.324 2.324 0 0 0 337.533 12.285 A 2.129 2.129 0 0 0 337.813 12.456 A 2.201 2.201 0 0 0 338.616 12.684 A 2.695 2.695 0 0 0 338.867 12.695 A 3.623 3.623 0 0 0 339.232 12.678 Q 339.415 12.659 339.571 12.621 A 1.667 1.667 0 0 0 339.795 12.549 Q 340.118 12.418 340.348 12.263 A 2.044 2.044 0 0 0 340.4 12.227 Q 340.587 12.092 340.726 11.975 A 3.156 3.156 0 0 0 340.806 11.904 Q 340.965 11.759 341.139 11.758 A 0.418 0.418 0 0 1 341.143 11.758 A 0.358 0.358 0 0 1 341.42 11.879 A 0.472 0.472 0 0 1 341.455 11.924 L 341.953 12.549 A 3.784 3.784 0 0 1 341.26 13.208 Q 340.879 13.486 340.44 13.667 A 4.604 4.604 0 0 1 339.526 13.936 Q 339.053 14.023 338.565 14.023 A 3.763 3.763 0 0 1 336.992 13.691 A 3.66 3.66 0 0 1 335.718 12.729 Q 335.176 12.1 334.868 11.187 Q 334.561 10.273 334.561 9.102 A 7.01 7.01 0 0 1 334.671 7.834 A 5.902 5.902 0 0 1 334.844 7.134 A 4.849 4.849 0 0 1 335.292 6.114 A 4.15 4.15 0 0 1 335.669 5.576 Q 336.211 4.922 337.007 4.556 A 3.946 3.946 0 0 1 338.095 4.241 A 5.165 5.165 0 0 1 338.838 4.189 A 4.934 4.934 0 0 1 339.686 4.259 A 3.634 3.634 0 0 1 340.547 4.517 Q 341.279 4.844 341.846 5.43 Z M 350.303 5.43 L 349.854 6.055 Q 349.775 6.162 349.702 6.216 Q 349.629 6.27 349.492 6.27 A 0.413 0.413 0 0 1 349.339 6.238 Q 349.284 6.216 349.227 6.179 A 0.807 0.807 0 0 1 349.19 6.152 Q 349.07 6.063 348.904 5.959 A 6.93 6.93 0 0 0 348.799 5.894 Q 348.565 5.752 348.228 5.635 A 1.934 1.934 0 0 0 347.907 5.555 Q 347.679 5.518 347.402 5.518 Q 346.758 5.518 346.265 5.767 A 2.212 2.212 0 0 0 345.444 6.479 A 3.019 3.019 0 0 0 345.126 7.065 A 4.044 4.044 0 0 0 344.946 7.607 A 5.271 5.271 0 0 0 344.811 8.383 A 7.043 7.043 0 0 0 344.775 9.102 A 6.996 6.996 0 0 0 344.815 9.865 Q 344.86 10.275 344.956 10.63 A 4.066 4.066 0 0 0 345.159 11.211 A 2.984 2.984 0 0 0 345.469 11.758 A 2.324 2.324 0 0 0 345.99 12.285 A 2.129 2.129 0 0 0 346.27 12.456 A 2.201 2.201 0 0 0 347.074 12.684 A 2.695 2.695 0 0 0 347.324 12.695 A 3.623 3.623 0 0 0 347.689 12.678 Q 347.873 12.659 348.028 12.621 A 1.667 1.667 0 0 0 348.252 12.549 Q 348.575 12.418 348.805 12.263 A 2.044 2.044 0 0 0 348.857 12.227 Q 349.044 12.092 349.183 11.975 A 3.156 3.156 0 0 0 349.263 11.904 Q 349.422 11.759 349.596 11.758 A 0.418 0.418 0 0 1 349.6 11.758 A 0.358 0.358 0 0 1 349.877 11.879 A 0.472 0.472 0 0 1 349.912 11.924 L 350.41 12.549 A 3.784 3.784 0 0 1 349.717 13.208 Q 349.336 13.486 348.897 13.667 A 4.604 4.604 0 0 1 347.983 13.936 Q 347.51 14.023 347.022 14.023 A 3.763 3.763 0 0 1 345.449 13.691 A 3.66 3.66 0 0 1 344.175 12.729 Q 343.633 12.1 343.325 11.187 Q 343.018 10.273 343.018 9.102 A 7.01 7.01 0 0 1 343.128 7.834 A 5.902 5.902 0 0 1 343.301 7.134 A 4.849 4.849 0 0 1 343.749 6.114 A 4.15 4.15 0 0 1 344.126 5.576 Q 344.668 4.922 345.464 4.556 A 3.946 3.946 0 0 1 346.552 4.241 A 5.165 5.165 0 0 1 347.295 4.189 A 4.934 4.934 0 0 1 348.143 4.259 A 3.634 3.634 0 0 1 349.004 4.517 Q 349.736 4.844 350.303 5.43 Z M 222.051 0 L 223.77 0 L 223.77 13.887 L 222.051 13.887 L 222.051 0 Z M 325.684 0 L 327.402 0 L 327.402 13.887 L 325.684 13.887 L 325.684 0 Z M 290.127 13.887 L 288.408 13.887 L 288.408 4.336 L 289.395 4.336 A 1.095 1.095 0 0 1 289.528 4.344 Q 289.67 4.361 289.751 4.419 A 0.271 0.271 0 0 1 289.78 4.443 A 0.345 0.345 0 0 1 289.854 4.55 Q 289.897 4.644 289.911 4.786 A 1.213 1.213 0 0 1 289.912 4.805 L 290.029 6.211 A 5.195 5.195 0 0 1 290.453 5.459 Q 290.751 5.024 291.113 4.717 A 2.294 2.294 0 0 1 292.54 4.173 A 2.927 2.927 0 0 1 292.666 4.17 A 2.558 2.558 0 0 1 293.047 4.197 A 2.176 2.176 0 0 1 293.232 4.233 A 1.439 1.439 0 0 1 293.711 4.443 L 293.574 5.713 A 0.366 0.366 0 0 1 293.547 5.817 Q 293.486 5.957 293.301 5.957 Q 293.164 5.957 292.915 5.903 Q 292.666 5.85 292.363 5.85 A 2.498 2.498 0 0 0 291.974 5.879 A 1.851 1.851 0 0 0 291.587 5.981 Q 291.25 6.113 290.981 6.372 A 2.476 2.476 0 0 0 290.649 6.771 A 3.032 3.032 0 0 0 290.508 7.002 A 5.38 5.38 0 0 0 290.298 7.427 A 7.096 7.096 0 0 0 290.127 7.852 L 290.127 13.887 Z M 14.148 4.293 A 5.423 5.423 0 0 0 13.066 4.189 A 5.772 5.772 0 0 0 12.425 4.224 A 4.624 4.624 0 0 0 11.177 4.536 A 3.985 3.985 0 0 0 9.741 5.522 A 4.036 4.036 0 0 0 9.337 6.04 A 4.646 4.646 0 0 0 8.833 7.07 A 5.435 5.435 0 0 0 8.605 7.969 A 6.868 6.868 0 0 0 8.516 9.102 A 7.19 7.19 0 0 0 8.568 9.985 A 5.578 5.578 0 0 0 8.833 11.143 A 5.061 5.061 0 0 0 8.985 11.527 A 4.226 4.226 0 0 0 9.741 12.69 A 3.985 3.985 0 0 0 11.177 13.677 A 4.439 4.439 0 0 0 11.969 13.917 A 5.434 5.434 0 0 0 13.066 14.023 A 5.741 5.741 0 0 0 13.73 13.986 A 4.568 4.568 0 0 0 14.951 13.677 A 3.947 3.947 0 0 0 16.377 12.69 A 4.057 4.057 0 0 0 16.782 12.167 A 4.701 4.701 0 0 0 17.28 11.143 A 5.433 5.433 0 0 0 17.511 10.226 A 6.961 6.961 0 0 0 17.598 9.102 Q 17.598 7.979 17.28 7.07 A 5.121 5.121 0 0 0 17.126 6.679 A 4.257 4.257 0 0 0 16.377 5.522 Q 15.791 4.883 14.951 4.536 A 4.393 4.393 0 0 0 14.148 4.293 Z M 172.498 4.293 A 5.423 5.423 0 0 0 171.416 4.189 A 5.772 5.772 0 0 0 170.775 4.224 A 4.624 4.624 0 0 0 169.526 4.536 A 3.985 3.985 0 0 0 168.091 5.522 A 4.036 4.036 0 0 0 167.686 6.04 A 4.646 4.646 0 0 0 167.183 7.07 A 5.435 5.435 0 0 0 166.955 7.969 A 6.868 6.868 0 0 0 166.865 9.102 A 7.19 7.19 0 0 0 166.918 9.985 A 5.578 5.578 0 0 0 167.183 11.143 A 5.061 5.061 0 0 0 167.335 11.527 A 4.226 4.226 0 0 0 168.091 12.69 A 3.985 3.985 0 0 0 169.526 13.677 A 4.439 4.439 0 0 0 170.318 13.917 A 5.434 5.434 0 0 0 171.416 14.023 A 5.741 5.741 0 0 0 172.08 13.986 A 4.568 4.568 0 0 0 173.301 13.677 A 3.947 3.947 0 0 0 174.727 12.69 A 4.057 4.057 0 0 0 175.132 12.167 A 4.701 4.701 0 0 0 175.63 11.143 A 5.433 5.433 0 0 0 175.86 10.226 A 6.961 6.961 0 0 0 175.947 9.102 Q 175.947 7.979 175.63 7.07 A 5.121 5.121 0 0 0 175.475 6.679 A 4.257 4.257 0 0 0 174.727 5.522 Q 174.141 4.883 173.301 4.536 A 4.393 4.393 0 0 0 172.498 4.293 Z M 162.979 4.336 L 164.697 4.336 L 164.697 13.887 L 162.979 13.887 L 162.979 4.336 Z M 283.975 4.336 L 285.693 4.336 L 285.693 13.887 L 283.975 13.887 L 283.975 4.336 Z M 321.094 4.336 L 322.813 4.336 L 322.813 13.887 L 321.094 13.887 L 321.094 4.336 Z M 13.066 12.686 A 3.395 3.395 0 0 0 13.668 12.635 A 2.502 2.502 0 0 0 14.277 12.446 Q 14.795 12.207 15.142 11.748 Q 15.488 11.289 15.659 10.625 A 5.185 5.185 0 0 0 15.787 9.915 Q 15.827 9.56 15.83 9.164 A 8.366 8.366 0 0 0 15.83 9.111 A 7.243 7.243 0 0 0 15.793 8.356 Q 15.751 7.963 15.665 7.62 A 4.455 4.455 0 0 0 15.659 7.598 A 3.622 3.622 0 0 0 15.448 6.994 A 2.764 2.764 0 0 0 15.142 6.475 A 2.295 2.295 0 0 0 14.277 5.771 A 2.491 2.491 0 0 0 13.62 5.571 A 3.374 3.374 0 0 0 13.066 5.527 A 3.423 3.423 0 0 0 12.466 5.577 A 2.51 2.51 0 0 0 11.841 5.771 Q 11.318 6.016 10.972 6.475 Q 10.625 6.934 10.454 7.598 A 5.185 5.185 0 0 0 10.326 8.308 Q 10.286 8.663 10.283 9.058 A 8.366 8.366 0 0 0 10.283 9.111 A 7.243 7.243 0 0 0 10.321 9.867 Q 10.362 10.26 10.449 10.603 A 4.455 4.455 0 0 0 10.454 10.625 A 3.622 3.622 0 0 0 10.665 11.229 A 2.764 2.764 0 0 0 10.972 11.748 Q 11.318 12.207 11.841 12.446 A 2.558 2.558 0 0 0 12.486 12.64 A 3.51 3.51 0 0 0 13.066 12.686 Z M 171.416 12.686 A 3.395 3.395 0 0 0 172.018 12.635 A 2.502 2.502 0 0 0 172.627 12.446 Q 173.145 12.207 173.491 11.748 Q 173.838 11.289 174.009 10.625 A 5.185 5.185 0 0 0 174.137 9.915 Q 174.177 9.56 174.18 9.164 A 8.366 8.366 0 0 0 174.18 9.111 A 7.243 7.243 0 0 0 174.142 8.356 Q 174.101 7.963 174.014 7.62 A 4.455 4.455 0 0 0 174.009 7.598 A 3.622 3.622 0 0 0 173.798 6.994 A 2.764 2.764 0 0 0 173.491 6.475 A 2.295 2.295 0 0 0 172.627 5.771 A 2.491 2.491 0 0 0 171.97 5.571 A 3.374 3.374 0 0 0 171.416 5.527 A 3.423 3.423 0 0 0 170.816 5.577 A 2.51 2.51 0 0 0 170.19 5.771 Q 169.668 6.016 169.321 6.475 Q 168.975 6.934 168.804 7.598 A 5.185 5.185 0 0 0 168.676 8.308 Q 168.636 8.663 168.633 9.058 A 8.366 8.366 0 0 0 168.633 9.111 A 7.243 7.243 0 0 0 168.67 9.867 Q 168.712 10.26 168.798 10.603 A 4.455 4.455 0 0 0 168.804 10.625 A 3.622 3.622 0 0 0 169.015 11.229 A 2.764 2.764 0 0 0 169.321 11.748 Q 169.668 12.207 170.19 12.446 A 2.558 2.558 0 0 0 170.835 12.64 A 3.51 3.51 0 0 0 171.416 12.686 Z M 92.266 11.221 L 92.266 6.602 Q 91.87 6.071 91.416 5.813 A 1.982 1.982 0 0 0 91.27 5.737 Q 90.732 5.488 90.078 5.488 A 2.838 2.838 0 0 0 89.205 5.616 A 2.231 2.231 0 0 0 88.076 6.436 A 3.166 3.166 0 0 0 87.608 7.379 Q 87.47 7.816 87.413 8.346 A 7.441 7.441 0 0 0 87.373 9.141 A 8.952 8.952 0 0 0 87.4 9.851 Q 87.439 10.338 87.534 10.732 Q 87.671 11.298 87.911 11.69 A 2.251 2.251 0 0 0 87.998 11.821 A 1.936 1.936 0 0 0 88.43 12.265 A 1.754 1.754 0 0 0 88.74 12.446 Q 89.18 12.646 89.736 12.646 A 2.942 2.942 0 0 0 90.483 12.555 A 2.378 2.378 0 0 0 91.148 12.271 A 3.85 3.85 0 0 0 91.814 11.736 A 5.103 5.103 0 0 0 92.266 11.221 Z M 265.303 8.926 L 266.016 6.152 A 2.853 2.853 0 0 0 265.617 6.084 A 3.819 3.819 0 0 0 265.225 6.064 A 2.862 2.862 0 0 0 264.169 6.258 A 2.736 2.736 0 0 0 263.945 6.357 A 3.291 3.291 0 0 0 262.935 7.134 A 3.643 3.643 0 0 0 262.271 8.237 A 3.486 3.486 0 0 0 262.031 9.502 A 2.398 2.398 0 0 0 262.07 9.947 Q 262.119 10.203 262.227 10.407 A 1.307 1.307 0 0 0 262.339 10.581 A 0.993 0.993 0 0 0 262.957 10.958 A 1.542 1.542 0 0 0 263.262 10.986 A 1.885 1.885 0 0 0 263.711 10.93 A 2.213 2.213 0 0 0 263.843 10.894 A 1.477 1.477 0 0 0 264.239 10.699 A 1.845 1.845 0 0 0 264.409 10.566 Q 264.678 10.332 264.912 9.932 Q 265.147 9.531 265.303 8.926 Z M 139.551 8.066 L 144.756 8.066 A 3.49 3.49 0 0 0 144.694 7.399 A 2.926 2.926 0 0 0 144.59 7.007 A 2.495 2.495 0 0 0 144.309 6.431 A 2.204 2.204 0 0 0 144.111 6.177 A 2.164 2.164 0 0 0 143.373 5.647 A 2.487 2.487 0 0 0 143.345 5.635 A 2.396 2.396 0 0 0 142.671 5.459 A 3.002 3.002 0 0 0 142.324 5.439 A 3.317 3.317 0 0 0 141.526 5.53 A 2.295 2.295 0 0 0 140.425 6.143 A 2.895 2.895 0 0 0 139.78 7.16 Q 139.622 7.57 139.551 8.066 Z M 227.686 8.066 L 232.891 8.066 A 3.49 3.49 0 0 0 232.829 7.399 A 2.926 2.926 0 0 0 232.725 7.007 A 2.495 2.495 0 0 0 232.444 6.431 A 2.204 2.204 0 0 0 232.246 6.177 A 2.164 2.164 0 0 0 231.508 5.647 A 2.487 2.487 0 0 0 231.48 5.635 A 2.396 2.396 0 0 0 230.806 5.459 A 3.002 3.002 0 0 0 230.459 5.439 A 3.317 3.317 0 0 0 229.661 5.53 A 2.295 2.295 0 0 0 228.56 6.143 A 2.895 2.895 0 0 0 227.915 7.16 Q 227.757 7.57 227.686 8.066 Z M 125.566 14.404 A 1.056 1.056 0 0 0 125.539 14.159 A 0.744 0.744 0 0 0 125.386 13.848 Q 125.205 13.633 124.893 13.511 A 2.642 2.642 0 0 0 124.556 13.406 Q 124.375 13.362 124.17 13.335 A 12.523 12.523 0 0 0 123.583 13.273 A 14.672 14.672 0 0 0 123.301 13.252 A 41.459 41.459 0 0 0 122.368 13.203 A 8.211 8.211 0 0 1 121.566 13.132 A 7.478 7.478 0 0 1 121.455 13.115 A 2.925 2.925 0 0 0 120.996 13.414 A 2.341 2.341 0 0 0 120.674 13.726 A 1.267 1.267 0 0 0 120.372 14.534 A 1.607 1.607 0 0 0 120.371 14.58 A 1.242 1.242 0 0 0 120.518 15.176 A 1.193 1.193 0 0 0 120.771 15.496 A 1.58 1.58 0 0 0 120.972 15.649 A 1.989 1.989 0 0 0 121.274 15.809 Q 121.489 15.901 121.758 15.967 A 3.774 3.774 0 0 0 122.21 16.047 Q 122.523 16.084 122.891 16.084 A 5.633 5.633 0 0 0 123.427 16.06 Q 123.712 16.032 123.962 15.974 A 3.396 3.396 0 0 0 124.033 15.957 Q 124.531 15.83 124.873 15.61 A 1.719 1.719 0 0 0 125.181 15.36 A 1.392 1.392 0 0 0 125.391 15.083 A 1.344 1.344 0 0 0 125.566 14.404 Z M 134.981 14.404 A 1.056 1.056 0 0 0 134.954 14.159 A 0.744 0.744 0 0 0 134.8 13.848 Q 134.619 13.633 134.307 13.511 A 2.642 2.642 0 0 0 133.97 13.406 Q 133.789 13.362 133.584 13.335 A 12.523 12.523 0 0 0 132.997 13.273 A 14.672 14.672 0 0 0 132.715 13.252 A 41.459 41.459 0 0 0 131.782 13.203 A 8.211 8.211 0 0 1 130.98 13.132 A 7.478 7.478 0 0 1 130.869 13.115 A 2.925 2.925 0 0 0 130.41 13.414 A 2.341 2.341 0 0 0 130.088 13.726 A 1.267 1.267 0 0 0 129.786 14.534 A 1.607 1.607 0 0 0 129.785 14.58 A 1.242 1.242 0 0 0 129.932 15.176 A 1.193 1.193 0 0 0 130.186 15.496 A 1.58 1.58 0 0 0 130.386 15.649 A 1.989 1.989 0 0 0 130.688 15.809 Q 130.903 15.901 131.172 15.967 A 3.774 3.774 0 0 0 131.624 16.047 Q 131.937 16.084 132.305 16.084 A 5.633 5.633 0 0 0 132.841 16.06 Q 133.126 16.032 133.377 15.974 A 3.396 3.396 0 0 0 133.447 15.957 Q 133.945 15.83 134.287 15.61 A 1.719 1.719 0 0 0 134.596 15.36 A 1.392 1.392 0 0 0 134.805 15.083 A 1.344 1.344 0 0 0 134.981 14.404 Z M 242.481 14.404 A 1.056 1.056 0 0 0 242.454 14.159 A 0.744 0.744 0 0 0 242.3 13.848 Q 242.119 13.633 241.807 13.511 A 2.642 2.642 0 0 0 241.47 13.406 Q 241.289 13.362 241.084 13.335 A 12.523 12.523 0 0 0 240.497 13.273 A 14.672 14.672 0 0 0 240.215 13.252 A 41.459 41.459 0 0 0 239.282 13.203 A 8.211 8.211 0 0 1 238.48 13.132 A 7.478 7.478 0 0 1 238.369 13.115 A 2.925 2.925 0 0 0 237.91 13.414 A 2.341 2.341 0 0 0 237.588 13.726 A 1.267 1.267 0 0 0 237.286 14.534 A 1.607 1.607 0 0 0 237.285 14.58 A 1.242 1.242 0 0 0 237.432 15.176 A 1.193 1.193 0 0 0 237.686 15.496 A 1.58 1.58 0 0 0 237.886 15.649 A 1.989 1.989 0 0 0 238.188 15.809 Q 238.403 15.901 238.672 15.967 A 3.774 3.774 0 0 0 239.124 16.047 Q 239.437 16.084 239.805 16.084 A 5.633 5.633 0 0 0 240.341 16.06 Q 240.626 16.032 240.877 15.974 A 3.396 3.396 0 0 0 240.947 15.957 Q 241.445 15.83 241.787 15.61 A 1.719 1.719 0 0 0 242.096 15.36 A 1.392 1.392 0 0 0 242.305 15.083 A 1.344 1.344 0 0 0 242.481 14.404 Z M 42.207 11.563 L 42.207 9.59 Q 41.065 9.639 40.264 9.78 Q 39.463 9.922 38.96 10.156 A 2.607 2.607 0 0 0 38.647 10.327 Q 38.493 10.427 38.378 10.539 A 1.23 1.23 0 0 0 38.232 10.708 A 1.197 1.197 0 0 0 38.008 11.416 A 1.892 1.892 0 0 0 38.031 11.719 Q 38.061 11.904 38.13 12.056 A 1.297 1.297 0 0 0 38.31 12.347 A 1.126 1.126 0 0 0 38.457 12.495 A 1.296 1.296 0 0 0 38.825 12.709 A 1.553 1.553 0 0 0 38.945 12.749 A 2.088 2.088 0 0 0 39.429 12.829 A 2.419 2.419 0 0 0 39.551 12.832 A 3.684 3.684 0 0 0 40.013 12.804 A 2.965 2.965 0 0 0 40.342 12.744 Q 40.703 12.656 41.025 12.495 A 3.179 3.179 0 0 0 41.636 12.095 A 6.93 6.93 0 0 0 42.065 11.706 A 7.871 7.871 0 0 0 42.207 11.562 Z M 71.465 11.563 L 71.465 9.59 Q 70.322 9.639 69.522 9.78 Q 68.721 9.922 68.218 10.156 A 2.607 2.607 0 0 0 67.905 10.327 Q 67.75 10.427 67.636 10.539 A 1.23 1.23 0 0 0 67.49 10.708 A 1.197 1.197 0 0 0 67.266 11.416 A 1.892 1.892 0 0 0 67.289 11.719 Q 67.319 11.904 67.388 12.056 A 1.297 1.297 0 0 0 67.567 12.347 A 1.126 1.126 0 0 0 67.715 12.495 A 1.296 1.296 0 0 0 68.083 12.709 A 1.553 1.553 0 0 0 68.203 12.749 A 2.088 2.088 0 0 0 68.687 12.829 A 2.419 2.419 0 0 0 68.809 12.832 A 3.684 3.684 0 0 0 69.27 12.804 A 2.965 2.965 0 0 0 69.6 12.744 Q 69.961 12.656 70.283 12.495 A 3.179 3.179 0 0 0 70.894 12.095 A 6.93 6.93 0 0 0 71.323 11.706 A 7.871 7.871 0 0 0 71.465 11.562 Z M 279.629 11.563 L 279.629 9.59 Q 278.486 9.639 277.686 9.78 Q 276.885 9.922 276.382 10.156 A 2.607 2.607 0 0 0 276.069 10.327 Q 275.914 10.427 275.8 10.539 A 1.23 1.23 0 0 0 275.654 10.708 A 1.197 1.197 0 0 0 275.43 11.416 A 1.892 1.892 0 0 0 275.453 11.719 Q 275.483 11.904 275.552 12.056 A 1.297 1.297 0 0 0 275.731 12.347 A 1.126 1.126 0 0 0 275.879 12.495 A 1.296 1.296 0 0 0 276.247 12.709 A 1.553 1.553 0 0 0 276.367 12.749 A 2.088 2.088 0 0 0 276.851 12.829 A 2.419 2.419 0 0 0 276.973 12.832 A 3.684 3.684 0 0 0 277.434 12.804 A 2.965 2.965 0 0 0 277.764 12.744 Q 278.125 12.656 278.447 12.495 A 3.179 3.179 0 0 0 279.058 12.095 A 6.93 6.93 0 0 0 279.487 11.706 A 7.871 7.871 0 0 0 279.629 11.562 Z M 316.748 11.563 L 316.748 9.59 Q 315.606 9.639 314.805 9.78 Q 314.004 9.922 313.501 10.156 A 2.607 2.607 0 0 0 313.188 10.327 Q 313.034 10.427 312.919 10.539 A 1.23 1.23 0 0 0 312.773 10.708 A 1.197 1.197 0 0 0 312.549 11.416 A 1.892 1.892 0 0 0 312.572 11.719 Q 312.602 11.904 312.671 12.056 A 1.297 1.297 0 0 0 312.851 12.347 A 1.126 1.126 0 0 0 312.998 12.495 A 1.296 1.296 0 0 0 313.366 12.709 A 1.553 1.553 0 0 0 313.486 12.749 A 2.088 2.088 0 0 0 313.97 12.829 A 2.419 2.419 0 0 0 314.092 12.832 A 3.684 3.684 0 0 0 314.554 12.804 A 2.965 2.965 0 0 0 314.883 12.744 Q 315.244 12.656 315.566 12.495 A 3.179 3.179 0 0 0 316.177 12.095 A 6.93 6.93 0 0 0 316.606 11.706 A 7.871 7.871 0 0 0 316.748 11.562 Z M 122.754 9.199 Q 123.701 9.199 124.185 8.672 A 1.805 1.805 0 0 0 124.628 7.759 A 2.554 2.554 0 0 0 124.668 7.295 A 2.533 2.533 0 0 0 124.606 6.716 A 1.717 1.717 0 0 0 124.185 5.913 A 1.535 1.535 0 0 0 123.5 5.5 Q 123.254 5.425 122.957 5.407 A 3.229 3.229 0 0 0 122.754 5.4 Q 122.063 5.4 121.618 5.685 A 1.456 1.456 0 0 0 121.343 5.913 Q 120.859 6.426 120.859 7.295 A 2.507 2.507 0 0 0 120.9 7.756 A 2.056 2.056 0 0 0 120.981 8.062 A 1.678 1.678 0 0 0 121.328 8.646 A 1.631 1.631 0 0 0 121.343 8.662 A 1.586 1.586 0 0 0 121.809 9.001 A 1.9 1.9 0 0 0 121.939 9.058 A 1.964 1.964 0 0 0 122.391 9.175 A 2.601 2.601 0 0 0 122.754 9.199 Z M 132.168 9.199 Q 133.115 9.199 133.599 8.672 A 1.805 1.805 0 0 0 134.042 7.759 A 2.554 2.554 0 0 0 134.082 7.295 A 2.533 2.533 0 0 0 134.02 6.716 A 1.717 1.717 0 0 0 133.599 5.913 A 1.535 1.535 0 0 0 132.914 5.5 Q 132.668 5.425 132.371 5.407 A 3.229 3.229 0 0 0 132.168 5.4 Q 131.477 5.4 131.032 5.685 A 1.456 1.456 0 0 0 130.757 5.913 Q 130.273 6.426 130.273 7.295 A 2.507 2.507 0 0 0 130.314 7.756 A 2.056 2.056 0 0 0 130.396 8.062 A 1.678 1.678 0 0 0 130.742 8.646 A 1.631 1.631 0 0 0 130.757 8.662 A 1.586 1.586 0 0 0 131.223 9.001 A 1.9 1.9 0 0 0 131.353 9.058 A 1.964 1.964 0 0 0 131.806 9.175 A 2.601 2.601 0 0 0 132.168 9.199 Z M 239.668 9.199 Q 240.615 9.199 241.099 8.672 A 1.805 1.805 0 0 0 241.542 7.759 A 2.554 2.554 0 0 0 241.582 7.295 A 2.533 2.533 0 0 0 241.52 6.716 A 1.717 1.717 0 0 0 241.099 5.913 A 1.535 1.535 0 0 0 240.414 5.5 Q 240.168 5.425 239.871 5.407 A 3.229 3.229 0 0 0 239.668 5.4 Q 238.977 5.4 238.532 5.685 A 1.456 1.456 0 0 0 238.257 5.913 Q 237.773 6.426 237.773 7.295 A 2.507 2.507 0 0 0 237.814 7.756 A 2.056 2.056 0 0 0 237.896 8.062 A 1.678 1.678 0 0 0 238.242 8.646 A 1.631 1.631 0 0 0 238.257 8.662 A 1.586 1.586 0 0 0 238.723 9.001 A 1.9 1.9 0 0 0 238.853 9.058 A 1.964 1.964 0 0 0 239.306 9.175 A 2.601 2.601 0 0 0 239.668 9.199 Z M 164.932 1.812 A 1.13 1.13 0 0 0 165.029 1.348 A 1.309 1.309 0 0 0 165.029 1.332 A 1.149 1.149 0 0 0 164.932 0.874 A 1.228 1.228 0 0 0 164.663 0.488 A 1.333 1.333 0 0 0 164.273 0.225 A 1.13 1.13 0 0 0 163.809 0.127 Q 163.565 0.127 163.35 0.225 A 1.225 1.225 0 0 0 162.974 0.488 A 1.316 1.316 0 0 0 162.715 0.874 Q 162.617 1.094 162.617 1.348 Q 162.617 1.592 162.715 1.812 A 1.4 1.4 0 0 0 162.718 1.818 A 1.249 1.249 0 0 0 162.974 2.192 Q 163.135 2.354 163.35 2.451 Q 163.565 2.549 163.809 2.549 Q 164.053 2.549 164.273 2.451 A 1.384 1.384 0 0 0 164.663 2.192 A 1.171 1.171 0 0 0 164.932 1.812 Z M 285.928 1.812 A 1.13 1.13 0 0 0 286.025 1.348 A 1.309 1.309 0 0 0 286.025 1.332 A 1.149 1.149 0 0 0 285.928 0.874 A 1.228 1.228 0 0 0 285.659 0.488 A 1.333 1.333 0 0 0 285.269 0.225 A 1.13 1.13 0 0 0 284.805 0.127 Q 284.561 0.127 284.346 0.225 A 1.225 1.225 0 0 0 283.97 0.488 A 1.316 1.316 0 0 0 283.711 0.874 Q 283.613 1.094 283.613 1.348 Q 283.613 1.592 283.711 1.812 A 1.4 1.4 0 0 0 283.714 1.818 A 1.249 1.249 0 0 0 283.97 2.192 Q 284.131 2.354 284.346 2.451 Q 284.561 2.549 284.805 2.549 Q 285.049 2.549 285.269 2.451 A 1.384 1.384 0 0 0 285.659 2.192 A 1.171 1.171 0 0 0 285.928 1.812 Z M 323.047 1.812 A 1.13 1.13 0 0 0 323.145 1.348 A 1.309 1.309 0 0 0 323.144 1.332 A 1.149 1.149 0 0 0 323.047 0.874 A 1.228 1.228 0 0 0 322.778 0.488 A 1.333 1.333 0 0 0 322.388 0.225 A 1.13 1.13 0 0 0 321.924 0.127 Q 321.68 0.127 321.465 0.225 A 1.225 1.225 0 0 0 321.089 0.488 A 1.316 1.316 0 0 0 320.83 0.874 Q 320.732 1.094 320.732 1.348 Q 320.732 1.592 320.83 1.812 A 1.4 1.4 0 0 0 320.833 1.818 A 1.249 1.249 0 0 0 321.089 2.192 Q 321.25 2.354 321.465 2.451 Q 321.68 2.549 321.924 2.549 Q 322.168 2.549 322.388 2.451 A 1.384 1.384 0 0 0 322.778 2.192 A 1.171 1.171 0 0 0 323.047 1.812 Z M 198.721 6.685 A 1.13 1.13 0 0 0 198.818 6.221 A 1.309 1.309 0 0 0 198.818 6.205 A 1.149 1.149 0 0 0 198.721 5.747 A 1.228 1.228 0 0 0 198.452 5.361 A 1.333 1.333 0 0 0 198.062 5.098 A 1.13 1.13 0 0 0 197.598 5 Q 197.354 5 197.139 5.098 A 1.225 1.225 0 0 0 196.763 5.361 A 1.316 1.316 0 0 0 196.504 5.747 Q 196.406 5.967 196.406 6.221 Q 196.406 6.465 196.504 6.685 A 1.4 1.4 0 0 0 196.507 6.691 A 1.249 1.249 0 0 0 196.763 7.065 Q 196.924 7.227 197.139 7.324 Q 197.354 7.422 197.598 7.422 Q 197.842 7.422 198.062 7.324 A 1.384 1.384 0 0 0 198.452 7.065 A 1.171 1.171 0 0 0 198.721 6.685 Z M 332.461 13.306 A 1.13 1.13 0 0 0 332.559 12.842 A 1.309 1.309 0 0 0 332.559 12.826 A 1.149 1.149 0 0 0 332.461 12.368 A 1.228 1.228 0 0 0 332.192 11.982 A 1.333 1.333 0 0 0 331.802 11.719 A 1.13 1.13 0 0 0 331.338 11.621 Q 331.094 11.621 330.879 11.719 A 1.225 1.225 0 0 0 330.503 11.982 A 1.316 1.316 0 0 0 330.244 12.368 Q 330.147 12.588 330.147 12.842 Q 330.147 13.086 330.244 13.306 A 1.4 1.4 0 0 0 330.247 13.313 A 1.249 1.249 0 0 0 330.503 13.687 Q 330.664 13.848 330.879 13.945 Q 331.094 14.043 331.338 14.043 Q 331.582 14.043 331.802 13.945 A 1.384 1.384 0 0 0 332.192 13.687 A 1.171 1.171 0 0 0 332.461 13.306 Z M 198.779 13.306 A 1.13 1.13 0 0 0 198.877 12.842 A 1.309 1.309 0 0 0 198.877 12.826 A 1.149 1.149 0 0 0 198.779 12.368 A 1.228 1.228 0 0 0 198.511 11.982 A 1.333 1.333 0 0 0 198.12 11.719 A 1.13 1.13 0 0 0 197.656 11.621 Q 197.412 11.621 197.197 11.719 A 1.225 1.225 0 0 0 196.821 11.982 A 1.316 1.316 0 0 0 196.563 12.368 Q 196.465 12.588 196.465 12.842 Q 196.465 13.086 196.563 13.306 A 1.4 1.4 0 0 0 196.566 13.313 A 1.249 1.249 0 0 0 196.821 13.687 Q 196.982 13.848 197.197 13.945 Q 197.412 14.043 197.656 14.043 Q 197.9 14.043 198.12 13.945 A 1.384 1.384 0 0 0 198.511 13.687 A 1.171 1.171 0 0 0 198.779 13.306 Z" vector-effect="non-scaling-stroke"/></g></svg>
